SplineFontDB: 3.2
FontName: Tangaria-tg
FullName: Tangaria-tg
FamilyName: Tangaria-tg
Weight: Medium
Copyright: Tangar @ http://tangar.info for Tangaria @ http://tangaria.com
UComments: "Created with FontForge (http://fontforge.org)"
Version: 001.000
ItalicAngle: 0
UnderlinePosition: 2
UnderlineWidth: 50
Ascent: 800
Descent: 200
InvalidEm: 0
LayerCount: 3
Layer: 0 0 "+BBcEMAQ0BD0EOAQ5 +BD8EOwQwBD0A" 1
Layer: 1 0 "+BB8ENQRABDUENAQ9BDgEOQAA +BD8EOwQwBD0A" 0
Layer: 2 0 "+BBcEMAQ0BD0EOAQ5 +BD8EOwQwBD0A 2" 1
XUID: [1021 954 -810558476 4622720]
FSType: 0
OS2Version: 0
OS2_WeightWidthSlopeOnly: 0
OS2_UseTypoMetrics: 1
CreationTime: 1607519820
ModificationTime: 1672762489
PfmFamily: 17
TTFWeight: 500
TTFWidth: 5
LineGap: 90
VLineGap: 0
Panose: 2 0 6 9 0 0 0 0 0 0
OS2TypoAscent: 0
OS2TypoAOffset: 1
OS2TypoDescent: 0
OS2TypoDOffset: 1
OS2TypoLinegap: 90
OS2WinAscent: 0
OS2WinAOffset: 1
OS2WinDescent: 0
OS2WinDOffset: 1
HheadAscent: 0
HheadAOffset: 1
HheadDescent: 0
HheadDOffset: 1
OS2Vendor: 'PfEd'
MarkAttachClasses: 1
DEI: 91125
LangName: 1033
Encoding: ISO8859-1
UnicodeInterp: none
NameList: AGL For New Fonts
DisplaySize: 36
AntiAlias: 1
FitToEm: 0
WinInfo: 0 38 14
BeginPrivate: 0
EndPrivate
TeXData: 1 0 0 699400 349700 233133 457179 1048576 233133 783286 444596 497025 792723 393216 433062 380633 303038 157286 324010 404750 52429 2506097 1059062 262144
BeginChars: 256 256

StartChar: uni0000
Encoding: 0 0 0
Width: 667
VWidth: 0
Flags: HW
LayerCount: 3
Back
Fore
SplineSet
38 741 m 0
 38 760 42 770 50 770 c 0
 51 770 51 770 52 770 c 0
 70 770 65 768 126 663 c 0
 179 571 229 496 240 496 c 0
 254 496 279 458 299 410 c 2
 335 324 l 1
 387 424 l 2
 415 480 449 524 460 524 c 0
 471 524 514 595 560 677 c 0
 605 757 624 773 631 773 c 0
 632 773 632 773 632 773 c 0
 633 772 633 771 633 770 c 0
 633 733 489 496 468 496 c 0
 457 496 429 455 404 405 c 0
 385 363 375 338 375 314 c 0
 375 291 385 269 404 233 c 0
 426 185 462 138 479 121 c 0
 516 90 651 -140 651 -167 c 0
 651 -169 650 -170 649 -170 c 0
 640 -170 599 -112 557 -40 c 0
 515 33 462 113 437 138 c 0
 415 163 382 205 365 235 c 0
 352 257 343 269 335 269 c 0
 325 269 316 252 301 213 c 0
 285 169 262 135 249 135 c 0
 235 135 207 102 187 58 c 0
 126 -62 46 -170 21 -170 c 0
 18 -170 16 -168 16 -165 c 0
 16 -155 34 -128 62 -98 c 0
 101 -56 132 -9 132 10 c 0
 132 30 160 74 196 113 c 0
 276 203 309 256 309 306 c 0
 309 328 304 348 293 371 c 0
 276 410 254 441 243 441 c 0
 235 441 185 516 132 608 c 0
 79 699 74 713 60 713 c 0
 49 713 38 727 38 741 c 0
EndSplineSet
Validated: 1
EndChar

StartChar: uni0001
Encoding: 1 1 1
Width: 667
VWidth: 0
Flags: HW
LayerCount: 3
Back
Fore
SplineSet
608 -75 m 0
 608 -66 616 -59 625 -59 c 0
 634 -59 642 -66 642 -75 c 0
 642 -84 634 -91 625 -91 c 0
 616 -91 608 -84 608 -75 c 0
525 -75 m 0
 525 -66 533 -59 542 -59 c 0
 551 -59 559 -66 559 -75 c 0
 559 -84 551 -91 542 -91 c 0
 533 -91 525 -84 525 -75 c 0
442 -75 m 0
 442 -66 450 -59 459 -59 c 0
 468 -59 476 -66 476 -75 c 0
 476 -84 468 -91 459 -91 c 0
 450 -91 442 -84 442 -75 c 0
359 -75 m 0
 359 -66 367 -59 376 -59 c 0
 385 -59 393 -66 393 -75 c 0
 393 -84 385 -91 376 -91 c 0
 367 -91 359 -84 359 -75 c 0
274 -75 m 0
 274 -66 282 -59 291 -59 c 0
 300 -59 308 -66 308 -75 c 0
 308 -84 300 -91 291 -91 c 0
 282 -91 274 -84 274 -75 c 0
191 -75 m 0
 191 -66 199 -59 208 -59 c 0
 217 -59 225 -66 225 -75 c 0
 225 -84 217 -91 208 -91 c 0
 199 -91 191 -84 191 -75 c 0
108 -75 m 0
 108 -66 116 -59 125 -59 c 0
 134 -59 142 -66 142 -75 c 0
 142 -84 134 -91 125 -91 c 0
 116 -91 108 -84 108 -75 c 0
25 -75 m 0
 25 -66 33 -59 42 -59 c 0
 51 -59 59 -66 59 -75 c 0
 59 -84 51 -91 42 -91 c 0
 33 -91 25 -84 25 -75 c 0
EndSplineSet
Validated: 1
EndChar

StartChar: uni0002
Encoding: 2 2 2
Width: 667
VWidth: 0
Flags: HW
LayerCount: 3
Back
Fore
SplineSet
238 591 m 0
 238 570 246 552 256 552 c 0
 266 552 274 570 274 591 c 0
 274 612 266 633 256 633 c 0
 246 633 238 610 238 591 c 0
170 591 m 0
 170 570 178 552 188 552 c 0
 198 552 206 570 206 591 c 0
 206 612 198 633 188 633 c 0
 178 633 170 610 170 591 c 0
300 146 m 0
 300 136 318 127 328 127 c 0
 338 127 356 136 356 146 c 0
 356 156 338 165 328 165 c 0
 318 165 300 156 300 146 c 0
202 512 m 0
 202 504 214 497 228 497 c 0
 242 497 254 504 254 512 c 0
 254 520 242 527 228 527 c 0
 214 527 202 520 202 512 c 0
296 590 m 0
 296 590 296 589 296 589 c 0
 296 581 306 551 310 530 c 0
 316 500 326 461 326 420 c 0
 326 373 338 326 352 317 c 0
 354 315 356 314 358 314 c 0
 364 314 366 322 366 334 c 0
 366 342 366 351 362 362 c 0
 352 412 356 417 378 384 c 0
 390 368 398 357 406 357 c 0
 426 357 452 410 546 592 c 0
 602 700 644 775 650 775 c 0
 650 775 650 774 650 774 c 0
 650 773 650 772 648 770 c 0
 584 548 566 495 542 495 c 0
 528 495 526 484 534 467 c 0
 536 465 536 461 536 456 c 0
 536 437 524 402 504 370 c 0
 484 338 474 321 474 311 c 0
 474 301 486 300 510 298 c 0
 554 295 556 292 516 281 c 0
 490 276 460 245 452 215 c 0
 440 187 420 162 406 162 c 0
 392 162 382 90 378 4 c 0
 378 -72 372 -124 366 -124 c 0
 364 -124 364 -122 362 -119 c 0
 356 -104 350 -96 344 -96 c 0
 340 -96 332 -104 324 -119 c 0
 304 -152 298 -149 298 -116 c 0
 298 -80 296 -80 270 -116 c 0
 246 -152 242 -152 242 -116 c 0
 242 -80 240 -80 216 -116 c 0
 190 -152 188 -152 188 -116 c 0
 188 -80 184 -80 160 -116 c 0
 134 -152 132 -152 132 -116 c 0
 132 -80 128 -80 104 -116 c 0
 78 -152 76 -152 76 -116 c 0
 76 -80 74 -80 48 -116 c 0
 44 -124 40 -127 36 -127 c 0
 22 -127 18 -88 18 -29 c 0
 18 91 42 293 78 398 c 0
 106 476 122 560 122 612 c 0
 122 623 122 632 120 640 c 0
 116 659 114 681 114 702 c 0
 114 726 118 749 124 762 c 0
 130 779 134 788 140 788 c 0
 148 788 162 774 176 742 c 2
 204 676 l 1
 212 746 l 2
 214 779 220 794 228 794 c 0
 234 794 242 779 248 750 c 0
 256 712 254 705 266 678 c 1
 278 692 278 696 282 708 c 0
 282 712 284 725 286 733 c 0
 288 739 288 743 292 752 c 0
 298 764 300 773 314 791 c 0
 320 798 332 787 338 776 c 0
 342 767 346 756 346 744 c 0
 346 711 322 632 302 602 c 0
 300 601 298 596 296 590 c 0
266 484 m 0
 246 460 236 448 224 448 c 0
 212 448 198 448 182 478 c 0
 168 504 160 513 154 513 c 0
 152 513 150 510 150 505 c 0
 150 498 152 490 152 479 c 0
 154 441 176 421 214 421 c 0
 252 421 290 441 292 481 c 0
 296 517 302 534 266 484 c 0
428 234 m 0
 430 236 430 238 430 239 c 0
 430 251 412 262 388 265 c 0
 386 265 384 265 382 265 c 0
 356 265 334 252 334 231 c 0
 334 212 354 202 376 202 c 0
 398 202 422 213 428 234 c 0
EndSplineSet
Validated: 1
EndChar

StartChar: uni0003
Encoding: 3 3 3
Width: 667
VWidth: 0
Flags: HW
LayerCount: 3
Back
Fore
SplineSet
596 -47 m 0
 596 -35 610 -31 625 -31 c 0
 639 -31 656 -34 656 -47 c 0
 656 -61 640 -63 625 -63 c 0
 612 -63 596 -60 596 -47 c 0
512 -47 m 0
 512 -35 526 -31 541 -31 c 0
 555 -31 572 -34 572 -47 c 0
 572 -61 556 -63 541 -63 c 0
 528 -63 512 -60 512 -47 c 0
429 -47 m 0
 429 -35 443 -31 458 -31 c 0
 472 -31 489 -34 489 -47 c 0
 489 -61 473 -63 458 -63 c 0
 445 -63 429 -60 429 -47 c 0
345 -47 m 0
 345 -35 359 -31 374 -31 c 0
 388 -31 405 -34 405 -47 c 0
 405 -61 389 -63 374 -63 c 0
 361 -63 345 -60 345 -47 c 0
262 -47 m 0
 262 -35 276 -31 291 -31 c 0
 305 -31 322 -34 322 -47 c 0
 322 -61 306 -63 291 -63 c 0
 278 -63 262 -60 262 -47 c 0
178 -47 m 0
 178 -35 192 -31 207 -31 c 0
 221 -31 238 -34 238 -47 c 0
 238 -61 222 -63 207 -63 c 0
 194 -63 178 -60 178 -47 c 0
95 -47 m 0
 95 -35 109 -31 124 -31 c 0
 138 -31 155 -34 155 -47 c 0
 155 -61 139 -63 124 -63 c 0
 111 -63 95 -60 95 -47 c 0
11 -47 m 0
 11 -35 25 -31 40 -31 c 0
 54 -31 71 -34 71 -47 c 0
 71 -61 55 -63 40 -63 c 0
 27 -63 11 -60 11 -47 c 0
EndSplineSet
Validated: 1
EndChar

StartChar: uni0004
Encoding: 4 4 4
Width: 667
VWidth: 0
Flags: HW
LayerCount: 3
Back
Fore
SplineSet
274 98 m 0
 283 124 304 136 326 136 c 0
 362 136 401 104 401 54 c 0
 401 10 381 -27 338 -28 c 0
 337 -28 336 -28 335 -28 c 0
 295 -28 266 8 266 55 c 0
 266 68 269 83 274 98 c 0
374 81 m 0
 374 98 363 109 346 109 c 0
 332 109 318 98 318 81 c 0
 318 67 332 54 346 54 c 0
 363 54 374 67 374 81 c 0
EndSplineSet
Validated: 1
EndChar

StartChar: uni0005
Encoding: 5 5 5
Width: 667
VWidth: 0
Flags: HW
LayerCount: 3
Back
Fore
SplineSet
622 -19 m 0
 622 -10 630 -3 639 -3 c 0
 648 -3 656 -10 656 -19 c 0
 656 -28 648 -35 639 -35 c 0
 630 -35 622 -28 622 -19 c 0
511 -19 m 0
 511 -10 519 -3 528 -3 c 0
 537 -3 545 -10 545 -19 c 0
 545 -28 537 -35 528 -35 c 0
 519 -35 511 -28 511 -19 c 0
400 -19 m 0
 400 -10 408 -3 417 -3 c 0
 426 -3 434 -10 434 -19 c 0
 434 -28 426 -35 417 -35 c 0
 408 -35 400 -28 400 -19 c 0
289 -19 m 0
 289 -10 297 -3 306 -3 c 0
 315 -3 323 -10 323 -19 c 0
 323 -28 315 -35 306 -35 c 0
 297 -35 289 -28 289 -19 c 0
177 -19 m 0
 177 -10 185 -3 194 -3 c 0
 203 -3 211 -10 211 -19 c 0
 211 -28 203 -35 194 -35 c 0
 185 -35 177 -28 177 -19 c 0
67 -19 m 0
 67 -10 75 -3 84 -3 c 0
 93 -3 101 -10 101 -19 c 0
 101 -28 93 -35 84 -35 c 0
 75 -35 67 -28 67 -19 c 0
594 64 m 0
 594 73 602 80 611 80 c 0
 620 80 628 73 628 64 c 0
 628 55 620 48 611 48 c 0
 602 48 594 55 594 64 c 0
511 64 m 0
 511 73 519 80 528 80 c 0
 537 80 545 73 545 64 c 0
 545 55 537 48 528 48 c 0
 519 48 511 55 511 64 c 0
428 64 m 0
 428 73 436 80 445 80 c 0
 454 80 462 73 462 64 c 0
 462 55 454 48 445 48 c 0
 436 48 428 55 428 64 c 0
345 64 m 0
 345 73 353 80 362 80 c 0
 371 80 379 73 379 64 c 0
 379 55 371 48 362 48 c 0
 353 48 345 55 345 64 c 0
260 64 m 0
 260 73 268 80 277 80 c 0
 286 80 294 73 294 64 c 0
 294 55 286 48 277 48 c 0
 268 48 260 55 260 64 c 0
177 64 m 0
 177 73 185 80 194 80 c 0
 203 80 211 73 211 64 c 0
 211 55 203 48 194 48 c 0
 185 48 177 55 177 64 c 0
94 64 m 0
 94 73 102 80 111 80 c 0
 120 80 128 73 128 64 c 0
 128 55 120 48 111 48 c 0
 102 48 94 55 94 64 c 0
11 64 m 0
 11 73 19 80 28 80 c 0
 37 80 45 73 45 64 c 0
 45 55 37 48 28 48 c 0
 19 48 11 55 11 64 c 0
EndSplineSet
Validated: 1
EndChar

StartChar: uni0006
Encoding: 6 6 6
Width: 667
VWidth: 0
Flags: HW
LayerCount: 3
Back
Fore
SplineSet
624 -20 m 0
 624 -12 630 -5 640 -5 c 0
 648 -5 656 -12 656 -20 c 0
 656 -28 648 -35 640 -35 c 0
 630 -35 624 -28 624 -20 c 0
596 63 m 0
 596 71 604 78 612 78 c 0
 622 78 628 71 628 63 c 0
 628 55 622 48 612 48 c 0
 604 48 596 55 596 63 c 0
514 -20 m 0
 514 -12 520 -5 530 -5 c 0
 538 -5 546 -12 546 -20 c 0
 546 -28 538 -35 530 -35 c 0
 520 -35 514 -28 514 -20 c 0
512 64 m 0
 512 72 518 79 528 79 c 0
 536 79 544 72 544 64 c 0
 544 56 536 49 528 49 c 0
 518 49 512 56 512 64 c 0
180 -19 m 0
 180 -11 186 -4 196 -4 c 0
 204 -4 212 -11 212 -19 c 0
 212 -27 204 -34 196 -34 c 0
 186 -34 180 -27 180 -19 c 0
68 -20 m 0
 68 -12 76 -5 84 -5 c 0
 94 -5 100 -12 100 -20 c 0
 100 -28 94 -35 84 -35 c 0
 76 -35 68 -28 68 -20 c 0
180 64 m 0
 180 72 186 79 196 79 c 0
 204 79 212 72 212 64 c 0
 212 56 204 49 196 49 c 0
 186 49 180 56 180 64 c 0
96 64 m 0
 96 72 104 79 112 79 c 0
 122 79 128 72 128 64 c 0
 128 56 122 49 112 49 c 0
 104 49 96 56 96 64 c 0
12 64 m 0
 12 72 18 79 28 79 c 0
 36 79 44 72 44 64 c 0
 44 56 36 49 28 49 c 0
 18 49 12 56 12 64 c 0
254 108 m 0
 258 117 268 122 278 122 c 0
 284 122 290 120 294 116 c 0
 304 111 310 101 310 90 c 0
 310 85 308 79 304 74 c 0
 298 65 288 60 278 60 c 0
 272 60 266 62 262 66 c 0
 252 71 248 81 248 91 c 0
 248 97 250 103 254 108 c 0
420 108 m 0
 426 117 434 122 444 122 c 0
 450 122 456 120 462 116 c 0
 470 111 476 101 476 91 c 0
 476 85 474 79 470 74 c 0
 464 65 456 60 446 60 c 0
 440 60 434 62 428 66 c 0
 420 71 414 81 414 92 c 0
 414 97 416 103 420 108 c 0
336 52 m 0
 342 61 352 66 362 66 c 0
 368 66 374 64 378 60 c 0
 388 55 392 46 392 36 c 0
 392 30 390 24 386 19 c 0
 382 10 372 4 360 4 c 0
 356 4 350 6 344 10 c 0
 336 16 330 25 330 35 c 0
 330 41 332 47 336 52 c 0
EndSplineSet
Validated: 1
EndChar

StartChar: uni0007
Encoding: 7 7 7
Width: 667
VWidth: 0
Flags: HW
LayerCount: 3
Back
Fore
SplineSet
564 -47 m 0
 564 -37 586 -29 612 -29 c 0
 638 -29 658 -37 658 -47 c 0
 658 -57 638 -65 612 -65 c 0
 586 -65 564 -57 564 -47 c 0
428 -48 m 0
 428 -38 454 -30 488 -30 c 0
 522 -30 550 -38 550 -48 c 0
 550 -58 522 -66 488 -66 c 0
 454 -66 428 -58 428 -48 c 0
286 -47 m 0
 286 -37 314 -29 348 -29 c 0
 382 -29 408 -37 408 -47 c 0
 408 -57 382 -65 348 -65 c 0
 314 -65 286 -57 286 -47 c 0
150 -47 m 0
 150 -37 176 -29 210 -29 c 0
 244 -29 272 -37 272 -47 c 0
 272 -57 244 -65 210 -65 c 0
 176 -65 150 -57 150 -47 c 0
8 -46 m 0
 8 -36 36 -28 70 -28 c 0
 104 -28 130 -36 130 -46 c 0
 130 -56 104 -64 70 -64 c 0
 36 -64 8 -56 8 -46 c 0
EndSplineSet
Validated: 1
EndChar

StartChar: uni0008
Encoding: 8 8 8
Width: 667
VWidth: 0
Flags: HW
LayerCount: 3
Back
Fore
SplineSet
17 339 m 0
 25 362 30 374 37 374 c 0
 45 374 55 362 75 339 c 0
 93 315 104 303 113 303 c 0
 123 303 131 314 144 336 c 0
 159 357 169 368 178 368 c 0
 187 368 197 357 214 336 c 0
 231 314 240 303 250 303 c 0
 260 303 269 314 286 336 c 0
 303 357 312 368 322 368 c 0
 331 368 340 357 355 336 c 0
 371 314 380 303 389 303 c 0
 398 303 407 314 422 336 c 0
 437 357 447 368 456 368 c 0
 465 368 475 357 492 336 c 0
 509 314 518 303 528 303 c 0
 537 303 547 314 564 336 c 0
 579 355 589 366 598 366 c 0
 608 366 618 352 636 322 c 0
 667 272 667 267 636 294 c 0
 623 307 611 314 599 314 c 0
 588 314 577 309 564 297 c 0
 550 286 538 280 527 280 c 0
 516 280 505 286 494 297 c 0
 482 309 471 315 459 315 c 0
 449 315 438 310 425 300 c 0
 413 289 401 284 389 284 c 0
 377 284 365 289 353 300 c 0
 340 310 329 315 318 315 c 0
 306 315 295 309 283 297 c 0
 272 286 262 280 251 280 c 0
 240 280 228 286 214 297 c 0
 200 310 189 316 178 316 c 0
 167 316 157 310 144 297 c 0
 133 286 123 280 112 280 c 0
 101 280 89 286 75 297 c 0
 61 310 45 317 33 317 c 0
 26 317 21 315 17 311 c 0
 5 300 5 311 17 339 c 0
EndSplineSet
Validated: 1
EndChar

StartChar: uni0009
Encoding: 9 9 9
Width: 667
VWidth: 0
Flags: HW
LayerCount: 3
Back
Fore
SplineSet
242 285 m 0
 238 300 236 310 236 317 c 0
 236 321 238 323 240 323 c 0
 246 323 258 312 280 291 c 0
 304 268 318 257 332 257 c 0
 344 257 358 267 380 288 c 0
 402 308 416 318 422 318 c 0
 430 318 430 309 430 291 c 0
 430 266 412 232 386 210 c 0
 372 198 354 192 338 192 c 0
 294 192 252 229 242 285 c 0
EndSplineSet
Validated: 1
EndChar

StartChar: uni000A
Encoding: 10 10 10
Width: 667
VWidth: 0
Flags: HW
LayerCount: 3
Back
Fore
SplineSet
0 661 m 0
 0 744 3 744 153 744 c 0
 264 744 311 733 322 702 c 0
 327 691 329 680 329 670 c 0
 329 613 257 577 136 577 c 0
 3 577 0 580 0 661 c 0
403 716 m 0
 411 730 475 744 545 744 c 0
 661 744 667 741 667 661 c 0
 667 580 661 577 545 577 c 0
 445 577 417 588 403 633 c 0
 399 648 397 665 397 680 c 0
 397 695 399 708 403 716 c 0
0 411 m 0
 0 498 2 519 42 519 c 0
 52 519 64 518 78 516 c 0
 145 508 153 497 153 411 c 0
 153 325 145 313 78 305 c 0
 64 304 53 302 43 302 c 0
 2 302 0 322 0 411 c 0
272 502 m 0
 297 511 397 516 495 519 c 2
 667 522 l 1
 667 411 l 1
 667 300 l 1
 489 300 l 2
 392 300 292 308 267 316 c 0
 237 328 223 368 223 408 c 0
 223 451 239 494 272 502 c 0
0 161 m 0
 0 244 3 244 150 244 c 0
 278 244 306 236 320 188 c 0
 325 171 328 156 328 144 c 0
 328 92 280 77 150 77 c 0
 3 77 0 77 0 161 c 0
403 216 m 0
 411 230 475 244 545 244 c 0
 661 244 667 241 667 161 c 0
 667 80 661 77 545 77 c 0
 445 77 417 88 403 133 c 0
 399 148 397 165 397 180 c 0
 397 195 399 208 403 216 c 0
0 -89 m 0
 0 -27 6 -9 44 -9 c 0
 53 -9 64 -10 78 -12 c 0
 136 -17 153 -34 153 -89 c 0
 153 -145 136 -162 78 -167 c 0
 65 -169 54 -169 45 -169 c 0
 6 -169 0 -152 0 -89 c 0
259 -25 m 0
 275 -17 375 -9 481 -9 c 2
 667 -6 l 1
 667 -89 l 1
 667 -173 l 1
 489 -173 l 2
 392 -173 292 -164 267 -156 c 0
 239 -146 224 -115 224 -86 c 0
 224 -60 236 -34 259 -25 c 0
EndSplineSet
Validated: 1
EndChar

StartChar: uni000B
Encoding: 11 11 11
Width: 667
VWidth: 0
Flags: HW
LayerCount: 3
Back
Fore
SplineSet
0 661 m 1
 0 744 l 1
 167 744 l 1
 334 744 l 1
 334 661 l 1
 334 577 l 1
 167 577 l 1
 0 577 l 1
 0 661 l 1
389 661 m 0
 389 741 392 744 528 744 c 0
 664 744 667 741 667 661 c 0
 667 580 664 577 528 577 c 0
 392 577 389 580 389 661 c 0
0 411 m 0
 0 516 6 522 84 522 c 0
 161 522 167 516 167 411 c 0
 167 305 161 300 84 300 c 0
 6 300 0 305 0 411 c 0
223 411 m 1
 223 522 l 1
 445 522 l 1
 667 522 l 1
 667 411 l 1
 667 300 l 1
 445 300 l 1
 223 300 l 1
 223 411 l 1
0 161 m 1
 0 244 l 1
 167 244 l 1
 334 244 l 1
 334 161 l 1
 334 77 l 1
 167 77 l 1
 0 77 l 1
 0 161 l 1
389 161 m 0
 389 241 392 244 528 244 c 0
 664 244 667 241 667 161 c 0
 667 80 664 77 528 77 c 0
 392 77 389 80 389 161 c 0
0 -89 m 0
 0 -14 9 -6 84 -6 c 0
 159 -6 167 -14 167 -89 c 0
 167 -164 159 -173 84 -173 c 0
 9 -173 0 -164 0 -89 c 0
223 -89 m 1
 223 -6 l 1
 445 -6 l 1
 667 -6 l 1
 667 -89 l 1
 667 -173 l 1
 445 -173 l 1
 223 -173 l 1
 223 -89 l 1
EndSplineSet
Validated: 1
EndChar

StartChar: uni000C
Encoding: 12 12 12
Width: 667
VWidth: 0
Flags: HW
LayerCount: 3
Back
Fore
SplineSet
0 661 m 1
 0 744 l 1
 167 744 l 1
 334 744 l 1
 334 661 l 1
 334 577 l 1
 167 577 l 1
 0 577 l 1
 0 661 l 1
389 661 m 0
 389 741 392 744 528 744 c 0
 664 744 667 741 667 661 c 0
 667 580 664 577 528 577 c 0
 392 577 389 580 389 661 c 0
500 661 m 0
 500 677 489 688 472 688 c 0
 459 688 445 677 445 661 c 0
 445 647 459 633 472 633 c 0
 489 633 500 647 500 661 c 0
0 411 m 0
 0 516 6 522 84 522 c 0
 161 522 167 516 167 411 c 0
 167 305 161 300 84 300 c 0
 6 300 0 305 0 411 c 0
139 425 m 0
 139 447 128 466 111 466 c 0
 97 466 84 447 84 425 c 0
 84 402 97 383 111 383 c 0
 128 383 139 402 139 425 c 0
222 411 m 1
 222 522 l 1
 445 522 l 1
 667 522 l 1
 667 411 l 1
 667 300 l 1
 445 300 l 1
 222 300 l 1
 222 411 l 1
0 161 m 1
 0 244 l 1
 167 244 l 1
 334 244 l 1
 334 161 l 1
 334 77 l 1
 167 77 l 1
 0 77 l 1
 0 161 l 1
389 161 m 0
 389 241 392 244 528 244 c 0
 664 244 667 241 667 161 c 0
 667 80 664 77 528 77 c 0
 392 77 389 80 389 161 c 0
500 161 m 0
 500 177 489 188 472 188 c 0
 459 188 445 177 445 161 c 0
 445 147 459 133 472 133 c 0
 489 133 500 147 500 161 c 0
0 -89 m 0
 0 -14 9 -6 84 -6 c 0
 159 -6 167 -14 167 -89 c 0
 167 -164 159 -173 84 -173 c 0
 9 -173 0 -164 0 -89 c 0
139 -62 m 0
 139 -45 128 -34 111 -34 c 0
 97 -34 84 -45 84 -62 c 0
 84 -75 97 -89 111 -89 c 0
 128 -89 139 -75 139 -62 c 0
222 -89 m 1
 222 -6 l 1
 445 -6 l 1
 667 -6 l 1
 667 -89 l 1
 667 -173 l 1
 445 -173 l 1
 222 -173 l 1
 222 -89 l 1
EndSplineSet
Validated: 1
EndChar

StartChar: uni000D
Encoding: 13 13 13
Width: 667
VWidth: -20
Flags: HW
LayerCount: 3
Back
Fore
SplineSet
630 -178 m 0
 630 -168 639 -160 649 -160 c 0
 659 -160 668 -168 668 -178 c 0
 668 -188 659 -196 649 -196 c 0
 639 -196 630 -188 630 -178 c 0
2 770 m 0
 2 787 129 798 332 798 c 0
 595 798 667 795 667 742 c 0
 667 726 660 716 649 688 c 0
 637 658 612 644 586 644 c 0
 556 644 525 663 513 699 c 0
 501 734 478 755 461 755 c 0
 451 755 443 747 443 727 c 0
 443 713 407 699 360 699 c 0
 315 699 276 713 276 727 c 0
 276 747 268 755 258 755 c 0
 242 755 219 734 207 699 c 0
 199 668 165 643 138 643 c 0
 110 643 76 668 68 699 c 0
 60 729 38 742 24 742 c 0
 10 742 2 756 2 770 c 0
179 604 m 0
 213 657 246 671 332 671 c 0
 474 671 554 596 554 466 c 0
 554 393 540 366 499 352 c 0
 468 343 443 321 443 307 c 0
 443 290 401 282 353 282 c 0
 292 282 220 295 213 318 c 0
 209 330 200 337 191 337 c 0
 187 337 182 335 179 332 c 0
 174 327 171 321 171 315 c 0
 171 278 256 227 332 227 c 0
 379 227 443 252 476 282 c 0
 505 308 533 326 544 326 c 0
 546 326 548 325 549 324 c 0
 554 319 556 312 556 301 c 0
 556 255 513 161 465 116 c 0
 426 80 384 62 341 62 c 0
 300 62 260 78 221 110 c 0
 170 152 140 288 140 412 c 0
 140 490 152 563 179 604 c 0
460 574 m 0
 434 600 381 613 329 613 c 0
 276 613 223 599 199 571 c 0
 187 558 182 545 182 533 c 0
 182 485 261 449 340 449 c 0
 386 449 431 461 460 491 c 0
 479 509 489 521 489 532 c 0
 489 544 479 556 460 574 c 0
2 574 m 0
 2 613 10 643 26 643 c 0
 67 643 107 550 107 453 c 0
 107 450 107 446 107 443 c 2
 104 352 l 1
 76 429 l 2
 63 471 38 504 24 504 c 0
 10 504 2 535 2 574 c 0
618 571 m 0
 628 584 640 592 650 592 c 0
 656 592 661 589 663 582 c 0
 665 575 667 565 667 553 c 0
 667 489 634 366 610 366 c 0
 592 366 583 400 583 442 c 0
 583 490 595 548 618 571 c 0
2 310 m 0
 2 351 10 368 25 368 c 0
 54 368 100 302 118 207 c 0
 122 188 123 172 123 159 c 0
 123 131 116 116 105 116 c 0
 93 116 76 138 65 185 c 0
 57 224 38 254 24 254 c 0
 10 254 2 279 2 310 c 0
618 318 m 0
 622 319 626 320 629 320 c 0
 652 320 664 295 664 254 c 0
 664 234 661 209 654 182 c 0
 643 138 618 116 576 116 c 0
 547 116 534 119 534 127 c 0
 534 132 539 139 549 149 c 0
 568 168 582 210 582 243 c 0
 582 277 599 310 618 318 c 0
2 46 m 0
 2 91 8 114 27 114 c 0
 38 114 54 105 74 85 c 0
 103 56 238 39 367 39 c 0
 435 39 501 44 549 54 c 0
 592 64 620 70 637 70 c 0
 663 70 665 55 665 18 c 0
 665 -82 638 -134 582 -134 c 0
 554 -134 521 -109 513 -79 c 0
 501 -43 486 -25 471 -25 c 0
 455 -25 440 -43 429 -79 c 0
 421 -109 388 -134 360 -134 c 0
 332 -134 299 -109 290 -79 c 0
 282 -48 263 -23 249 -23 c 0
 235 -23 215 -48 207 -79 c 0
 199 -109 165 -134 138 -134 c 0
 110 -134 76 -109 68 -79 c 0
 60 -48 38 -23 24 -23 c 0
 10 -23 2 7 2 46 c 0
2 -162 m 0
 2 -146 10 -134 24 -134 c 0
 40 -134 60 -146 68 -162 c 0
 70 -165 71 -168 71 -171 c 0
 71 -181 60 -190 43 -190 c 0
 18 -190 2 -176 2 -162 c 0
207 -162 m 0
 215 -146 235 -134 249 -134 c 0
 263 -134 282 -146 290 -162 c 0
 292 -165 292 -167 292 -169 c 0
 292 -181 276 -190 249 -190 c 0
 221 -190 205 -180 205 -169 c 0
 205 -167 206 -164 207 -162 c 0
429 -162 m 0
 438 -146 457 -134 471 -134 c 0
 485 -134 504 -146 513 -162 c 0
 514 -164 515 -167 515 -169 c 0
 515 -180 499 -190 471 -190 c 0
 443 -190 427 -180 427 -169 c 0
 427 -167 428 -164 429 -162 c 0
EndSplineSet
Validated: 1
EndChar

StartChar: uni000E
Encoding: 14 14 14
Width: 667
VWidth: 0
Flags: HW
LayerCount: 3
Back
Fore
SplineSet
342 669 m 2
 430 792 l 1
 486 726 l 2
 538 662 666 300 666 208 c 0
 666 186 660 175 642 175 c 0
 636 175 628 177 620 180 c 0
 586 194 580 188 598 161 c 0
 612 138 606 130 584 138 c 0
 562 144 534 175 516 202 c 0
 480 266 426 327 406 327 c 0
 404 327 402 325 402 321 c 0
 402 292 454 178 478 161 c 0
 488 152 520 94 544 36 c 0
 570 -25 608 -98 634 -123 c 0
 642 -134 648 -143 648 -149 c 0
 648 -171 584 -173 338 -173 c 0
 152 -173 0 -167 0 -162 c 0
 0 -153 28 -117 64 -78 c 0
 100 -42 150 61 176 144 c 0
 202 230 236 300 252 300 c 0
 266 300 278 319 278 344 c 0
 278 367 286 379 306 379 c 0
 314 379 322 378 330 375 c 0
 340 373 348 372 352 372 c 0
 366 372 372 378 372 392 c 0
 372 397 372 404 370 413 c 0
 362 444 348 466 338 466 c 0
 314 466 138 261 138 233 c 0
 138 197 52 105 20 105 c 0
 8 105 2 123 2 154 c 0
 2 228 34 376 84 513 c 0
 122 616 146 666 166 666 c 0
 182 666 194 636 208 577 c 0
 220 530 236 494 244 494 c 0
 256 494 280 584 342 669 c 2
428 566 m 0
 436 585 440 604 440 613 c 0
 440 616 440 618 438 619 c 0
 438 620 436 620 436 620 c 0
 418 620 362 556 362 536 c 0
 362 525 368 520 376 520 c 0
 392 520 416 539 428 566 c 0
142 436 m 0
 152 462 158 488 158 503 c 0
 158 508 158 512 156 513 c 0
 154 514 154 515 152 515 c 0
 138 515 114 446 114 406 c 0
 114 405 114 403 114 402 c 0
 114 397 114 394 116 394 c 0
 122 394 132 410 142 436 c 0
612 327 m 0
 612 344 600 355 584 355 c 0
 570 355 556 344 556 327 c 0
 556 313 570 300 584 300 c 0
 600 300 612 313 612 327 c 0
372 200 m 0
 360 245 340 272 324 272 c 0
 314 272 306 259 306 230 c 0
 306 208 320 188 334 188 c 0
 350 188 362 169 362 141 c 0
 362 121 364 108 370 108 c 0
 372 108 374 109 376 111 c 0
 380 114 382 124 382 137 c 0
 382 153 378 176 372 200 c 0
270 -23 m 0
 272 -21 272 -19 272 -18 c 0
 272 -12 262 -8 246 -8 c 0
 242 -8 238 -9 234 -9 c 0
 202 -9 194 -17 216 -25 c 0
 226 -29 234 -31 244 -31 c 0
 254 -31 264 -28 270 -23 c 0
EndSplineSet
Validated: 1
EndChar

StartChar: uni000F
Encoding: 15 15 15
Width: 667
VWidth: 0
Flags: HW
LayerCount: 3
Back
Fore
SplineSet
519 -48 m 0
 519 -58 537 -62 547 -62 c 0
 557 -62 576 -58 576 -48 c 0
 576 -38 557 -33 547 -33 c 0
 537 -33 519 -38 519 -48 c 0
297 160 m 0
 297 150 301 133 311 133 c 0
 321 133 325 150 325 160 c 0
 325 170 321 189 311 189 c 0
 301 189 297 170 297 160 c 0
241 670 m 0
 241 660 259 656 269 656 c 0
 279 656 298 660 298 670 c 0
 298 680 279 685 269 685 c 0
 259 685 241 680 241 670 c 0
199 682 m 0
 221 715 257 743 277 743 c 0
 352 743 454 629 499 501 c 0
 524 426 538 386 538 370 c 0
 538 364 536 361 532 361 c 0
 523 361 503 375 471 396 c 0
 439 417 420 427 403 427 c 0
 387 427 374 417 352 398 c 0
 324 373 293 354 282 354 c 0
 246 354 182 276 182 234 c 0
 182 212 163 179 141 159 c 0
 127 146 116 140 109 140 c 0
 102 140 99 146 99 157 c 0
 99 173 79 187 57 187 c 0
 35 187 16 212 16 243 c 0
 16 301 129 576 199 682 c 0
377 590 m 0
 377 612 366 632 349 632 c 0
 335 632 321 612 321 590 c 0
 321 568 335 548 349 548 c 0
 366 548 377 568 377 590 c 0
154 298 m 0
 154 315 143 326 127 326 c 0
 113 326 99 315 99 298 c 0
 99 284 113 271 127 271 c 0
 143 271 154 284 154 298 c 0
291 315 m 0
 337 358 373 379 411 379 c 0
 441 379 472 366 510 340 c 0
 574 294 651 71 651 -54 c 0
 651 -64 650 -73 649 -82 c 2
 641 -160 l 1
 371 -157 l 2
 221 -157 91 -149 82 -138 c 0
 79 -135 78 -131 78 -124 c 0
 78 -50 220 249 291 315 c 0
404 271 m 0
 404 287 393 298 377 298 c 0
 363 298 349 287 349 271 c 0
 349 257 363 243 377 243 c 0
 393 243 404 257 404 271 c 0
EndSplineSet
Validated: 1
EndChar

StartChar: uni0010
Encoding: 16 16 16
Width: 667
VWidth: 0
Flags: HW
LayerCount: 3
Back
Fore
SplineSet
38 741 m 0
 38 760 42 770 50 770 c 0
 51 770 51 770 52 770 c 0
 70 770 65 768 126 663 c 0
 179 571 229 496 240 496 c 0
 254 496 279 458 299 410 c 2
 335 324 l 1
 387 424 l 2
 415 480 449 524 460 524 c 0
 471 524 514 595 560 677 c 0
 605 757 624 773 631 773 c 0
 632 773 632 773 632 773 c 0
 633 772 633 771 633 770 c 0
 633 733 489 496 468 496 c 0
 457 496 429 455 404 405 c 0
 385 363 375 338 375 314 c 0
 375 291 385 269 404 233 c 0
 426 185 462 138 479 121 c 0
 516 90 651 -140 651 -167 c 0
 651 -169 650 -170 649 -170 c 0
 640 -170 599 -112 557 -40 c 0
 515 33 462 113 437 138 c 0
 415 163 382 205 365 235 c 0
 352 257 343 269 335 269 c 0
 325 269 316 252 301 213 c 0
 285 169 262 135 249 135 c 0
 235 135 207 102 187 58 c 0
 126 -62 46 -170 21 -170 c 0
 18 -170 16 -168 16 -165 c 0
 16 -155 34 -128 62 -98 c 0
 101 -56 132 -9 132 10 c 0
 132 30 160 74 196 113 c 0
 276 203 309 256 309 306 c 0
 309 328 304 348 293 371 c 0
 276 410 254 441 243 441 c 0
 235 441 185 516 132 608 c 0
 79 699 74 713 60 713 c 0
 49 713 38 727 38 741 c 0
EndSplineSet
Validated: 1
EndChar

StartChar: uni0011
Encoding: 17 17 17
Width: 667
VWidth: 0
Flags: HW
LayerCount: 3
Back
Fore
SplineSet
38 741 m 0
 38 760 42 770 50 770 c 0
 51 770 51 770 52 770 c 0
 70 770 65 768 126 663 c 0
 179 571 229 496 240 496 c 0
 254 496 279 458 299 410 c 2
 335 324 l 1
 387 424 l 2
 415 480 449 524 460 524 c 0
 471 524 514 595 560 677 c 0
 605 757 624 773 631 773 c 0
 632 773 632 773 632 773 c 0
 633 772 633 771 633 770 c 0
 633 733 489 496 468 496 c 0
 457 496 429 455 404 405 c 0
 385 363 375 338 375 314 c 0
 375 291 385 269 404 233 c 0
 426 185 462 138 479 121 c 0
 516 90 651 -140 651 -167 c 0
 651 -169 650 -170 649 -170 c 0
 640 -170 599 -112 557 -40 c 0
 515 33 462 113 437 138 c 0
 415 163 382 205 365 235 c 0
 352 257 343 269 335 269 c 0
 325 269 316 252 301 213 c 0
 285 169 262 135 249 135 c 0
 235 135 207 102 187 58 c 0
 126 -62 46 -170 21 -170 c 0
 18 -170 16 -168 16 -165 c 0
 16 -155 34 -128 62 -98 c 0
 101 -56 132 -9 132 10 c 0
 132 30 160 74 196 113 c 0
 276 203 309 256 309 306 c 0
 309 328 304 348 293 371 c 0
 276 410 254 441 243 441 c 0
 235 441 185 516 132 608 c 0
 79 699 74 713 60 713 c 0
 49 713 38 727 38 741 c 0
EndSplineSet
Validated: 1
EndChar

StartChar: uni0012
Encoding: 18 18 18
Width: 667
VWidth: 0
Flags: HW
LayerCount: 3
Back
Fore
SplineSet
38 741 m 0
 38 760 42 770 50 770 c 0
 51 770 51 770 52 770 c 0
 70 770 65 768 126 663 c 0
 179 571 229 496 240 496 c 0
 254 496 279 458 299 410 c 2
 335 324 l 1
 387 424 l 2
 415 480 449 524 460 524 c 0
 471 524 514 595 560 677 c 0
 605 757 624 773 631 773 c 0
 632 773 632 773 632 773 c 0
 633 772 633 771 633 770 c 0
 633 733 489 496 468 496 c 0
 457 496 429 455 404 405 c 0
 385 363 375 338 375 314 c 0
 375 291 385 269 404 233 c 0
 426 185 462 138 479 121 c 0
 516 90 651 -140 651 -167 c 0
 651 -169 650 -170 649 -170 c 0
 640 -170 599 -112 557 -40 c 0
 515 33 462 113 437 138 c 0
 415 163 382 205 365 235 c 0
 352 257 343 269 335 269 c 0
 325 269 316 252 301 213 c 0
 285 169 262 135 249 135 c 0
 235 135 207 102 187 58 c 0
 126 -62 46 -170 21 -170 c 0
 18 -170 16 -168 16 -165 c 0
 16 -155 34 -128 62 -98 c 0
 101 -56 132 -9 132 10 c 0
 132 30 160 74 196 113 c 0
 276 203 309 256 309 306 c 0
 309 328 304 348 293 371 c 0
 276 410 254 441 243 441 c 0
 235 441 185 516 132 608 c 0
 79 699 74 713 60 713 c 0
 49 713 38 727 38 741 c 0
EndSplineSet
Validated: 1
EndChar

StartChar: uni0013
Encoding: 19 19 19
Width: 667
VWidth: 0
Flags: HW
LayerCount: 3
Back
Fore
SplineSet
38 741 m 0
 38 760 42 770 50 770 c 0
 51 770 51 770 52 770 c 0
 70 770 65 768 126 663 c 0
 179 571 229 496 240 496 c 0
 254 496 279 458 299 410 c 2
 335 324 l 1
 387 424 l 2
 415 480 449 524 460 524 c 0
 471 524 514 595 560 677 c 0
 605 757 624 773 631 773 c 0
 632 773 632 773 632 773 c 0
 633 772 633 771 633 770 c 0
 633 733 489 496 468 496 c 0
 457 496 429 455 404 405 c 0
 385 363 375 338 375 314 c 0
 375 291 385 269 404 233 c 0
 426 185 462 138 479 121 c 0
 516 90 651 -140 651 -167 c 0
 651 -169 650 -170 649 -170 c 0
 640 -170 599 -112 557 -40 c 0
 515 33 462 113 437 138 c 0
 415 163 382 205 365 235 c 0
 352 257 343 269 335 269 c 0
 325 269 316 252 301 213 c 0
 285 169 262 135 249 135 c 0
 235 135 207 102 187 58 c 0
 126 -62 46 -170 21 -170 c 0
 18 -170 16 -168 16 -165 c 0
 16 -155 34 -128 62 -98 c 0
 101 -56 132 -9 132 10 c 0
 132 30 160 74 196 113 c 0
 276 203 309 256 309 306 c 0
 309 328 304 348 293 371 c 0
 276 410 254 441 243 441 c 0
 235 441 185 516 132 608 c 0
 79 699 74 713 60 713 c 0
 49 713 38 727 38 741 c 0
EndSplineSet
Validated: 1
EndChar

StartChar: uni0014
Encoding: 20 20 20
Width: 667
VWidth: 0
Flags: HW
LayerCount: 3
Back
Fore
SplineSet
38 741 m 0
 38 760 42 770 50 770 c 0
 51 770 51 770 52 770 c 0
 70 770 65 768 126 663 c 0
 179 571 229 496 240 496 c 0
 254 496 279 458 299 410 c 2
 335 324 l 1
 387 424 l 2
 415 480 449 524 460 524 c 0
 471 524 514 595 560 677 c 0
 605 757 624 773 631 773 c 0
 632 773 632 773 632 773 c 0
 633 772 633 771 633 770 c 0
 633 733 489 496 468 496 c 0
 457 496 429 455 404 405 c 0
 385 363 375 338 375 314 c 0
 375 291 385 269 404 233 c 0
 426 185 462 138 479 121 c 0
 516 90 651 -140 651 -167 c 0
 651 -169 650 -170 649 -170 c 0
 640 -170 599 -112 557 -40 c 0
 515 33 462 113 437 138 c 0
 415 163 382 205 365 235 c 0
 352 257 343 269 335 269 c 0
 325 269 316 252 301 213 c 0
 285 169 262 135 249 135 c 0
 235 135 207 102 187 58 c 0
 126 -62 46 -170 21 -170 c 0
 18 -170 16 -168 16 -165 c 0
 16 -155 34 -128 62 -98 c 0
 101 -56 132 -9 132 10 c 0
 132 30 160 74 196 113 c 0
 276 203 309 256 309 306 c 0
 309 328 304 348 293 371 c 0
 276 410 254 441 243 441 c 0
 235 441 185 516 132 608 c 0
 79 699 74 713 60 713 c 0
 49 713 38 727 38 741 c 0
EndSplineSet
Validated: 1
EndChar

StartChar: uni0015
Encoding: 21 21 21
Width: 667
VWidth: 0
Flags: HW
LayerCount: 3
Back
Fore
SplineSet
38 741 m 0
 38 760 42 770 50 770 c 0
 51 770 51 770 52 770 c 0
 70 770 65 768 126 663 c 0
 179 571 229 496 240 496 c 0
 254 496 279 458 299 410 c 2
 335 324 l 1
 387 424 l 2
 415 480 449 524 460 524 c 0
 471 524 514 595 560 677 c 0
 605 757 624 773 631 773 c 0
 632 773 632 773 632 773 c 0
 633 772 633 771 633 770 c 0
 633 733 489 496 468 496 c 0
 457 496 429 455 404 405 c 0
 385 363 375 338 375 314 c 0
 375 291 385 269 404 233 c 0
 426 185 462 138 479 121 c 0
 516 90 651 -140 651 -167 c 0
 651 -169 650 -170 649 -170 c 0
 640 -170 599 -112 557 -40 c 0
 515 33 462 113 437 138 c 0
 415 163 382 205 365 235 c 0
 352 257 343 269 335 269 c 0
 325 269 316 252 301 213 c 0
 285 169 262 135 249 135 c 0
 235 135 207 102 187 58 c 0
 126 -62 46 -170 21 -170 c 0
 18 -170 16 -168 16 -165 c 0
 16 -155 34 -128 62 -98 c 0
 101 -56 132 -9 132 10 c 0
 132 30 160 74 196 113 c 0
 276 203 309 256 309 306 c 0
 309 328 304 348 293 371 c 0
 276 410 254 441 243 441 c 0
 235 441 185 516 132 608 c 0
 79 699 74 713 60 713 c 0
 49 713 38 727 38 741 c 0
EndSplineSet
Validated: 1
EndChar

StartChar: uni0016
Encoding: 22 22 22
Width: 667
VWidth: 0
Flags: HW
LayerCount: 3
Back
Fore
SplineSet
38 741 m 0
 38 760 42 770 50 770 c 0
 51 770 51 770 52 770 c 0
 70 770 65 768 126 663 c 0
 179 571 229 496 240 496 c 0
 254 496 279 458 299 410 c 2
 335 324 l 1
 387 424 l 2
 415 480 449 524 460 524 c 0
 471 524 514 595 560 677 c 0
 605 757 624 773 631 773 c 0
 632 773 632 773 632 773 c 0
 633 772 633 771 633 770 c 0
 633 733 489 496 468 496 c 0
 457 496 429 455 404 405 c 0
 385 363 375 338 375 314 c 0
 375 291 385 269 404 233 c 0
 426 185 462 138 479 121 c 0
 516 90 651 -140 651 -167 c 0
 651 -169 650 -170 649 -170 c 0
 640 -170 599 -112 557 -40 c 0
 515 33 462 113 437 138 c 0
 415 163 382 205 365 235 c 0
 352 257 343 269 335 269 c 0
 325 269 316 252 301 213 c 0
 285 169 262 135 249 135 c 0
 235 135 207 102 187 58 c 0
 126 -62 46 -170 21 -170 c 0
 18 -170 16 -168 16 -165 c 0
 16 -155 34 -128 62 -98 c 0
 101 -56 132 -9 132 10 c 0
 132 30 160 74 196 113 c 0
 276 203 309 256 309 306 c 0
 309 328 304 348 293 371 c 0
 276 410 254 441 243 441 c 0
 235 441 185 516 132 608 c 0
 79 699 74 713 60 713 c 0
 49 713 38 727 38 741 c 0
EndSplineSet
Validated: 1
EndChar

StartChar: uni0017
Encoding: 23 23 23
Width: 667
VWidth: 0
Flags: HW
LayerCount: 3
Back
Fore
SplineSet
38 741 m 0
 38 760 42 770 50 770 c 0
 51 770 51 770 52 770 c 0
 70 770 65 768 126 663 c 0
 179 571 229 496 240 496 c 0
 254 496 279 458 299 410 c 2
 335 324 l 1
 387 424 l 2
 415 480 449 524 460 524 c 0
 471 524 514 595 560 677 c 0
 605 757 624 773 631 773 c 0
 632 773 632 773 632 773 c 0
 633 772 633 771 633 770 c 0
 633 733 489 496 468 496 c 0
 457 496 429 455 404 405 c 0
 385 363 375 338 375 314 c 0
 375 291 385 269 404 233 c 0
 426 185 462 138 479 121 c 0
 516 90 651 -140 651 -167 c 0
 651 -169 650 -170 649 -170 c 0
 640 -170 599 -112 557 -40 c 0
 515 33 462 113 437 138 c 0
 415 163 382 205 365 235 c 0
 352 257 343 269 335 269 c 0
 325 269 316 252 301 213 c 0
 285 169 262 135 249 135 c 0
 235 135 207 102 187 58 c 0
 126 -62 46 -170 21 -170 c 0
 18 -170 16 -168 16 -165 c 0
 16 -155 34 -128 62 -98 c 0
 101 -56 132 -9 132 10 c 0
 132 30 160 74 196 113 c 0
 276 203 309 256 309 306 c 0
 309 328 304 348 293 371 c 0
 276 410 254 441 243 441 c 0
 235 441 185 516 132 608 c 0
 79 699 74 713 60 713 c 0
 49 713 38 727 38 741 c 0
EndSplineSet
Validated: 1
EndChar

StartChar: uni0018
Encoding: 24 24 24
Width: 667
VWidth: 0
Flags: HW
LayerCount: 3
Back
Fore
SplineSet
38 741 m 0
 38 760 42 770 50 770 c 0
 51 770 51 770 52 770 c 0
 70 770 65 768 126 663 c 0
 179 571 229 496 240 496 c 0
 254 496 279 458 299 410 c 2
 335 324 l 1
 387 424 l 2
 415 480 449 524 460 524 c 0
 471 524 514 595 560 677 c 0
 605 757 624 773 631 773 c 0
 632 773 632 773 632 773 c 0
 633 772 633 771 633 770 c 0
 633 733 489 496 468 496 c 0
 457 496 429 455 404 405 c 0
 385 363 375 338 375 314 c 0
 375 291 385 269 404 233 c 0
 426 185 462 138 479 121 c 0
 516 90 651 -140 651 -167 c 0
 651 -169 650 -170 649 -170 c 0
 640 -170 599 -112 557 -40 c 0
 515 33 462 113 437 138 c 0
 415 163 382 205 365 235 c 0
 352 257 343 269 335 269 c 0
 325 269 316 252 301 213 c 0
 285 169 262 135 249 135 c 0
 235 135 207 102 187 58 c 0
 126 -62 46 -170 21 -170 c 0
 18 -170 16 -168 16 -165 c 0
 16 -155 34 -128 62 -98 c 0
 101 -56 132 -9 132 10 c 0
 132 30 160 74 196 113 c 0
 276 203 309 256 309 306 c 0
 309 328 304 348 293 371 c 0
 276 410 254 441 243 441 c 0
 235 441 185 516 132 608 c 0
 79 699 74 713 60 713 c 0
 49 713 38 727 38 741 c 0
EndSplineSet
Validated: 1
EndChar

StartChar: uni0019
Encoding: 25 25 25
Width: 667
VWidth: 0
Flags: HW
LayerCount: 3
Back
Fore
SplineSet
38 741 m 0
 38 760 42 770 50 770 c 0
 51 770 51 770 52 770 c 0
 70 770 65 768 126 663 c 0
 179 571 229 496 240 496 c 0
 254 496 279 458 299 410 c 2
 335 324 l 1
 387 424 l 2
 415 480 449 524 460 524 c 0
 471 524 514 595 560 677 c 0
 605 757 624 773 631 773 c 0
 632 773 632 773 632 773 c 0
 633 772 633 771 633 770 c 0
 633 733 489 496 468 496 c 0
 457 496 429 455 404 405 c 0
 385 363 375 338 375 314 c 0
 375 291 385 269 404 233 c 0
 426 185 462 138 479 121 c 0
 516 90 651 -140 651 -167 c 0
 651 -169 650 -170 649 -170 c 0
 640 -170 599 -112 557 -40 c 0
 515 33 462 113 437 138 c 0
 415 163 382 205 365 235 c 0
 352 257 343 269 335 269 c 0
 325 269 316 252 301 213 c 0
 285 169 262 135 249 135 c 0
 235 135 207 102 187 58 c 0
 126 -62 46 -170 21 -170 c 0
 18 -170 16 -168 16 -165 c 0
 16 -155 34 -128 62 -98 c 0
 101 -56 132 -9 132 10 c 0
 132 30 160 74 196 113 c 0
 276 203 309 256 309 306 c 0
 309 328 304 348 293 371 c 0
 276 410 254 441 243 441 c 0
 235 441 185 516 132 608 c 0
 79 699 74 713 60 713 c 0
 49 713 38 727 38 741 c 0
EndSplineSet
Validated: 1
EndChar

StartChar: uni001A
Encoding: 26 26 26
Width: 667
VWidth: 0
Flags: HW
LayerCount: 3
Back
Fore
SplineSet
38 741 m 0
 38 760 42 770 50 770 c 0
 51 770 51 770 52 770 c 0
 70 770 65 768 126 663 c 0
 179 571 229 496 240 496 c 0
 254 496 279 458 299 410 c 2
 335 324 l 1
 387 424 l 2
 415 480 449 524 460 524 c 0
 471 524 514 595 560 677 c 0
 605 757 624 773 631 773 c 0
 632 773 632 773 632 773 c 0
 633 772 633 771 633 770 c 0
 633 733 489 496 468 496 c 0
 457 496 429 455 404 405 c 0
 385 363 375 338 375 314 c 0
 375 291 385 269 404 233 c 0
 426 185 462 138 479 121 c 0
 516 90 651 -140 651 -167 c 0
 651 -169 650 -170 649 -170 c 0
 640 -170 599 -112 557 -40 c 0
 515 33 462 113 437 138 c 0
 415 163 382 205 365 235 c 0
 352 257 343 269 335 269 c 0
 325 269 316 252 301 213 c 0
 285 169 262 135 249 135 c 0
 235 135 207 102 187 58 c 0
 126 -62 46 -170 21 -170 c 0
 18 -170 16 -168 16 -165 c 0
 16 -155 34 -128 62 -98 c 0
 101 -56 132 -9 132 10 c 0
 132 30 160 74 196 113 c 0
 276 203 309 256 309 306 c 0
 309 328 304 348 293 371 c 0
 276 410 254 441 243 441 c 0
 235 441 185 516 132 608 c 0
 79 699 74 713 60 713 c 0
 49 713 38 727 38 741 c 0
EndSplineSet
Validated: 1
EndChar

StartChar: uni001B
Encoding: 27 27 27
Width: 667
VWidth: 0
Flags: HW
LayerCount: 3
Back
Fore
SplineSet
38 741 m 0
 38 760 42 770 50 770 c 0
 51 770 51 770 52 770 c 0
 70 770 65 768 126 663 c 0
 179 571 229 496 240 496 c 0
 254 496 279 458 299 410 c 2
 335 324 l 1
 387 424 l 2
 415 480 449 524 460 524 c 0
 471 524 514 595 560 677 c 0
 605 757 624 773 631 773 c 0
 632 773 632 773 632 773 c 0
 633 772 633 771 633 770 c 0
 633 733 489 496 468 496 c 0
 457 496 429 455 404 405 c 0
 385 363 375 338 375 314 c 0
 375 291 385 269 404 233 c 0
 426 185 462 138 479 121 c 0
 516 90 651 -140 651 -167 c 0
 651 -169 650 -170 649 -170 c 0
 640 -170 599 -112 557 -40 c 0
 515 33 462 113 437 138 c 0
 415 163 382 205 365 235 c 0
 352 257 343 269 335 269 c 0
 325 269 316 252 301 213 c 0
 285 169 262 135 249 135 c 0
 235 135 207 102 187 58 c 0
 126 -62 46 -170 21 -170 c 0
 18 -170 16 -168 16 -165 c 0
 16 -155 34 -128 62 -98 c 0
 101 -56 132 -9 132 10 c 0
 132 30 160 74 196 113 c 0
 276 203 309 256 309 306 c 0
 309 328 304 348 293 371 c 0
 276 410 254 441 243 441 c 0
 235 441 185 516 132 608 c 0
 79 699 74 713 60 713 c 0
 49 713 38 727 38 741 c 0
EndSplineSet
Validated: 1
EndChar

StartChar: uni001C
Encoding: 28 28 28
Width: 667
VWidth: 0
Flags: HW
LayerCount: 3
Back
Fore
SplineSet
38 741 m 0
 38 760 42 770 50 770 c 0
 51 770 51 770 52 770 c 0
 70 770 65 768 126 663 c 0
 179 571 229 496 240 496 c 0
 254 496 279 458 299 410 c 2
 335 324 l 1
 387 424 l 2
 415 480 449 524 460 524 c 0
 471 524 514 595 560 677 c 0
 605 757 624 773 631 773 c 0
 632 773 632 773 632 773 c 0
 633 772 633 771 633 770 c 0
 633 733 489 496 468 496 c 0
 457 496 429 455 404 405 c 0
 385 363 375 338 375 314 c 0
 375 291 385 269 404 233 c 0
 426 185 462 138 479 121 c 0
 516 90 651 -140 651 -167 c 0
 651 -169 650 -170 649 -170 c 0
 640 -170 599 -112 557 -40 c 0
 515 33 462 113 437 138 c 0
 415 163 382 205 365 235 c 0
 352 257 343 269 335 269 c 0
 325 269 316 252 301 213 c 0
 285 169 262 135 249 135 c 0
 235 135 207 102 187 58 c 0
 126 -62 46 -170 21 -170 c 0
 18 -170 16 -168 16 -165 c 0
 16 -155 34 -128 62 -98 c 0
 101 -56 132 -9 132 10 c 0
 132 30 160 74 196 113 c 0
 276 203 309 256 309 306 c 0
 309 328 304 348 293 371 c 0
 276 410 254 441 243 441 c 0
 235 441 185 516 132 608 c 0
 79 699 74 713 60 713 c 0
 49 713 38 727 38 741 c 0
EndSplineSet
Validated: 1
EndChar

StartChar: uni001D
Encoding: 29 29 29
Width: 667
VWidth: 0
Flags: HW
LayerCount: 3
Back
Fore
SplineSet
38 741 m 0
 38 760 42 770 50 770 c 0
 51 770 51 770 52 770 c 0
 70 770 65 768 126 663 c 0
 179 571 229 496 240 496 c 0
 254 496 279 458 299 410 c 2
 335 324 l 1
 387 424 l 2
 415 480 449 524 460 524 c 0
 471 524 514 595 560 677 c 0
 605 757 624 773 631 773 c 0
 632 773 632 773 632 773 c 0
 633 772 633 771 633 770 c 0
 633 733 489 496 468 496 c 0
 457 496 429 455 404 405 c 0
 385 363 375 338 375 314 c 0
 375 291 385 269 404 233 c 0
 426 185 462 138 479 121 c 0
 516 90 651 -140 651 -167 c 0
 651 -169 650 -170 649 -170 c 0
 640 -170 599 -112 557 -40 c 0
 515 33 462 113 437 138 c 0
 415 163 382 205 365 235 c 0
 352 257 343 269 335 269 c 0
 325 269 316 252 301 213 c 0
 285 169 262 135 249 135 c 0
 235 135 207 102 187 58 c 0
 126 -62 46 -170 21 -170 c 0
 18 -170 16 -168 16 -165 c 0
 16 -155 34 -128 62 -98 c 0
 101 -56 132 -9 132 10 c 0
 132 30 160 74 196 113 c 0
 276 203 309 256 309 306 c 0
 309 328 304 348 293 371 c 0
 276 410 254 441 243 441 c 0
 235 441 185 516 132 608 c 0
 79 699 74 713 60 713 c 0
 49 713 38 727 38 741 c 0
EndSplineSet
Validated: 1
EndChar

StartChar: uni001E
Encoding: 30 30 30
Width: 667
VWidth: 0
Flags: HW
LayerCount: 3
Back
Fore
SplineSet
38 741 m 0
 38 760 42 770 50 770 c 0
 51 770 51 770 52 770 c 0
 70 770 65 768 126 663 c 0
 179 571 229 496 240 496 c 0
 254 496 279 458 299 410 c 2
 335 324 l 1
 387 424 l 2
 415 480 449 524 460 524 c 0
 471 524 514 595 560 677 c 0
 605 757 624 773 631 773 c 0
 632 773 632 773 632 773 c 0
 633 772 633 771 633 770 c 0
 633 733 489 496 468 496 c 0
 457 496 429 455 404 405 c 0
 385 363 375 338 375 314 c 0
 375 291 385 269 404 233 c 0
 426 185 462 138 479 121 c 0
 516 90 651 -140 651 -167 c 0
 651 -169 650 -170 649 -170 c 0
 640 -170 599 -112 557 -40 c 0
 515 33 462 113 437 138 c 0
 415 163 382 205 365 235 c 0
 352 257 343 269 335 269 c 0
 325 269 316 252 301 213 c 0
 285 169 262 135 249 135 c 0
 235 135 207 102 187 58 c 0
 126 -62 46 -170 21 -170 c 0
 18 -170 16 -168 16 -165 c 0
 16 -155 34 -128 62 -98 c 0
 101 -56 132 -9 132 10 c 0
 132 30 160 74 196 113 c 0
 276 203 309 256 309 306 c 0
 309 328 304 348 293 371 c 0
 276 410 254 441 243 441 c 0
 235 441 185 516 132 608 c 0
 79 699 74 713 60 713 c 0
 49 713 38 727 38 741 c 0
EndSplineSet
Validated: 1
EndChar

StartChar: uni001F
Encoding: 31 31 31
Width: 667
VWidth: 0
Flags: HW
LayerCount: 3
Back
Fore
SplineSet
38 741 m 0
 38 760 42 770 50 770 c 0
 51 770 51 770 52 770 c 0
 70 770 65 768 126 663 c 0
 179 571 229 496 240 496 c 0
 254 496 279 458 299 410 c 2
 335 324 l 1
 387 424 l 2
 415 480 449 524 460 524 c 0
 471 524 514 595 560 677 c 0
 605 757 624 773 631 773 c 0
 632 773 632 773 632 773 c 0
 633 772 633 771 633 770 c 0
 633 733 489 496 468 496 c 0
 457 496 429 455 404 405 c 0
 385 363 375 338 375 314 c 0
 375 291 385 269 404 233 c 0
 426 185 462 138 479 121 c 0
 516 90 651 -140 651 -167 c 0
 651 -169 650 -170 649 -170 c 0
 640 -170 599 -112 557 -40 c 0
 515 33 462 113 437 138 c 0
 415 163 382 205 365 235 c 0
 352 257 343 269 335 269 c 0
 325 269 316 252 301 213 c 0
 285 169 262 135 249 135 c 0
 235 135 207 102 187 58 c 0
 126 -62 46 -170 21 -170 c 0
 18 -170 16 -168 16 -165 c 0
 16 -155 34 -128 62 -98 c 0
 101 -56 132 -9 132 10 c 0
 132 30 160 74 196 113 c 0
 276 203 309 256 309 306 c 0
 309 328 304 348 293 371 c 0
 276 410 254 441 243 441 c 0
 235 441 185 516 132 608 c 0
 79 699 74 713 60 713 c 0
 49 713 38 727 38 741 c 0
EndSplineSet
Validated: 1
EndChar

StartChar: exclam
Encoding: 33 33 33
Width: 667
VWidth: 0
Flags: HW
LayerCount: 3
Back
Fore
SplineSet
262 620 m 0
 292 686 324 716 354 716 c 0
 402 716 444 633 444 491 c 0
 444 486 444 480 444 475 c 0
 440 325 390 156 340 139 c 0
 338 138 338 138 336 138 c 0
 290 138 224 305 224 425 c 0
 224 481 244 567 262 620 c 0
390 509 m 0
 390 531 380 550 362 550 c 0
 348 550 334 531 334 509 c 0
 334 486 348 467 362 467 c 0
 380 467 390 486 390 509 c 0
288 34 m 0
 298 59 318 78 334 78 c 0
 364 78 384 43 384 8 c 0
 384 -10 378 -29 366 -41 c 0
 356 -51 344 -55 334 -55 c 0
 308 -55 282 -27 282 8 c 0
 282 16 284 25 288 34 c 0
EndSplineSet
Validated: 1
EndChar

StartChar: quotedbl
Encoding: 34 34 34
Width: 667
VWidth: 0
Flags: HW
LayerCount: 3
Back
Fore
SplineSet
166 536 m 0
 166 622 176 634 236 634 c 0
 290 634 306 620 306 570 c 0
 306 500 258 439 204 439 c 0
 180 439 166 475 166 536 c 0
362 570 m 0
 362 620 378 634 430 634 c 0
 492 634 500 622 500 536 c 0
 500 475 486 439 464 439 c 0
 408 439 362 500 362 570 c 0
EndSplineSet
Validated: 1
EndChar

StartChar: numbersign
Encoding: 35 35 35
Width: 667
VWidth: 0
Flags: HW
LayerCount: 3
Back
Fore
SplineSet
162 480 m 0
 184 505 224 520 254 520 c 0
 276 520 292 512 292 494 c 0
 292 480 312 466 334 466 c 0
 356 466 376 480 376 494 c 0
 376 512 392 521 414 521 c 0
 440 521 476 507 504 483 c 0
 528 456 542 420 542 393 c 0
 542 371 532 355 514 355 c 0
 500 355 486 335 486 313 c 0
 486 291 500 271 514 271 c 0
 532 271 542 255 542 233 c 0
 542 206 528 170 504 144 c 0
 476 119 440 105 414 105 c 0
 392 105 376 114 376 133 c 0
 376 149 356 160 334 160 c 0
 312 160 292 149 292 133 c 0
 292 114 276 105 254 105 c 0
 228 105 190 119 164 144 c 0
 140 170 126 206 126 233 c 0
 126 255 134 271 154 271 c 0
 170 271 180 291 180 313 c 0
 180 335 170 355 154 355 c 0
 136 355 126 372 126 394 c 0
 126 420 138 455 162 480 c 0
376 313 m 0
 376 335 356 355 334 355 c 0
 312 355 292 335 292 313 c 0
 292 291 312 271 334 271 c 0
 356 271 376 291 376 313 c 0
EndSplineSet
Validated: 1
EndChar

StartChar: dollar
Encoding: 36 36 36
Width: 667
VWidth: 0
Flags: HW
LayerCount: 3
Back
Fore
SplineSet
356 691 m 0
 366 727 384 745 402 745 c 0
 418 745 430 728 430 694 c 0
 430 666 462 622 500 597 c 0
 540 572 570 527 570 497 c 0
 570 461 562 443 548 443 c 0
 534 443 514 462 492 497 c 0
 472 533 452 550 436 550 c 0
 416 550 404 519 404 461 c 0
 404 391 422 352 490 305 c 0
 546 262 566 234 566 184 c 0
 566 175 566 165 564 155 c 0
 558 86 534 55 454 11 c 0
 398 -20 344 -67 340 -92 c 0
 330 -124 310 -140 294 -140 c 0
 278 -140 264 -124 264 -92 c 0
 264 -64 228 -14 180 19 c 0
 136 55 98 99 98 122 c 0
 98 149 106 162 120 162 c 0
 138 162 164 144 194 108 c 0
 226 74 248 56 262 56 c 0
 284 56 292 93 292 172 c 0
 292 272 280 294 208 336 c 0
 152 368 124 410 124 454 c 0
 124 496 150 539 198 577 c 0
 240 611 286 636 306 636 c 0
 326 636 348 661 356 691 c 0
320 469 m 0
 320 523 310 550 290 550 c 0
 276 550 258 537 236 511 c 0
 222 494 216 482 216 469 c 0
 216 456 222 444 236 427 c 0
 258 401 276 388 290 388 c 0
 310 388 320 415 320 469 c 0
436 102 m 1
 498 163 l 1
 436 224 l 1
 376 286 l 1
 376 163 l 1
 376 41 l 1
 436 102 l 1
EndSplineSet
Validated: 1
EndChar

StartChar: percent
Encoding: 37 37 37
Width: 667
VWidth: 0
Flags: HW
LayerCount: 3
Back
Fore
SplineSet
450 659 m 0
 462 674 470 682 476 682 c 0
 484 682 488 671 490 650 c 0
 492 647 492 644 492 641 c 0
 492 539 258 57 186 11 c 0
 166 -1 150 -7 140 -7 c 0
 126 -7 120 1 120 14 c 0
 120 34 132 65 160 103 c 0
 194 150 266 284 318 403 c 0
 374 522 432 636 450 659 c 0
80 564 m 0
 102 590 126 604 150 604 c 0
 170 604 192 593 212 572 c 0
 236 549 246 518 246 487 c 0
 246 424 204 359 148 359 c 0
 140 359 130 361 122 364 c 0
 84 379 60 440 60 495 c 0
 60 522 66 547 80 564 c 0
190 495 m 0
 190 525 172 550 150 550 c 0
 126 550 108 525 108 495 c 0
 108 464 126 439 150 439 c 0
 172 439 190 464 190 495 c 0
440 289 m 0
 462 314 486 326 510 326 c 0
 532 326 554 316 574 295 c 0
 598 272 608 241 608 211 c 0
 608 147 566 84 514 84 c 0
 502 84 488 88 474 97 c 0
 438 120 418 168 418 214 c 0
 418 242 426 269 440 289 c 0
552 203 m 0
 552 247 536 272 510 272 c 0
 486 272 468 247 468 203 c 0
 468 159 486 134 510 134 c 0
 536 134 552 159 552 203 c 0
EndSplineSet
Validated: 1
EndChar

StartChar: ampersand
Encoding: 38 38 38
Width: 667
VWidth: 0
Flags: HW
LayerCount: 3
Back
Fore
SplineSet
210 581 m 0
 240 615 286 632 330 632 c 0
 378 632 424 614 454 581 c 0
 476 557 488 539 488 518 c 0
 488 487 462 452 408 389 c 2
 350 325 l 1
 422 256 l 2
 460 218 478 200 488 200 c 0
 500 200 504 215 514 242 c 0
 522 272 544 300 558 300 c 0
 574 300 582 278 582 251 c 0
 582 221 572 185 552 172 c 0
 542 166 536 160 536 153 c 0
 536 145 542 136 552 125 c 0
 572 106 582 70 582 41 c 0
 582 15 574 -5 558 -5 c 0
 544 -5 524 14 516 36 c 0
 510 56 502 65 490 65 c 0
 476 65 454 56 418 36 c 0
 368 10 322 -3 282 -3 c 0
 232 -3 188 16 146 56 c 0
 106 94 84 136 84 177 c 0
 84 217 104 255 140 289 c 0
 172 317 186 341 186 380 c 0
 186 395 184 413 180 434 c 0
 176 454 174 472 174 488 c 0
 174 526 186 554 210 581 c 0
416 531 m 0
 416 542 380 550 332 550 c 0
 276 550 246 528 246 490 c 0
 246 469 256 443 274 414 c 0
 284 400 292 393 300 393 c 0
 314 393 330 408 358 442 c 0
 388 478 414 517 416 531 c 0
358 200 m 2
 324 256 290 300 280 300 c 0
 232 300 168 230 168 180 c 0
 168 177 168 175 168 172 c 0
 178 131 208 117 300 111 c 2
 416 103 l 1
 358 200 l 2
EndSplineSet
Validated: 1
EndChar

StartChar: quotesingle
Encoding: 39 39 39
Width: 667
VWidth: 0
Flags: HW
LayerCount: 3
Back
Fore
SplineSet
296 588 m 0
 306 612 334 631 357 631 c 0
 360 631 364 631 367 630 c 0
 403 623 427 585 427 540 c 0
 427 443 349 302 269 302 c 0
 268 302 267 302 266 302 c 0
 235 302 232 309 257 319 c 0
 303 337 341 388 341 435 c 0
 341 455 313 476 303 491 c 0
 293 506 292 523 292 540 c 0
 292 547 292 554 292 561 c 0
 292 571 293 580 296 588 c 0
EndSplineSet
Validated: 1
EndChar

StartChar: parenleft
Encoding: 40 40 40
Width: 667
VWidth: 0
Flags: HW
LayerCount: 3
Back
Fore
SplineSet
362 671 m 0
 384 697 416 716 434 716 c 0
 440 716 444 713 444 707 c 0
 444 702 414 638 376 563 c 0
 336 488 306 377 306 321 c 0
 306 207 378 -9 428 -43 c 0
 438 -50 442 -58 442 -67 c 0
 442 -72 440 -77 436 -82 c 0
 432 -87 426 -90 418 -90 c 0
 350 -90 222 161 222 313 c 0
 222 416 286 582 362 671 c 0
EndSplineSet
Validated: 1
EndChar

StartChar: parenright
Encoding: 41 41 41
Width: 667
VWidth: 0
Flags: HW
LayerCount: 3
Back
Fore
SplineSet
222 705 m 0
 222 707 224 708 227 708 c 0
 236 708 255 700 278 688 c 0
 347 652 445 430 445 308 c 0
 445 199 328 -48 264 -70 c 0
 250 -76 239 -80 233 -80 c 0
 229 -80 226 -78 226 -73 c 0
 226 -58 247 -19 292 66 c 0
 334 146 361 241 361 313 c 0
 361 385 334 480 292 560 c 0
 253 633 222 696 222 705 c 0
EndSplineSet
Validated: 1
EndChar

StartChar: asterisk
Encoding: 42 42 42
Width: 667
VWidth: 0
Flags: HW
LayerCount: 3
Back
Fore
SplineSet
306 461 m 0
 306 495 319 522 333 522 c 0
 350 522 361 495 361 461 c 0
 361 431 362 418 370 418 c 0
 377 418 389 428 411 447 c 0
 439 475 472 495 481 495 c 0
 494 495 500 486 500 473 c 0
 500 449 483 411 453 378 c 0
 434 356 423 344 423 337 c 0
 423 329 437 328 467 328 c 0
 500 328 528 317 528 300 c 0
 528 286 500 272 467 272 c 0
 437 272 423 271 423 264 c 0
 423 257 434 244 453 222 c 0
 483 189 500 152 500 128 c 0
 500 115 494 106 481 106 c 0
 472 106 439 125 411 153 c 0
 389 172 377 183 370 183 c 0
 362 183 361 169 361 139 c 0
 361 106 350 78 333 78 c 0
 319 78 306 106 306 139 c 0
 306 169 305 183 297 183 c 0
 290 183 278 172 256 153 c 0
 228 125 194 106 186 106 c 0
 173 106 167 115 167 128 c 0
 167 152 184 189 214 222 c 0
 233 244 244 257 244 264 c 0
 244 271 230 272 200 272 c 0
 167 272 139 286 139 300 c 0
 139 317 167 328 200 328 c 0
 230 328 244 329 244 337 c 0
 244 344 233 356 214 378 c 0
 184 411 167 449 167 473 c 0
 167 486 173 495 186 495 c 0
 194 495 228 475 256 447 c 0
 278 428 290 418 297 418 c 0
 305 418 306 431 306 461 c 0
EndSplineSet
Validated: 1
EndChar

StartChar: plus
Encoding: 43 43 43
Width: 667
VWidth: 0
Flags: HW
LayerCount: 3
Back
Fore
SplineSet
264 481 m 0
 264 567 272 578 334 578 c 0
 394 578 404 567 404 481 c 0
 404 389 408 384 500 384 c 0
 586 384 598 375 598 314 c 0
 598 253 586 245 500 245 c 0
 408 245 404 239 404 147 c 0
 404 61 394 50 334 50 c 0
 272 50 264 61 264 147 c 0
 264 239 258 245 168 245 c 0
 80 245 70 253 70 314 c 0
 70 375 80 384 168 384 c 0
 258 384 264 389 264 481 c 0
EndSplineSet
Validated: 1
EndChar

StartChar: comma
Encoding: 44 44 44
Width: 667
VWidth: 0
Flags: HW
LayerCount: 3
Back
Fore
SplineSet
307 128 m 0
 327 147 355 161 371 161 c 0
 416 161 468 100 468 47 c 0
 468 -16 313 -144 238 -144 c 0
 212 -143 199 -141 199 -137 c 0
 199 -131 218 -121 257 -100 c 0
 298 -77 315 -60 315 -45 c 0
 315 -38 312 -32 305 -25 c 0
 286 -6 276 22 276 49 c 0
 276 78 286 107 307 128 c 0
EndSplineSet
Validated: 1
EndChar

StartChar: hyphen
Encoding: 45 45 45
Width: 667
VWidth: 0
Flags: HW
LayerCount: 3
Back
Fore
SplineSet
84 300 m 0
 84 353 104 356 334 356 c 0
 564 356 584 353 584 300 c 0
 584 247 564 245 334 245 c 0
 104 245 84 247 84 300 c 0
EndSplineSet
Validated: 1
EndChar

StartChar: period
Encoding: 46 46 46
Width: 667
VWidth: 0
Flags: HW
LayerCount: 3
Back
Fore
SplineSet
275 342 m 0
 284 367 306 378 328 378 c 0
 358 378 387 376 397 320 c 0
 398 316 398 313 398 310 c 0
 398 275 364 249 329 249 c 0
 314 249 298 255 286 267 c 0
 275 278 269 295 269 313 c 0
 269 323 271 333 275 342 c 0
EndSplineSet
Validated: 1
EndChar

StartChar: slash
Encoding: 47 47 47
Width: 667
VWidth: 0
Flags: HW
LayerCount: 3
Back
Fore
SplineSet
385 528 m 0
 425 627 477 691 505 691 c 0
 519 691 527 677 527 647 c 0
 527 572 218 -8 177 -8 c 0
 153 -8 140 1 140 22 c 0
 140 55 170 116 230 217 c 0
 280 300 349 439 385 528 c 0
EndSplineSet
Validated: 1
EndChar

StartChar: zero
Encoding: 48 48 48
Width: 667
VWidth: 0
Flags: HW
LayerCount: 3
Back
Fore
SplineSet
292 600 m 0
 328 638 364 657 397 657 c 0
 458 657 509 594 530 481 c 0
 536 451 539 423 539 397 c 0
 539 310 505 237 422 128 c 0
 357 44 302 2 255 2 c 0
 221 2 191 23 164 64 c 0
 139 101 128 151 128 206 c 0
 128 333 189 492 292 600 c 0
425 431 m 0
 418 491 403 521 381 521 c 0
 350 521 306 459 253 339 c 0
 227 280 214 231 214 194 c 0
 214 147 234 119 272 111 c 0
 273 111 275 111 277 111 c 0
 334 111 426 297 426 410 c 0
 426 417 426 424 425 431 c 0
EndSplineSet
Validated: 1
EndChar

StartChar: one
Encoding: 49 49 49
Width: 667
VWidth: 0
Flags: HW
LayerCount: 3
Back
Fore
SplineSet
275 545 m 0
 331 607 398 658 409 658 c 0
 409 658 409 658 409 658 c 0
 415 658 419 617 419 553 c 0
 419 503 417 439 412 369 c 0
 406 276 402 212 402 168 c 0
 402 89 413 71 440 60 c 0
 471 48 486 36 486 26 c 0
 486 7 430 -6 331 -6 c 0
 230 -6 181 3 181 25 c 0
 181 38 215 56 248 80 c 0
 284 108 290 169 303 280 c 0
 309 331 312 366 312 390 c 0
 312 437 288 437 242 437 c 0
 209 437 191 437 191 447 c 0
 191 459 217 486 275 545 c 0
EndSplineSet
Validated: 1
EndChar

StartChar: two
Encoding: 50 50 50
Width: 667
VWidth: 0
Flags: HW
LayerCount: 3
Back
Fore
SplineSet
253 618 m 0
 307 665 373 689 430 689 c 0
 467 689 500 679 522 657 c 0
 542 637 556 568 556 504 c 0
 556 398 541 363 425 240 c 2
 300 107 l 1
 425 118 l 2
 468 122 497 128 516 128 c 0
 555 128 556 113 556 68 c 0
 556 -4 553 -4 333 -4 c 0
 167 -4 111 4 111 32 c 0
 111 54 186 146 278 237 c 0
 411 371 444 421 444 490 c 0
 444 547 431 576 401 576 c 0
 375 576 336 554 283 510 c 0
 230 465 200 444 184 444 c 0
 170 444 167 460 167 493 c 0
 167 523 206 579 253 618 c 0
EndSplineSet
Validated: 1
EndChar

StartChar: three
Encoding: 51 51 51
Width: 667
VWidth: 0
Flags: HW
LayerCount: 3
Back
Fore
SplineSet
271 596 m 0
 309 637 352 657 393 657 c 0
 433 657 471 638 498 599 c 0
 526 559 540 519 540 482 c 0
 540 446 527 412 501 383 c 0
 481 362 472 349 472 338 c 0
 472 327 481 316 501 299 c 0
 529 276 543 237 543 196 c 0
 543 145 521 92 479 66 c 0
 415 23 360 3 311 3 c 0
 267 3 228 19 193 52 c 0
 146 96 124 132 124 152 c 0
 124 163 130 169 143 169 c 0
 157 169 179 161 209 144 c 0
 249 120 278 108 308 108 c 0
 326 108 346 113 368 121 c 0
 426 141 455 172 455 203 c 0
 455 231 430 260 379 280 c 2
 296 310 l 1
 365 371 l 2
 408 413 428 437 428 462 c 0
 428 479 419 497 404 521 c 0
 394 539 385 548 371 548 c 0
 355 548 332 537 293 513 c 0
 262 494 240 486 226 486 c 0
 215 486 209 491 209 500 c 0
 209 518 229 552 271 596 c 0
EndSplineSet
Validated: 1
EndChar

StartChar: four
Encoding: 52 52 52
Width: 667
VWidth: 0
Flags: HW
LayerCount: 3
Back
Fore
SplineSet
188 536 m 0
 206 611 238 661 260 661 c 0
 280 661 290 650 290 614 c 0
 290 593 286 563 282 522 c 0
 276 480 272 450 272 430 c 0
 272 390 286 384 318 384 c 0
 354 384 382 414 404 481 c 0
 420 534 454 578 476 578 c 0
 502 578 514 568 514 537 c 0
 514 506 502 453 476 367 c 0
 454 292 430 178 418 114 c 0
 404 34 384 -5 356 -5 c 0
 334 -5 324 5 324 35 c 0
 324 50 328 71 332 97 c 0
 344 156 356 225 366 253 c 0
 368 261 370 267 370 273 c 0
 370 295 344 300 268 300 c 0
 188 300 154 308 154 366 c 0
 154 401 166 455 188 536 c 0
EndSplineSet
Validated: 1
EndChar

StartChar: five
Encoding: 53 53 53
Width: 667
VWidth: 0
Flags: HW
LayerCount: 3
Back
Fore
SplineSet
230 494 m 0
 288 631 290 631 422 631 c 0
 512 631 560 617 572 589 c 0
 574 584 574 579 574 576 c 0
 574 553 546 547 466 547 c 0
 370 547 320 525 320 485 c 0
 320 456 348 417 404 372 c 0
 468 319 500 273 500 223 c 0
 500 179 476 133 424 78 c 0
 372 23 330 -4 288 -4 c 0
 250 -4 210 20 162 69 c 0
 116 119 92 150 92 164 c 0
 92 169 96 171 102 171 c 0
 114 171 138 162 174 144 c 0
 216 121 258 110 294 110 c 0
 342 110 380 129 404 167 c 0
 416 184 420 201 420 216 c 0
 420 268 364 311 272 319 c 0
 216 325 172 333 172 342 c 0
 172 350 198 419 230 494 c 0
EndSplineSet
Validated: 1
EndChar

StartChar: six
Encoding: 54 54 54
Width: 667
VWidth: 0
Flags: HW
LayerCount: 3
Back
Fore
SplineSet
269 605 m 0
 298 622 331 629 363 629 c 0
 448 629 528 577 528 502 c 0
 528 486 525 478 516 478 c 0
 506 478 489 488 458 508 c 0
 422 533 375 552 358 552 c 0
 294 552 222 461 222 377 c 0
 222 330 223 311 233 311 c 0
 240 311 252 321 272 338 c 0
 305 368 332 383 359 383 c 0
 390 383 422 363 464 324 c 0
 505 285 526 247 526 208 c 0
 526 161 495 115 436 69 c 0
 376 24 343 1 312 1 c 0
 283 1 256 19 211 55 c 0
 150 105 139 133 139 263 c 0
 139 424 192 558 269 605 c 0
428 241 m 0
 404 277 377 295 348 295 c 0
 322 295 295 281 269 252 c 0
 240 220 225 194 225 173 c 0
 225 147 248 130 294 119 c 0
 307 116 319 114 331 114 c 0
 392 114 440 153 440 200 c 0
 440 214 436 227 428 241 c 0
EndSplineSet
Validated: 1
EndChar

StartChar: seven
Encoding: 55 55 55
Width: 667
VWidth: 0
Flags: HW
LayerCount: 3
Back
Fore
SplineSet
122 563 m 0
 155 627 175 633 364 633 c 0
 475 633 566 627 566 619 c 0
 566 610 516 510 455 396 c 0
 397 283 339 144 327 91 c 0
 314 13 297 -6 244 -6 c 0
 202 -6 181 5 181 36 c 0
 181 74 211 139 275 246 c 0
 327 338 380 444 389 480 c 0
 393 497 396 510 396 519 c 0
 396 546 374 549 302 549 c 0
 236 549 186 533 161 502 c 0
 144 478 129 467 118 467 c 0
 108 467 101 478 101 495 c 0
 101 512 107 536 122 563 c 0
EndSplineSet
Validated: 1
EndChar

StartChar: eight
Encoding: 56 56 56
Width: 667
VWidth: 0
Flags: HW
LayerCount: 3
Back
Fore
SplineSet
250 591 m 0
 292 636 340 658 386 658 c 0
 422 658 456 644 484 616 c 0
 512 588 526 554 526 518 c 0
 526 476 506 431 468 391 c 0
 438 360 424 343 424 327 c 0
 424 312 434 299 454 277 c 0
 482 244 498 216 498 188 c 0
 498 149 468 111 408 66 c 0
 348 20 304 -3 270 -3 c 0
 236 -3 210 16 184 55 c 0
 156 95 142 136 142 176 c 0
 142 214 154 251 178 285 c 0
 198 311 216 328 216 370 c 0
 216 384 206 418 204 433 c 0
 200 451 198 467 198 481 c 0
 198 522 214 552 250 591 c 0
412 488 m 0
 412 497 414 504 414 510 c 0
 414 540 398 549 362 549 c 0
 326 549 310 539 310 510 c 0
 310 504 310 496 312 488 c 0
 318 452 340 424 362 424 c 0
 384 424 406 452 412 488 c 0
376 188 m 0
 376 238 358 260 312 266 c 0
 306 267 302 267 296 267 c 0
 266 267 242 254 234 233 c 0
 228 217 224 201 224 187 c 0
 224 142 252 109 296 109 c 0
 302 109 306 109 312 110 c 0
 358 116 376 138 376 188 c 0
EndSplineSet
Validated: 1
EndChar

StartChar: nine
Encoding: 57 57 57
Width: 667
VWidth: 0
Flags: HW
LayerCount: 3
Back
Fore
SplineSet
248 564 m 0
 292 608 344 631 390 631 c 0
 432 631 472 611 498 572 c 0
 526 532 540 497 540 450 c 0
 540 410 530 362 510 295 c 0
 458 118 312 -4 216 -4 c 0
 164 -4 126 32 126 114 c 0
 126 124 128 129 134 129 c 0
 140 129 148 123 160 111 c 0
 182 89 206 79 232 79 c 0
 268 79 304 100 332 139 c 0
 358 178 372 205 372 226 c 0
 372 254 346 270 288 286 c 0
 218 306 182 358 182 419 c 0
 182 466 204 518 248 564 c 0
426 445 m 0
 420 491 392 516 364 516 c 0
 340 516 318 500 306 467 c 0
 302 454 300 441 300 430 c 0
 300 389 324 361 360 361 c 0
 370 361 380 363 390 367 c 0
 414 374 428 400 428 430 c 0
 428 435 428 440 426 445 c 0
EndSplineSet
Validated: 1
EndChar

StartChar: colon
Encoding: 58 58 58
Width: 667
VWidth: 0
Flags: HW
LayerCount: 3
Back
Fore
SplineSet
284 377 m 0
 302 394 318 402 332 402 c 0
 356 402 378 383 402 346 c 0
 410 333 414 320 414 307 c 0
 414 265 376 228 338 228 c 0
 324 228 308 232 296 244 c 0
 268 266 254 290 254 314 c 0
 254 335 264 356 284 377 c 0
284 99 m 0
 302 116 318 124 332 124 c 0
 356 124 378 106 402 69 c 0
 410 56 414 42 414 29 c 0
 414 -13 376 -50 338 -50 c 0
 324 -50 308 -45 296 -34 c 0
 268 -12 254 12 254 36 c 0
 254 57 264 78 284 99 c 0
EndSplineSet
Validated: 1
EndChar

StartChar: semicolon
Encoding: 59 59 59
Width: 667
VWidth: 0
Flags: HW
LayerCount: 3
Back
Fore
SplineSet
303 338 m 0
 322 363 347 383 358 383 c 0
 369 383 394 363 414 338 c 0
 428 323 434 311 434 299 c 0
 434 285 425 270 405 249 c 0
 383 229 371 218 358 218 c 0
 345 218 333 229 311 249 c 0
 292 270 282 285 282 299 c 0
 282 311 289 323 303 338 c 0
300 88 m 0
 322 113 344 133 355 133 c 0
 386 133 441 69 441 33 c 0
 441 -17 311 -145 255 -145 c 0
 236 -145 226 -144 226 -139 c 0
 226 -134 240 -124 269 -104 c 0
 300 -81 314 -67 314 -48 c 0
 314 -37 308 -24 297 -6 c 0
 285 13 279 28 279 42 c 0
 279 57 286 71 300 88 c 0
EndSplineSet
Validated: 1
EndChar

StartChar: less
Encoding: 60 60 60
Width: 667
VWidth: 0
Flags: HW
LayerCount: 3
Back
Fore
SplineSet
556 313 m 0
 556 677 560 744 596 744 c 0
 632 744 638 677 638 313 c 0
 638 -51 632 -117 596 -117 c 0
 560 -117 556 -51 556 313 c 0
388 313 m 0
 388 641 392 660 444 660 c 0
 496 660 500 641 500 313 c 0
 500 -15 496 -34 444 -34 c 0
 392 -34 388 -15 388 313 c 0
250 313 m 0
 250 505 258 549 292 549 c 0
 324 549 332 505 332 313 c 0
 332 121 324 77 292 77 c 0
 258 77 250 121 250 313 c 0
110 313 m 0
 110 396 124 466 138 466 c 0
 156 466 166 396 166 313 c 0
 166 230 156 160 138 160 c 0
 124 160 110 230 110 313 c 0
28 314 m 0
 28 350 36 383 42 383 c 0
 44 383 46 381 48 377 c 0
 50 367 54 338 54 323 c 0
 54 308 50 273 46 260 c 0
 44 251 42 246 40 246 c 0
 36 246 28 285 28 314 c 0
EndSplineSet
Validated: 1
EndChar

StartChar: equal
Encoding: 61 61 61
Width: 667
VWidth: 0
Flags: HW
LayerCount: 3
Back
Fore
SplineSet
84 385 m 0
 84 437 104 440 334 440 c 0
 564 440 584 437 584 385 c 0
 584 332 564 329 334 329 c 0
 104 329 84 332 84 385 c 0
84 176 m 0
 84 210 130 218 334 218 c 0
 536 218 584 210 584 176 c 0
 584 143 536 135 334 135 c 0
 130 135 84 143 84 176 c 0
EndSplineSet
Validated: 1
EndChar

StartChar: greater
Encoding: 62 62 62
Width: 667
VWidth: 0
Flags: HW
LayerCount: 3
Back
Fore
SplineSet
29 314 m 0
 29 678 34 745 70 745 c 0
 107 745 112 678 112 314 c 0
 112 -50 107 -116 70 -116 c 0
 34 -116 29 -50 29 314 c 0
168 314 m 0
 168 642 170 661 223 661 c 0
 276 661 279 642 279 314 c 0
 279 -14 276 -33 223 -33 c 0
 170 -33 168 -14 168 314 c 0
334 314 m 0
 334 506 343 550 376 550 c 0
 409 550 418 506 418 314 c 0
 418 122 409 78 376 78 c 0
 343 78 334 122 334 314 c 0
501 314 m 0
 501 397 515 467 529 467 c 0
 545 467 557 397 557 314 c 0
 557 231 545 161 529 161 c 0
 515 161 501 231 501 314 c 0
615 314 m 0
 615 350 621 382 626 382 c 0
 628 382 631 380 632 376 c 0
 635 366 638 340 638 325 c 0
 638 310 636 275 632 262 c 0
 629 253 626 248 624 248 c 0
 620 248 615 285 615 314 c 0
EndSplineSet
Validated: 1
EndChar

StartChar: question
Encoding: 63 63 63
Width: 667
VWidth: 0
Flags: HW
LayerCount: 3
Back
Fore
SplineSet
196 616 m 0
 238 664 296 688 354 688 c 0
 402 688 450 670 488 633 c 0
 524 597 540 555 540 509 c 0
 540 446 510 376 446 299 c 0
 394 235 348 171 348 158 c 0
 348 144 330 133 306 133 c 0
 280 133 266 146 266 168 c 0
 266 204 302 265 368 333 c 0
 430 396 452 424 452 456 c 0
 452 471 446 487 438 508 c 0
 416 552 386 574 350 574 c 0
 318 574 284 556 252 521 c 0
 220 486 184 468 160 468 c 0
 140 468 126 480 126 505 c 0
 126 524 156 574 196 616 c 0
248 35 m 0
 258 60 280 71 302 71 c 0
 332 71 364 50 370 13 c 0
 372 10 372 6 372 3 c 0
 372 -31 336 -57 302 -57 c 0
 288 -57 272 -52 260 -40 c 0
 250 -29 242 -11 242 7 c 0
 242 17 244 26 248 35 c 0
EndSplineSet
Validated: 1
EndChar

StartChar: at
Encoding: 64 64 64
Width: 667
VWidth: 0
Flags: HW
LayerCount: 3
Back
Fore
SplineSet
274 720 m 0
 282 728 298 740 320 740 c 0
 330 740 338 740 348 738 c 0
 388 733 416 686 416 638 c 0
 416 612 406 587 390 566 c 0
 382 557 370 544 370 537 c 0
 370 521 398 515 444 499 c 0
 530 469 584 377 584 255 c 0
 584 212 576 191 564 191 c 0
 550 191 530 218 508 271 c 0
 488 325 458 355 438 355 c 0
 430 355 424 348 424 332 c 0
 424 322 426 310 430 294 c 0
 442 258 464 169 478 91 c 0
 492 16 476 -88 534 -107 c 0
 550 -112 558 -119 558 -126 c 0
 558 -138 534 -140 490 -140 c 0
 488 -140 484 -140 480 -140 c 0
 414 -137 404 -115 384 -9 c 0
 366 91 352 134 334 134 c 0
 328 134 324 132 320 127 c 0
 312 119 294 58 284 -9 c 0
 264 -115 254 -131 186 -140 c 0
 180 -141 172 -141 166 -141 c 0
 132 -141 112 -139 112 -127 c 0
 112 -120 118 -113 134 -107 c 0
 194 -83 180 16 190 91 c 0
 200 169 226 258 236 294 c 0
 242 310 244 322 244 332 c 0
 244 348 238 355 228 355 c 0
 210 355 178 325 158 271 c 0
 138 218 118 191 104 191 c 0
 92 191 84 212 84 255 c 0
 84 377 136 471 226 499 c 0
 270 513 298 523 298 537 c 0
 298 543 286 552 280 558 c 0
 262 577 250 620 250 658 c 0
 250 687 262 707 274 720 c 0
EndSplineSet
Validated: 1
EndChar

StartChar: A
Encoding: 65 65 65
Width: 667
VWidth: 0
Flags: HW
LayerCount: 3
Back
Fore
SplineSet
137 685 m 0
 170 705 205 715 239 715 c 0
 296 715 352 689 398 641 c 0
 498 533 520 480 573 233 c 0
 598 110 623 2 632 -12 c 0
 633 -13 633 -14 633 -14 c 0
 633 -23 598 -32 548 -32 c 0
 541 -32 510 -32 502 -32 c 0
 447 -32 426 -27 426 -20 c 0
 426 -19 428 -17 432 -16 c 0
 474 -2 476 27 476 65 c 0
 476 70 476 75 476 80 c 0
 476 158 473 160 337 160 c 0
 201 160 198 158 198 80 c 0
 198 74 198 68 198 62 c 0
 198 26 201 -2 245 -15 c 0
 248 -16 249 -18 249 -19 c 0
 249 -25 205 -31 154 -31 c 2
 34 -32 l 1
 115 219 l 2
 160 359 209 488 223 502 c 0
 240 519 254 544 254 555 c 0
 254 569 236 576 212 576 c 0
 181 576 141 564 120 544 c 0
 111 535 105 531 100 531 c 0
 90 531 87 547 87 585 c 0
 87 624 109 671 137 685 c 0
420 349 m 0
 420 394 404 452 382 483 c 0
 366 503 356 515 347 515 c 0
 334 515 323 490 298 433 c 0
 272 371 258 333 258 309 c 0
 258 277 283 271 337 271 c 0
 409 271 420 283 420 349 c 0
EndSplineSet
Validated: 1
EndChar

StartChar: B
Encoding: 66 66 66
Width: 667
VWidth: 0
Flags: HW
LayerCount: 3
Back
Fore
SplineSet
126 605 m 0
 118 619 82 640 82 648 c 0
 82 659 98 661 130 661 c 0
 154 661 186 660 228 660 c 0
 340 660 398 644 454 602 c 0
 500 566 526 509 526 462 c 0
 526 434 516 409 494 396 c 0
 490 392 486 387 486 380 c 0
 486 368 498 352 522 335 c 0
 566 305 586 267 586 227 c 0
 586 117 438 -6 248 -6 c 2
 136 -6 l 1
 136 274 l 2
 136 337 138 400 138 453 c 0
 138 529 136 587 126 605 c 0
414 508 m 0
 394 530 356 549 328 549 c 0
 290 549 276 530 276 466 c 0
 276 402 290 383 328 383 c 0
 386 383 430 423 430 466 c 0
 430 480 426 495 414 508 c 0
500 255 m 0
 478 280 422 299 370 299 c 0
 284 299 276 291 276 216 c 0
 276 144 286 133 354 133 c 0
 398 133 456 149 484 171 c 0
 508 190 520 202 520 216 c 0
 520 226 514 238 500 255 c 0
EndSplineSet
Validated: 1
EndChar

StartChar: C
Encoding: 67 67 67
Width: 667
VWidth: 0
Flags: HW
LayerCount: 3
Back
Fore
SplineSet
179 611 m 0
 242 669 275 686 346 686 c 0
 361 686 378 685 398 684 c 0
 506 678 534 661 570 600 c 0
 588 567 596 543 596 522 c 0
 596 505 591 491 581 475 c 0
 549 423 496 386 462 386 c 0
 453 386 445 389 440 395 c 0
 436 400 434 405 434 410 c 0
 434 419 442 426 454 431 c 0
 479 442 487 467 487 497 c 0
 487 533 452 551 404 551 c 0
 368 551 325 541 284 520 c 0
 198 472 181 442 181 309 c 0
 181 180 251 107 354 107 c 0
 397 107 445 118 495 145 c 0
 523 160 539 166 552 166 c 0
 565 166 571 160 571 151 c 0
 571 129 543 88 481 50 c 0
 424 15 374 -2 326 -2 c 0
 267 -2 212 24 154 78 c 0
 89 139 71 159 71 241 c 0
 71 268 73 301 76 345 c 0
 87 511 95 539 179 611 c 0
EndSplineSet
Validated: 1
EndChar

StartChar: D
Encoding: 68 68 68
Width: 667
VWidth: 0
Flags: HW
LayerCount: 3
Back
Fore
SplineSet
92 386 m 2
 92 689 l 1
 236 689 l 2
 318 689 416 681 450 672 c 0
 564 641 626 474 626 309 c 0
 626 177 586 47 502 -11 c 0
 486 -22 374 -33 254 -33 c 0
 206 -33 166 -33 136 -33 c 0
 68 -33 42 -31 42 -16 c 0
 42 -8 66 0 76 24 c 0
 88 55 92 149 92 283 c 0
 92 316 92 350 92 386 c 2
468 506 m 0
 444 534 378 550 302 550 c 2
 180 550 l 1
 180 328 l 1
 180 106 l 1
 294 106 l 2
 478 106 514 139 514 314 c 0
 514 411 500 478 468 506 c 0
EndSplineSet
Validated: 1
EndChar

StartChar: E
Encoding: 69 69 69
Width: 667
VWidth: 0
Flags: HW
LayerCount: 3
Back
Fore
SplineSet
332 687 m 0
 396 687 420 688 457 688 c 0
 502 688 526 688 541 688 c 0
 545 688 538 716 552 716 c 0
 563 716 565 717 566 705 c 0
 567 695 567 674 567 657 c 0
 567 621 568 635 568 615 c 2
 568 550 l 1
 401 550 l 1
 234 550 l 1
 234 467 l 2
 234 392 243 384 318 384 c 0
 381 384 401 372 401 328 c 0
 401 284 381 272 318 272 c 0
 243 272 234 264 234 189 c 2
 234 106 l 1
 401 106 l 2
 565 106 567 103 568 31 c 2
 568 -33 l 1
 358 -32 l 1
 151 -31 l 1
 151 300 l 2
 151 410 153 491 153 548 c 0
 153 613 150 646 137 652 c 0
 135 653 99 660 99 674 c 0
 99 676 100 678 102 680 c 0
 108 686 148 687 208 687 c 0
 244 687 286 687 332 687 c 0
EndSplineSet
Validated: 1
EndChar

StartChar: F
Encoding: 70 70 70
Width: 667
VWidth: 0
Flags: HW
LayerCount: 3
Back
Fore
SplineSet
98 328 m 1
 98 689 l 1
 334 689 l 1
 570 689 l 1
 570 611 l 1
 570 550 l 1
 402 550 l 1
 236 551 l 1
 236 470 l 2
 236 406 248 384 286 384 c 0
 316 384 362 359 390 328 c 0
 410 305 422 292 422 284 c 0
 422 272 396 272 340 272 c 2
 236 272 l 1
 236 120 l 2
 236 -25 234 -33 166 -33 c 2
 98 -33 l 1
 98 328 l 1
EndSplineSet
Validated: 1
EndChar

StartChar: G
Encoding: 71 71 71
Width: 667
VWidth: 0
Flags: HW
LayerCount: 3
Back
Fore
SplineSet
196 679 m 0
 246 705 299 716 350 716 c 0
 465 716 570 657 599 557 c 0
 603 542 605 531 605 522 c 0
 605 500 593 493 563 493 c 0
 532 493 502 512 491 534 c 0
 480 562 448 576 407 576 c 0
 353 576 284 551 238 507 c 0
 185 451 168 407 168 312 c 0
 168 204 180 184 252 145 c 0
 302 118 372 105 427 105 c 0
 469 105 503 113 513 129 c 0
 519 138 522 149 522 161 c 0
 522 198 503 242 469 242 c 0
 458 242 448 244 440 244 c 0
 432 244 419 230 419 222 c 0
 419 208 399 194 377 194 c 0
 349 194 335 210 335 231 c 0
 335 255 354 286 388 305 c 0
 423 323 456 332 484 332 c 0
 558 332 607 285 607 196 c 0
 607 180 605 163 602 145 c 0
 577 13 529 -32 402 -32 c 0
 385 -32 366 -32 346 -30 c 0
 193 -16 130 26 85 145 c 0
 67 192 60 248 60 308 c 0
 60 465 115 638 196 679 c 0
EndSplineSet
Validated: 1
EndChar

StartChar: H
Encoding: 72 72 72
Width: 667
VWidth: 0
Flags: HW
LayerCount: 3
Back
Fore
SplineSet
98 328 m 2
 98 436 97 512 97 565 c 0
 97 685 103 687 148 689 c 0
 153 689 157 689 161 689 c 0
 204 689 209 676 209 611 c 0
 209 591 209 567 209 536 c 2
 209 384 l 1
 320 384 l 1
 431 384 l 1
 431 536 l 2
 431 684 434 689 509 689 c 2
 570 689 l 1
 570 328 l 1
 570 -33 l 1
 501 -33 l 1
 432 -33 l 1
 432 134 l 1
 432 300 l 1
 323 300 l 1
 209 300 l 1
 209 150 l 2
 209 119 208 92 208 70 c 0
 208 26 212 1 233 -6 c 0
 236 -7 264 -11 264 -18 c 0
 264 -19 263 -19 263 -20 c 0
 259 -26 201 -29 181 -30 c 2
 98 -33 l 1
 98 328 l 2
EndSplineSet
Validated: 1
EndChar

StartChar: I
Encoding: 73 73 73
Width: 667
VWidth: 0
Flags: HW
LayerCount: 3
Back
Fore
SplineSet
180 634 m 0
 180 684 200 689 334 689 c 0
 468 689 486 684 486 634 c 0
 486 597 468 578 430 578 c 0
 380 578 376 559 376 342 c 0
 376 125 380 106 430 106 c 0
 468 106 486 86 486 50 c 0
 486 0 468 -5 334 -5 c 0
 200 -5 180 0 180 50 c 0
 180 86 200 106 236 106 c 0
 286 106 292 125 292 342 c 0
 292 559 286 578 236 578 c 0
 200 578 180 597 180 634 c 0
EndSplineSet
Validated: 1
EndChar

StartChar: J
Encoding: 74 74 74
Width: 667
VWidth: 0
Flags: HW
LayerCount: 3
Back
Fore
SplineSet
434 430 m 2
 428 716 l 1
 508 716 l 1
 586 716 l 1
 580 405 l 2
 574 16 542 -34 358 -34 c 0
 200 -34 176 -17 120 113 c 0
 94 173 82 211 82 235 c 0
 82 264 102 271 148 271 c 0
 200 271 212 263 212 222 c 0
 212 215 212 206 212 196 c 0
 210 187 210 178 210 171 c 0
 210 129 226 113 278 94 c 0
 302 85 320 81 338 81 c 0
 360 81 378 89 398 105 c 0
 426 129 438 161 438 267 c 0
 438 309 434 362 434 430 c 2
EndSplineSet
Validated: 1
EndChar

StartChar: K
Encoding: 75 75 75
Width: 667
VWidth: 0
Flags: HW
LayerCount: 3
Back
Fore
SplineSet
423 701 m 0
 438 716 456 722 475 722 c 0
 532 722 598 664 598 596 c 0
 596 567 596 553 590 553 c 0
 585 553 575 566 556 590 c 0
 538 613 524 626 509 626 c 0
 483 626 456 584 406 482 c 0
 375 418 359 365 359 318 c 0
 359 260 383 211 431 162 c 0
 465 128 489 110 510 110 c 0
 535 110 551 138 584 185 c 2
 623 241 l 1
 612 137 l 2
 596 -18 581 -32 501 -32 c 0
 451 -32 409 4 343 107 c 0
 293 185 234 246 212 246 c 0
 193 246 185 234 185 199 c 0
 185 178 188 148 193 107 c 2
 212 -32 l 1
 126 -32 l 2
 76 -32 49 -31 49 -15 c 0
 49 -7 61 5 70 21 c 0
 90 58 99 181 99 302 c 0
 99 441 87 578 65 587 c 0
 51 592 44 599 44 609 c 0
 44 640 117 690 184 690 c 0
 245 690 265 676 265 637 c 0
 265 610 245 579 223 568 c 0
 198 560 181 518 181 457 c 0
 181 400 192 371 211 371 c 0
 238 371 282 428 334 537 c 0
 376 618 415 693 423 701 c 0
EndSplineSet
Validated: 1
EndChar

StartChar: L
Encoding: 76 76 76
Width: 667
VWidth: 0
Flags: HW
LayerCount: 3
Back
Fore
SplineSet
120 656 m 0
 102 656 97 666 97 673 c 0
 97 677 99 681 100 682 c 0
 107 688 117 690 135 690 c 0
 148 690 165 689 189 689 c 2
 292 689 l 1
 292 397 l 1
 292 106 l 1
 403 106 l 2
 425 106 444 105 460 105 c 0
 488 105 506 107 514 116 c 0
 525 128 508 160 542 161 c 0
 542 161 543 161 543 161 c 0
 568 161 570 138 570 105 c 0
 570 96 570 87 570 78 c 2
 570 -5 l 1
 361 -5 l 1
 153 -5 l 1
 153 309 l 2
 153 378 154 440 154 491 c 0
 154 594 149 656 120 656 c 0
EndSplineSet
Validated: 1
EndChar

StartChar: M
Encoding: 77 77 77
Width: 667
VWidth: 0
Flags: HW
LayerCount: 3
Back
Fore
SplineSet
82 407 m 0
 102 562 126 690 138 690 c 0
 166 690 330 360 332 301 c 0
 332 298 334 296 334 296 c 0
 340 296 366 348 396 426 c 0
 494 679 500 690 538 690 c 0
 562 690 580 621 590 462 c 0
 602 335 616 173 624 98 c 2
 640 -32 l 1
 554 -32 l 2
 502 -32 482 -30 482 -9 c 0
 482 1 488 17 496 40 c 0
 510 75 522 170 522 264 c 0
 522 274 522 285 522 296 c 0
 520 399 518 443 512 443 c 0
 508 443 500 420 490 379 c 0
 474 321 454 273 440 273 c 0
 430 273 412 237 402 190 c 0
 392 137 380 111 364 111 c 0
 346 111 322 151 290 229 c 0
 266 296 224 360 200 368 c 0
 194 370 188 372 184 372 c 0
 170 372 164 356 164 310 c 0
 164 284 166 249 168 201 c 0
 176 85 194 10 222 -7 c 0
 228 -11 232 -15 232 -18 c 0
 232 -28 202 -32 138 -32 c 0
 50 -32 26 -30 26 3 c 0
 26 14 30 28 32 46 c 0
 40 87 62 248 82 407 c 0
EndSplineSet
Validated: 1
EndChar

StartChar: N
Encoding: 78 78 78
Width: 667
VWidth: 0
Flags: HW
LayerCount: 3
Back
Fore
SplineSet
524 650 m 0
 549 670 577 689 585 689 c 0
 588 689 590 672 590 643 c 0
 590 601 587 535 580 461 c 0
 571 334 560 178 560 114 c 0
 557 6 552 -5 488 -5 c 0
 443 -5 418 11 418 39 c 0
 418 86 266 375 207 439 c 0
 200 446 193 451 189 451 c 0
 172 451 168 399 168 242 c 0
 168 28 143 -61 88 -61 c 0
 81 -61 77 7 77 108 c 0
 77 160 78 221 80 286 c 0
 85 534 99 634 121 634 c 0
 157 631 280 481 366 336 c 0
 398 278 422 249 439 249 c 0
 463 249 474 307 474 428 c 0
 474 572 485 622 524 650 c 0
EndSplineSet
Validated: 1
EndChar

StartChar: O
Encoding: 79 79 79
Width: 667
VWidth: 0
Flags: HW
LayerCount: 3
Back
Fore
SplineSet
142 552 m 0
 200 607 258 634 316 634 c 0
 380 634 444 602 512 538 c 0
 598 458 612 427 612 321 c 0
 612 188 542 103 486 60 c 0
 469 46 448 42 416 21 c 0
 396 8 380 -6 334 -6 c 0
 290 -6 260 11 232 32 c 0
 219 42 204 44 164 72 c 0
 108 113 56 188 56 333 c 0
 56 452 66 483 142 552 c 0
494 460 m 0
 474 481 430 492 384 492 c 0
 330 492 274 478 242 452 c 0
 212 433 184 363 176 296 c 0
 172 277 172 260 172 244 c 0
 172 148 224 105 334 105 c 0
 458 105 528 177 528 310 c 0
 528 374 514 441 494 460 c 0
278 355 m 0
 278 371 292 383 306 383 c 0
 322 383 334 371 334 355 c 0
 334 341 322 327 306 327 c 0
 292 327 278 341 278 355 c 0
EndSplineSet
Validated: 1
EndChar

StartChar: P
Encoding: 80 80 80
Width: 667
VWidth: 0
Flags: HW
LayerCount: 3
Back
Fore
SplineSet
118 652 m 0
 110 660 86 660 86 675 c 0
 86 676 86 677 86 678 c 0
 88 687 108 689 148 689 c 0
 174 689 212 688 258 688 c 0
 428 688 456 680 514 616 c 0
 558 568 580 514 580 462 c 0
 580 421 566 381 536 349 c 0
 502 313 452 299 342 299 c 2
 194 299 l 1
 194 133 l 2
 194 -17 188 -34 138 -34 c 0
 110 -34 96 -31 96 -18 c 0
 96 -10 102 2 110 19 c 0
 130 56 138 191 138 329 c 0
 138 386 140 440 140 487 c 0
 140 567 136 628 118 652 c 0
486 538 m 0
 458 560 380 577 314 577 c 0
 196 577 194 577 194 480 c 0
 194 383 194 383 314 383 c 0
 402 383 450 399 488 441 c 0
 514 468 516 484 516 496 c 0
 516 509 512 517 486 538 c 0
EndSplineSet
Validated: 1
EndChar

StartChar: Q
Encoding: 81 81 81
Width: 667
VWidth: 0
Flags: HW
LayerCount: 3
Back
Fore
SplineSet
104 678 m 0
 137 703 196 716 257 716 c 0
 324 716 394 701 437 672 c 0
 528 613 588 441 588 288 c 0
 588 226 579 167 557 120 c 0
 546 97 541 80 541 64 c 0
 541 38 556 17 590 -19 c 0
 618 -50 632 -70 632 -80 c 0
 632 -84 629 -86 624 -86 c 0
 610 -86 580 -73 535 -47 c 0
 496 -25 404 -8 332 -5 c 0
 221 -5 182 9 112 78 c 0
 51 141 35 159 35 258 c 0
 35 294 37 340 40 403 c 0
 51 595 62 647 104 678 c 0
446 467 m 0
 383 526 321 554 268 554 c 0
 181 554 117 479 101 339 c 0
 96 302 94 274 94 251 c 0
 94 197 108 171 143 136 c 0
 179 100 237 78 301 78 c 0
 357 78 380 79 380 90 c 0
 380 97 372 107 357 122 c 0
 332 145 312 189 312 220 c 0
 312 255 329 272 349 272 c 0
 371 272 395 251 401 211 c 0
 407 170 429 147 465 147 c 0
 510 147 523 170 529 267 c 0
 530 285 531 300 531 314 c 0
 531 380 512 407 446 467 c 0
EndSplineSet
Validated: 1
EndChar

StartChar: R
Encoding: 82 82 82
Width: 667
VWidth: 0
Flags: HW
LayerCount: 3
Back
Fore
SplineSet
68 356 m 1
 68 717 l 1
 210 716 l 2
 390 715 478 660 504 530 c 0
 508 510 510 494 510 480 c 0
 510 441 494 416 452 377 c 2
 378 310 l 1
 438 221 l 2
 472 166 496 143 526 143 c 0
 532 143 538 144 546 146 c 0
 554 149 562 151 570 151 c 0
 590 151 600 138 600 113 c 0
 600 95 594 69 582 38 c 0
 570 10 550 -3 526 -3 c 0
 466 -3 378 76 320 196 c 0
 290 262 240 298 204 298 c 0
 174 298 154 276 154 230 c 0
 154 191 174 152 196 144 c 0
 218 133 238 96 238 60 c 0
 238 7 224 -6 156 -6 c 0
 154 -6 152 -6 148 -6 c 2
 68 -5 l 1
 68 356 l 1
374 538 m 0
 356 560 298 577 248 577 c 0
 160 577 154 571 154 480 c 0
 154 388 160 383 246 383 c 0
 328 383 392 435 392 489 c 0
 392 506 386 522 374 538 c 0
EndSplineSet
Validated: 1
EndChar

StartChar: S
Encoding: 83 83 83
Width: 667
VWidth: 0
Flags: HW
LayerCount: 3
Back
Fore
SplineSet
268 655 m 0
 310 679 352 691 392 691 c 0
 468 691 536 650 576 574 c 0
 590 545 598 524 598 511 c 0
 598 501 592 496 582 496 c 0
 580 496 578 496 576 496 c 0
 540 496 532 511 486 535 c 0
 446 556 428 572 364 572 c 0
 358 572 352 572 346 572 c 0
 264 569 204 513 204 473 c 0
 204 473 204 472 204 472 c 0
 206 416 266 423 344 396 c 0
 422 369 512 330 540 305 c 0
 574 276 588 239 588 201 c 0
 588 102 486 -6 350 -6 c 0
 298 -6 276 4 266 14 c 0
 248 34 234 38 218 49 c 0
 198 61 150 80 114 119 c 0
 84 151 70 169 70 178 c 0
 70 186 80 185 98 188 c 0
 104 189 110 189 116 189 c 0
 154 189 178 166 212 144 c 0
 246 122 302 109 358 109 c 0
 366 109 374 109 384 110 c 0
 476 119 490 130 498 196 c 0
 500 212 500 227 500 239 c 0
 500 258 462 278 430 280 c 0
 364 284 180 333 150 358 c 0
 126 378 116 406 116 438 c 0
 116 510 172 601 268 655 c 0
EndSplineSet
Validated: 1
EndChar

StartChar: T
Encoding: 84 84 84
Width: 667
VWidth: 0
Flags: HW
LayerCount: 3
Back
Fore
SplineSet
56 628 m 2
 56 690 l 1
 334 690 l 1
 612 690 l 1
 612 628 l 2
 612 559 604 550 514 550 c 2
 416 550 l 1
 416 300 l 2
 416 153 416 51 432 51 c 0
 446 51 474 41 474 25 c 0
 474 20 472 15 468 10 c 0
 454 -4 426 -5 374 -5 c 0
 362 -5 348 -5 334 -5 c 0
 258 -5 214 -5 202 11 c 0
 196 17 194 22 194 26 c 0
 194 43 224 51 236 51 c 0
 250 51 250 118 250 221 c 0
 250 246 250 272 250 300 c 2
 250 550 l 1
 154 550 l 2
 64 550 56 559 56 628 c 2
EndSplineSet
Validated: 1
EndChar

StartChar: U
Encoding: 85 85 85
Width: 667
VWidth: 0
Flags: HW
LayerCount: 3
Back
Fore
SplineSet
84 414 m 2
 84 689 l 1
 176 686 l 2
 212 685 244 685 246 679 c 0
 246 678 246 678 246 677 c 0
 246 659 212 661 208 659 c 0
 196 652 194 628 194 578 c 0
 194 546 194 503 194 447 c 0
 194 431 194 413 194 395 c 0
 194 364 194 336 194 311 c 0
 194 138 206 132 264 117 c 0
 284 113 308 111 334 111 c 0
 358 111 384 113 404 117 c 0
 470 134 472 139 472 395 c 0
 472 472 474 530 474 571 c 0
 474 629 472 656 458 661 c 0
 458 661 456 661 452 661 c 0
 452 661 450 661 448 661 c 0
 436 661 418 662 418 679 c 0
 418 684 456 685 494 686 c 2
 584 689 l 1
 584 414 l 2
 584 181 576 131 526 67 c 0
 478 6 448 -5 334 -5 c 0
 220 -5 190 6 142 67 c 0
 92 131 84 181 84 414 c 2
EndSplineSet
Validated: 1
EndChar

StartChar: V
Encoding: 86 86 86
Width: 667
VWidth: 0
Flags: HW
LayerCount: 3
Back
Fore
SplineSet
56 657 m 0
 56 676 94 690 166 690 c 0
 228 690 278 679 278 662 c 0
 278 648 262 635 240 635 c 0
 196 635 174 602 174 544 c 0
 174 489 194 410 234 315 c 0
 254 271 280 204 294 168 c 0
 302 149 308 138 316 138 c 0
 332 138 356 185 412 312 c 0
 470 449 498 538 498 587 c 0
 498 620 484 635 458 635 c 0
 436 635 416 648 416 662 c 0
 416 679 462 690 514 690 c 0
 592 690 612 679 612 637 c 0
 612 496 376 -4 306 -4 c 0
 264 -4 214 79 162 232 c 0
 126 346 58 612 56 657 c 0
EndSplineSet
Validated: 1
EndChar

StartChar: W
Encoding: 87 87 87
Width: 667
VWidth: 0
Flags: HW
LayerCount: 3
Back
Fore
SplineSet
80 349 m 0
 78 416 76 468 76 509 c 0
 76 629 86 661 120 661 c 0
 162 661 168 616 168 391 c 2
 168 135 l 1
 248 230 l 1
 332 327 l 1
 416 230 l 1
 498 132 l 1
 502 391 l 2
 504 616 506 661 550 661 c 0
 580 661 592 634 592 541 c 0
 592 497 588 435 584 349 c 0
 574 101 564 2 524 2 c 0
 502 2 472 30 430 80 c 2
 334 188 l 1
 240 82 l 2
 198 34 166 6 144 6 c 0
 100 6 86 106 80 349 c 0
EndSplineSet
Validated: 1
EndChar

StartChar: X
Encoding: 88 88 88
Width: 667
VWidth: 0
Flags: HW
LayerCount: 3
Back
Fore
SplineSet
56 718 m 0
 56 738 65 747 79 747 c 0
 114 747 181 694 231 618 c 0
 275 548 319 493 333 493 c 0
 344 493 392 548 436 618 c 0
 481 687 536 743 564 743 c 0
 591 743 606 739 606 725 c 0
 606 703 570 654 489 551 c 2
 369 398 l 1
 492 226 l 2
 556 132 611 40 611 23 c 0
 611 2 594 -8 573 -8 c 0
 543 -8 504 11 486 43 c 0
 469 70 433 140 406 195 c 0
 375 251 344 298 336 298 c 0
 306 295 167 82 167 37 c 0
 167 12 144 -7 111 -7 c 0
 76 -7 59 3 59 25 c 0
 59 46 75 80 108 126 c 0
 136 168 167 229 178 262 c 0
 189 293 214 337 236 354 c 0
 250 366 257 376 257 389 c 0
 257 408 242 432 208 476 c 0
 169 526 139 582 139 595 c 0
 139 612 119 640 97 659 c 0
 75 679 56 704 56 718 c 0
EndSplineSet
Validated: 1
EndChar

StartChar: Y
Encoding: 89 89 89
Width: 667
VWidth: 0
Flags: HW
LayerCount: 3
Back
Fore
SplineSet
55.5 730 m 0
 55.5 738 78.5 744 108.5 744 c 0
 147.5 744 163.5 715 178.5 646 c 0
 189.5 594 198.5 567 219.5 549 c 0
 230.5 540 258.5 513 278.5 466 c 0
 297.5 421 319.5 383 330.5 383 c 0
 355.5 383 500.5 655 500.5 702 c 0
 500.5 724 525.5 744 555.5 744 c 0
 586.5 744 611.5 738 611.5 730 c 0
 611.5 702 466.5 427 414.5 349 c 0
 383.5 308 361.5 230 361.5 163 c 0
 361.5 69 369.5 49 416.5 49 c 0
 447.5 49 472.5 38 472.5 21 c 0
 472.5 -24 399.5 -30 327.5 -30 c 0
 305.5 -30 284.5 -27 264.5 -23 c 0
 242.5 -19 196.5 -13 196.5 22 c 0
 196.5 23 196.5 23 196.5 24 c 0
 197.5 38 214.5 49 250.5 49 c 0
 291.5 49 310.5 85 310.5 140 c 0
 310.5 212 277.5 317 214.5 416 c 0
 130.5 549 55.5 699 55.5 730 c 0
EndSplineSet
Validated: 1
EndChar

StartChar: Z
Encoding: 90 90 90
Width: 667
VWidth: 0
Flags: HW
LayerCount: 3
Back
Fore
SplineSet
91.5 656 m 0
 103.5 668 121.5 684 128.5 684 c 0
 135.5 684 132.5 670 135.5 661 c 0
 141.5 645 238.5 634 366.5 634 c 0
 496.5 634 585.5 622 585.5 606 c 0
 585.5 589 530.5 509 460.5 425 c 0
 391.5 339 316.5 234 293.5 189 c 2
 249.5 106 l 1
 399.5 106 l 2
 480.5 106 547.5 106 580.5 139 c 0
 593.5 152 602.5 159 606.5 159 c 0
 609.5 159 611.5 156 611.5 152 c 0
 611.5 139 600.5 110 580.5 64 c 0
 549.5 -3 538.5 -5 302.5 -5 c 0
 74.5 -5 57.5 -3 57.5 50 c 0
 57.5 81 77.5 114 99.5 122 c 0
 138.5 139 391.5 495 391.5 534 c 0
 391.5 542 316.5 550 224.5 550 c 0
 109.5 550 55.5 564 55.5 597 c 0
 55.5 612 67.5 632 91.5 656 c 0
EndSplineSet
Validated: 1
EndChar

StartChar: bracketleft
Encoding: 91 91 91
Width: 667
VWidth: 0
Flags: HW
LayerCount: 3
Back
Fore
SplineSet
180.5 272 m 1
 180.5 689 l 1
 333.5 689 l 2
 477.5 689 486.5 686 486.5 620 c 0
 486.5 559 475.5 550 389.5 550 c 2
 291.5 550 l 1
 291.5 259 l 1
 291.5 -33 l 1
 389.5 -33 l 2
 466.5 -33 486.5 -44 486.5 -89 c 0
 486.5 -139 466.5 -144 333.5 -144 c 2
 180.5 -144 l 1
 180.5 272 l 1
EndSplineSet
Validated: 1
EndChar

StartChar: backslash
Encoding: 92 92 92
Width: 667
VWidth: 0
Flags: HW
LayerCount: 3
Back
Fore
SplineSet
140.5 634 m 0
 140.5 670 154.5 687 172.5 687 c 0
 193.5 687 220.5 666 240.5 625 c 0
 259.5 592 332.5 459 401.5 328 c 0
 486.5 171 526.5 79 526.5 33 c 0
 526.5 6 512.5 -5 487.5 -5 c 0
 465.5 -5 445.5 20 445.5 50 c 0
 445.5 81 434.5 106 418.5 106 c 0
 404.5 106 382.5 139 373.5 184 c 0
 351.5 270 282.5 406 232.5 461 c 0
 212.5 481 195.5 517 195.5 539 c 0
 195.5 561 184.5 578 168.5 578 c 0
 154.5 578 140.5 603 140.5 634 c 0
EndSplineSet
Validated: 1
EndChar

StartChar: bracketright
Encoding: 93 93 93
Width: 667
VWidth: 0
Flags: HW
LayerCount: 3
Back
Fore
SplineSet
180.5 621 m 0
 180.5 687 189.5 690 333.5 690 c 2
 486.5 690 l 1
 486.5 273 l 1
 486.5 -143 l 1
 333.5 -143 l 2
 200.5 -143 180.5 -138 180.5 -88 c 0
 180.5 -43 200.5 -32 278.5 -32 c 2
 375.5 -32 l 1
 375.5 260 l 1
 375.5 551 l 1
 278.5 551 l 2
 192.5 551 180.5 560 180.5 621 c 0
208.5 385 m 0
 208.5 421 228.5 440 264.5 440 c 0
 300.5 440 319.5 421 319.5 385 c 0
 319.5 348 300.5 329 264.5 329 c 0
 228.5 329 208.5 348 208.5 385 c 0
EndSplineSet
Validated: 1
EndChar

StartChar: asciicircum
Encoding: 94 94 94
Width: 667
VWidth: 0
Flags: HW
LayerCount: 3
Back
Fore
SplineSet
191.5 484 m 0
 261.5 595 325.5 687 333.5 687 c 0
 341.5 687 405.5 595 475.5 484 c 0
 549.5 371 579.5 321 579.5 298 c 0
 579.5 283 567.5 279 547.5 276 c 0
 543.5 275 539.5 275 534.5 275 c 0
 501.5 275 449.5 295 414.5 323 c 2
 333.5 388 l 1
 253.5 323 l 2
 218.5 294 165.5 275 132.5 275 c 0
 127.5 275 123.5 275 119.5 276 c 0
 99.5 279 87.5 283 87.5 298 c 0
 87.5 321 117.5 371 191.5 484 c 0
EndSplineSet
Validated: 1
EndChar

StartChar: underscore
Encoding: 95 95 95
Width: 667
VWidth: 0
Flags: HW
LayerCount: 3
Back
Fore
SplineSet
0 -88 m 0
 0 -35 19 -32 333 -32 c 0
 647 -32 667 -35 667 -88 c 0
 667 -140 647 -143 333 -143 c 0
 19 -143 0 -140 0 -88 c 0
EndSplineSet
Validated: 1
EndChar

StartChar: grave
Encoding: 96 96 96
Width: 667
VWidth: 0
Flags: HW
LayerCount: 3
Back
Fore
SplineSet
245.5 616 m 0
 252.5 635 273.5 662 303.5 662 c 0
 304.5 662 305.5 662 306.5 662 c 0
 310.5 662 313.432617188 661.766601562 316.5 661 c 0
 344.5 654 384.5 635 384.5 588 c 0
 384.5 571 381.115234375 551.153320312 372.5 529 c 0
 365.5 511 344.5 493 344.5 478 c 0
 344.5 427 386.434570312 391.899414062 406.5 379 c 0
 420.5 370 427.5 364 427.5 361 c 0
 427.5 358 423.5 357 413.5 357 c 0
 406.5 357 395.5 357 381.5 359 c 0
 319.5 367 239.5 493 239.5 578 c 0
 239.5 592 241.5 605 245.5 616 c 0
EndSplineSet
Validated: 1
EndChar

StartChar: a
Encoding: 97 97 97
Width: 667
VWidth: 0
Flags: HW
LayerCount: 3
Back
Fore
SplineSet
434 396 m 0
 459 419 481 438 487 438 c 0
 488 438 488 433 488 423 c 0
 488 396 485 332 479 258 c 0
 475 206 473 169 473 143 c 0
 473 103 478 89 493 89 c 0
 498 89 504 91 512 94 c 0
 522 98 530 100 537 100 c 0
 549 100 555 93 555 84 c 0
 555 68 541 44 512 19 c 0
 495 5 481 -2 465 -2 c 0
 451 -2 436 4 417 16 c 0
 399 27 383 32 370 32 c 0
 361 32 353 29 348 21 c 0
 336 4 311 -5 281 -5 c 0
 241 -5 194 11 162 41 c 0
 129 71 112 124 112 179 c 0
 112 240 132 304 173 346 c 0
 211 387 268 411 313 411 c 0
 341 411 364 402 376 383 c 0
 380 376 386 373 394 373 c 0
 405 373 419 381 434 396 c 0
356 205 m 0
 349 267 314 297 278 297 c 0
 237 297 195 259 195 188 c 0
 195 133 212 102 254 91 c 0
 269 86 282 84 293 84 c 0
 336 84 358 115 358 173 c 0
 358 183 357 194 356 205 c 0
EndSplineSet
Validated: 1
EndChar

StartChar: b
Encoding: 98 98 98
Width: 667
VWidth: 0
Flags: HW
LayerCount: 3
Back
Fore
SplineSet
175.349609375 657 m 0
 191.349609375 690 225.349609375 718 247.349609375 718 c 0
 280.349609375 718 289.349609375 679 289.349609375 543 c 2
 289.349609375 368 l 1
 383.349609375 379 l 2
 391.349609375 380 399.349609375 381 407.349609375 381 c 0
 502.349609375 381 566.349609375 302 566.349609375 185 c 0
 566.349609375 54 502.349609375 15 225.349609375 -15 c 0
 181.349609375 -20 152.349609375 -23 134.349609375 -23 c 0
 119.349609375 -23 112.349609375 -21 112.349609375 -15 c 0
 112.349609375 -10 120.349609375 -1 133.349609375 12 c 0
 166.349609375 46 177.349609375 115 177.349609375 304 c 0
 177.349609375 521 172.349609375 551 130.349609375 551 c 0
 100.349609375 551 91.349609375 560 111.349609375 573 c 0
 127.349609375 585 155.349609375 621 175.349609375 657 c 0
439.349609375 285 m 0
 414.349609375 294 395.349609375 299 380.349609375 299 c 0
 350.349609375 299 334.349609375 278 314.349609375 226 c 0
 306.349609375 203 301.349609375 184 301.349609375 168 c 0
 301.349609375 131 323.349609375 111 363.349609375 111 c 0
 377.349609375 111 393.349609375 113 411.349609375 118 c 0
 459.349609375 129 486.349609375 173 486.349609375 214 c 0
 486.349609375 245 471.349609375 273 439.349609375 285 c 0
EndSplineSet
Validated: 1
EndChar

StartChar: c
Encoding: 99 99 99
Width: 667
VWidth: 0
Flags: HW
LayerCount: 3
Back
Fore
SplineSet
210 399 m 0
 253 444 301 467 350 467 c 0
 389 467 429 452 468 424 c 0
 507 397 527 376 527 363 c 0
 527 351 511 345 480 345 c 0
 465 345 446 346 424 349 c 0
 408 351 393 352 380 352 c 0
 297 352 255 312 255 232 c 0
 255 222 256 211 257 199 c 0
 265 134 286 112 352 104 c 0
 356 104 370 102 386 102 c 0
 408 102 433 105 448 116 c 0
 469 132 485 138 497 138 c 0
 514 138 524 126 529 111 c 0
 530 109 530 107 530 105 c 0
 530 65 402 -3 330 -3 c 0
 211 -3 137 107 137 222 c 0
 137 285 160 350 210 399 c 0
EndSplineSet
Validated: 1
EndChar

StartChar: d
Encoding: 100 100 100
Width: 667
VWidth: 0
Flags: HW
LayerCount: 3
Back
Fore
SplineSet
409 563 m 2
 409 690 409 726 433 726 c 0
 442 726 455 721 473 713 c 0
 516 694 529 682 529 566 c 0
 529 526 527 474 525 405 c 0
 524 363 523 325 523 292 c 0
 523 179 530 116 548 105 c 0
 558 98 562 84 562 68 c 0
 562 35 544 -6 520 -6 c 0
 509 -6 484 10 467 33 c 0
 454 49 443 57 428 57 c 0
 411 57 389 47 353 27 c 0
 314 5 291 -6 269 -6 c 0
 248 -6 228 3 195 21 c 0
 135 54 105 115 105 182 c 0
 105 234 123 289 161 338 c 0
 202 389 224 406 269 406 c 0
 283 406 298 405 317 402 c 2
 409 385 l 1
 409 563 l 2
375 294 m 0
 354 315 329 325 305 325 c 0
 246 325 191 270 191 193 c 0
 191 187 191 181 192 174 c 0
 199 113 229 80 270 80 c 0
 296 80 326 93 356 121 c 0
 390 152 408 187 408 221 c 0
 408 247 397 272 375 294 c 0
EndSplineSet
Validated: 1
EndChar

StartChar: e
Encoding: 101 101 101
Width: 667
VWidth: 0
Flags: HW
LayerCount: 3
Back
Fore
SplineSet
255 464 m 0
 278 478 326 488 372 488 c 0
 383 488 393 487 403 486 c 0
 494 481 500 475 500 384 c 0
 500 292 492 284 355 228 c 0
 269 194 234 180 234 167 c 0
 234 157 249 148 275 134 c 0
 303 118 354 108 402 108 c 0
 416 108 429 109 442 111 c 0
 461 113 478 114 493 114 c 0
 522 114 542 110 542 103 c 0
 542 61 417 -5 339 -5 c 0
 247 -5 125 106 125 189 c 0
 125 278 197 431 255 464 c 0
425 350 m 0
 426 354 427 357 427 360 c 0
 427 376 410 383 388 383 c 0
 356 383 313 368 289 339 c 0
 278 325 271 315 271 309 c 0
 271 304 276 302 288 302 c 0
 298 302 313 303 333 306 c 0
 378 309 417 331 425 350 c 0
EndSplineSet
Validated: 1
EndChar

StartChar: f
Encoding: 102 102 102
Width: 667
VWidth: 0
Flags: HW
LayerCount: 3
Back
Fore
SplineSet
311 670 m 0
 324 683 351 690 381 690 c 0
 430 690 486 673 497 645 c 0
 508 617 513 597 513 583 c 0
 513 564 503 556 482 556 c 0
 472 556 459 558 444 561 c 0
 428 565 415 568 406 568 c 0
 377 568 375 542 375 453 c 0
 375 339 380 328 442 328 c 0
 478 328 517 345 522 364 c 0
 527 376 531 381 533 381 c 0
 536 381 537 375 537 366 c 0
 537 341 527 290 514 245 c 0
 506 217 498 191 494 191 c 0
 490 191 490 211 489 225 c 0
 486 253 464 272 428 272 c 0
 388 272 375 266 375 216 c 0
 375 196 377 170 380 134 c 0
 384 96 387 69 387 49 c 0
 387 0 372 -5 333 -5 c 0
 294 -5 280 1 280 50 c 0
 280 70 282 97 286 134 c 0
 289 172 291 199 291 219 c 0
 291 269 277 272 228 272 c 0
 183 272 153 253 144 222 c 0
 133 184 130 184 130 231 c 0
 130 232 130 234 130 235 c 0
 130 286 161 378 173 378 c 0
 176 378 177 374 178 364 c 0
 180 345 205 328 236 328 c 0
 286 328 292 347 292 489 c 0
 292 578 300 661 311 670 c 0
EndSplineSet
Validated: 1
EndChar

StartChar: g
Encoding: 103 103 103
Width: 667
VWidth: 0
Flags: HW
LayerCount: 3
Back
Fore
SplineSet
237.5 457 m 0
 275.5 496 333.5 520 378.5 520 c 0
 405.5 520 428.5 512 439.5 493 c 0
 445.5 484 458.5 480 472.5 480 c 0
 481.5 480 490.5 481 498.5 484 c 0
 507.5 488 514.5 490 520.5 490 c 0
 528.5 490 532.5 485 532.5 475 c 0
 532.5 466 529.5 453 523.5 434 c 0
 512.5 398 481.5 320 453.5 265 c 2
 400.5 162 l 1
 475.5 151 l 2
 513.5 145 532.5 142 532.5 138 c 0
 532.5 134 517.5 128 489.5 118 c 0
 453.5 107 425.5 73 425.5 43 c 0
 425.5 -37 310.5 -142 222.5 -142 c 0
 217.5 -142 213.5 -142 209.5 -141 c 0
 145.5 -135 134.5 -118 134.5 -49 c 0
 134.5 12 156.5 48 228.5 95 c 0
 271.5 125 297.5 148 297.5 156 c 0
 297.5 158 295.5 159 292.5 159 c 0
 239.5 159 175.5 245 175.5 320 c 0
 175.5 359 203.5 420 237.5 457 c 0
398.5 398 m 0
 398.5 423 382.5 435 360.5 435 c 0
 338.5 435 309.5 422 287.5 395 c 0
 272.5 378 266.5 357 266.5 338 c 0
 266.5 302 289.5 270 325.5 270 c 0
 364.5 270 398.5 329 398.5 398 c 0
370.5 54 m 0
 370.5 84 364.5 100 350.5 100 c 0
 330.5 100 293.5 70 231.5 7 c 0
 182.5 -44 161.5 -69 161.5 -84 c 0
 161.5 -95 170.5 -101 187.5 -107 c 0
 192.5 -109 198.5 -110 205.5 -110 c 0
 267.5 -110 370.5 -14 370.5 54 c 0
EndSplineSet
Validated: 1
EndChar

StartChar: h
Encoding: 104 104 104
Width: 667
VWidth: 0
Flags: HW
LayerCount: 3
Back
Fore
SplineSet
120.5 617 m 0
 126.5 629 133.5 637 149.5 639 c 0
 149.5 639 149.5 639 150.5 639 c 0
 165.5 639 159.5 571 164.5 461 c 0
 169.5 342 178.5 245 186.5 245 c 0
 191.5 245 222.5 259 250.5 278 c 0
 273.5 292 295.5 299 313.5 299 c 0
 361.5 299 391.5 255 391.5 175 c 0
 391.5 99 420.5 54 461.5 54 c 0
 478.5 54 497.5 62 516.5 78 c 0
 532.5 91 542.5 98 549.5 98 c 0
 556.5 98 558.5 89 558.5 70 c 0
 558.5 17 501.5 -30 435.5 -30 c 0
 428.5 -30 421.5 -29 414.5 -28 c 0
 366.5 -22 347.5 3 341.5 64 c 0
 332.5 141 316.5 177 283.5 177 c 0
 268.5 177 250.5 170 228.5 156 c 0
 191.5 134 171.5 88 171.5 49 c 0
 171.5 21 182.5 -4 205.5 -14 c 0
 210.5 -16 212.5 -19 212.5 -21 c 0
 212.5 -26 197.5 -29 169.5 -30 c 2
 108.5 -33 l 1
 113.5 275 l 2
 114.5 320 114.5 363 114.5 403 c 0
 114.5 433 114.5 461 114.5 487 c 0
 114.5 557 115.5 607 120.5 617 c 0
EndSplineSet
Validated: 1
EndChar

StartChar: i
Encoding: 105 105 105
Width: 667
VWidth: 0
Flags: HW
LayerCount: 3
Back
Fore
SplineSet
298.5 550 m 0
 298.5 567 324.5 586 346.5 586 c 0
 368.5 586 394.5 569 394.5 552 c 0
 394.5 538 368.5 515 346.5 515 c 0
 324.5 515 298.5 536 298.5 550 c 0
296.5 259 m 0
 290.5 316 287.5 355 287.5 382 c 0
 287.5 433 299.5 439 332.5 439 c 0
 382.5 439 388.5 420 388.5 261 c 0
 388.5 161 402.5 72 416.5 64 c 0
 436.5 52 445.5 41 445.5 31 c 0
 445.5 10 404.5 -5 332.5 -5 c 0
 261.5 -5 221.5 9 221.5 27 c 0
 221.5 38 236.5 50 266.5 61 c 0
 292.5 70 303.5 89 303.5 146 c 0
 303.5 173 301.5 210 296.5 259 c 0
EndSplineSet
Validated: 1
EndChar

StartChar: j
Encoding: 106 106 106
Width: 667
VWidth: 0
Flags: HW
LayerCount: 3
Back
Fore
SplineSet
428.5 576 m 0
 428.5 612 448.5 632 484.5 632 c 0
 520.5 632 540.5 612 540.5 576 c 0
 540.5 540 520.5 520 484.5 520 c 0
 448.5 520 428.5 540 428.5 576 c 0
466.5 409 m 0
 474.5 426 481.5 435 486.5 435 c 0
 497.5 435 501.5 363 506.5 237 c 0
 508.5 188 509.5 147 509.5 111 c 0
 509.5 -44 487.5 -87 415.5 -119 c 0
 373.5 -138 331.5 -147 293.5 -147 c 0
 198.5 -147 126.5 -91 126.5 -6 c 0
 126.5 2 127.5 11 128.5 20 c 0
 134.5 51 137.5 67 142.5 67 c 0
 148.5 67 156.5 48 173.5 9 c 0
 198.5 -53 245.5 -86 294.5 -86 c 0
 322.5 -86 350.5 -75 376.5 -52 c 0
 417.5 -16 428.5 34 428.5 159 c 0
 428.5 251 446.5 376 466.5 409 c 0
EndSplineSet
Validated: 1
EndChar

StartChar: k
Encoding: 107 107 107
Width: 667
VWidth: 0
Flags: HW
LayerCount: 3
Back
Fore
SplineSet
164.5 517 m 0
 177.5 538 189.5 548 199.5 548 c 0
 221.5 548 236.5 500 236.5 408 c 0
 236.5 333 244.5 269 255.5 269 c 0
 266.5 269 316.5 308 364.5 356 c 0
 412.5 404 459.5 429 487.5 429 c 0
 490.5 429 494.5 429 497.5 428 c 0
 524.5 416 541.5 374 541.5 340 c 0
 541.5 316 532.5 297 514.5 297 c 0
 500.5 297 486.5 311 486.5 328 c 0
 486.5 332 482.5 335 476.5 335 c 0
 462.5 335 435.5 324 402.5 306 c 0
 358.5 281 319.5 244 319.5 228 c 0
 319.5 184 488.5 77 539.5 77 c 0
 545.5 77 550.5 79 552.5 83 c 0
 554.5 88 555.5 91 557.5 91 c 0
 562.5 91 566.5 72 566.5 42 c 0
 566.5 40 566.5 38 566.5 36 c 0
 566.5 -11 550.5 -34 521.5 -34 c 0
 487.5 -34 437.5 -2 375.5 61 c 0
 315.5 123 279.5 153 259.5 153 c 0
 242.5 153 236.5 129 236.5 81 c 0
 236.5 36 211.5 -22 180.5 -50 c 0
 154.5 -73 132.5 -84 117.5 -84 c 0
 107.5 -84 100.5 -78 100.5 -68 c 0
 100.5 -58 107.5 -43 122.5 -25 c 0
 140.5 -4 151.5 70 151.5 182 c 0
 151.5 203 151.5 226 150.5 250 c 0
 149.5 274 149.5 298 149.5 321 c 0
 149.5 420 154.5 501 164.5 517 c 0
EndSplineSet
Validated: 1
EndChar

StartChar: l
Encoding: 108 108 108
Width: 667
VWidth: 0
Flags: HW
LayerCount: 3
Back
Fore
SplineSet
305.5 592 m 0
 347.5 688 364.5 713 408.5 713 c 0
 416.5 713 426.5 712 436.5 711 c 0
 503.5 703 514.5 689 522.5 603 c 0
 523.5 592 524.5 582 524.5 573 c 0
 524.5 509 497.5 468 405.5 364 c 0
 322.5 272 278.5 197 278.5 150 c 0
 278.5 104 287.5 81 305.5 81 c 0
 320.5 81 344.5 99 375.5 134 c 0
 407.5 169 450.5 190 476.5 190 c 0
 490.5 190 500.5 184 500.5 170 c 0
 500.5 156 455.5 111 400.5 67 c 0
 350.5 28 308.5 8 275.5 8 c 0
 235.5 8 211.5 37 197.5 95 c 0
 192.5 116 201.5 166 176.5 166 c 0
 170.5 166 163.5 164 154.5 158 c 0
 153.5 157 151.5 156 149.5 155 c 0
 143.5 152 142.5 169 142.5 179 c 0
 142.5 203 156.5 245 181.5 303 c 0
 214.5 373 250.5 445 250.5 450 c 0
 250.5 456 275.5 520 305.5 592 c 0
472.5 600 m 0
 472.5 623 460.5 633 444.5 633 c 0
 420.5 633 386.5 610 366.5 572 c 0
 322.5 486 294.5 406 294.5 373 c 0
 294.5 362 297.5 356 303.5 356 c 0
 333.5 356 472.5 556 472.5 600 c 0
EndSplineSet
Validated: 1
EndChar

StartChar: m
Encoding: 109 109 109
Width: 667
VWidth: 0
Flags: HW
LayerCount: 3
Back
Fore
SplineSet
165 445 m 0
 186 459 215 465 242 465 c 0
 286 465 328 450 340 422 c 0
 347 402 352 391 357 391 c 0
 363 391 370 402 381 422 c 0
 397 451 432 465 468 465 c 0
 509 465 551 448 570 414 c 0
 588 378 597 328 597 274 c 0
 597 203 581 128 551 75 c 0
 520 24 486 -2 462 -2 c 0
 444 -2 431 15 431 50 c 0
 431 81 443 106 459 106 c 0
 485 106 509 202 509 270 c 0
 509 298 505 321 495 331 c 0
 484 342 470 347 456 347 c 0
 418 347 376 310 376 261 c 0
 376 231 362 184 348 161 c 0
 342 151 337 146 333 146 c 0
 324 146 320 169 320 220 c 0
 320 286 306 328 276 339 c 0
 262 345 249 348 238 348 c 0
 196 348 177 300 148 161 c 0
 131 70 104 -5 93 -5 c 0
 81 -5 70 64 70 150 c 0
 70 300 104 406 165 445 c 0
EndSplineSet
Validated: 1
EndChar

StartChar: n
Encoding: 110 110 110
Width: 667
VWidth: 0
Flags: HW
LayerCount: 3
Back
Fore
SplineSet
121 433 m 0
 152 472 189 493 213 493 c 0
 228 493 238 484 238 466 c 0
 238 452 260 438 288 438 c 0
 388 438 460 358 460 244 c 0
 460 157 480 106 513 106 c 0
 527 106 541 120 560 135 c 0
 576 148 586 155 592 155 c 0
 596 155 597 151 597 143 c 0
 597 136 595 124 593 108 c 0
 583 36 547 0 505 0 c 0
 435 0 349 93 349 221 c 0
 349 310 341 327 291 327 c 0
 251 327 238 321 238 260 c 0
 238 236 241 198 241 154 c 2
 244 -6 l 1
 163 -6 l 2
 103 -6 73 4 73 24 c 0
 73 37 86 55 113 77 c 0
 138 99 154 160 154 235 c 0
 154 312 152 341 137 341 c 0
 132 341 124 336 113 327 c 0
 100 316 89 311 82 311 c 0
 74 311 70 318 70 329 c 0
 70 351 87 392 121 433 c 0
EndSplineSet
Validated: 1
EndChar

StartChar: o
Encoding: 111 111 111
Width: 667
VWidth: 0
Flags: HW
LayerCount: 3
Back
Fore
SplineSet
193.5 371 m 0
 238.5 416 291.5 436 342.5 436 c 0
 446.5 436 541.5 353 541.5 221 c 0
 541.5 86 446.5 -2 342.5 -2 c 0
 291.5 -2 238.5 19 193.5 65 c 0
 147.5 109 125.5 164 125.5 218 c 0
 125.5 272 147.5 327 193.5 371 c 0
435.5 310 m 0
 403.5 339 373.5 354 343.5 354 c 0
 312.5 354 282.5 337 252.5 304 c 0
 226.5 275 213.5 246 213.5 218 c 0
 213.5 177 241.5 140 296.5 110 c 0
 328.5 91 347.5 82 364.5 82 c 0
 383.5 82 399.5 93 427.5 118 c 0
 464.5 153 483.5 187 483.5 221 c 0
 483.5 252 467.5 282 435.5 310 c 0
376.5 198 m 0
 376.5 203 376.5 221 376.5 225 c 0
 376.5 241 379.5 245 384.5 245 c 0
 386.5 245 388.5 244 390.5 242 c 0
 395.5 237 402.5 223 402.5 212 c 0
 402.5 209 402.5 205 402.5 200 c 0
 402.5 190 401.5 177 392.5 169 c 0
 387.5 165 383.5 162 381.5 162 c 0
 377.5 162 376.5 169 376.5 179 c 0
 376.5 184 376.5 191 376.5 198 c 0
EndSplineSet
Validated: 1
EndChar

StartChar: p
Encoding: 112 112 112
Width: 667
VWidth: 0
Flags: HW
LayerCount: 3
Back
Fore
SplineSet
165 162 m 2
 166 440 l 1
 308 440 l 2
 469 440 522 396 525 257 c 0
 525 146 480 107 352 107 c 0
 250 107 247 104 247 12 c 0
 247 -65 208 -116 152 -116 c 0
 144 -116 142 -115 142 -112 c 0
 142 -105 166 -87 166 -60 c 0
 166 -9 165 73 165 162 c 2
438 304 m 0
 416 318 366 329 325 329 c 0
 261 329 247 318 247 260 c 0
 247 201 261 190 327 190 c 0
 400 190 461 232 461 269 c 0
 461 282 454 294 438 304 c 0
EndSplineSet
Validated: 1
EndChar

StartChar: q
Encoding: 113 113 113
Width: 667
VWidth: 0
Flags: HW
LayerCount: 3
Back
Fore
SplineSet
427 431 m 0
 438 442 452 459 459 459 c 0
 478 459 477 390 482 192 c 0
 487 -9 483 -81 503 -81 c 0
 508 -81 523 -66 529 -61 c 0
 545 -47 557 -41 563 -41 c 0
 568 -41 570 -44 570 -50 c 0
 570 -61 561 -85 543 -119 c 0
 527 -147 488 -172 460 -172 c 0
 413 -172 404 -153 404 -28 c 0
 404 58 399 93 386 93 c 0
 382 93 377 90 371 84 c 0
 352 64 307 50 268 50 c 0
 162 50 97 137 97 229 c 0
 97 284 120 340 171 381 c 0
 219 419 268 438 305 438 c 0
 331 438 348 423 365 405 c 0
 370 400 375 396 382 396 c 0
 395 396 408 412 427 431 c 0
379 284 m 0
 355 313 324 325 294 325 c 0
 239 325 186 283 186 220 c 0
 186 213 186 205 188 197 c 0
 193 164 221 147 277 147 c 0
 350 147 400 186 400 233 c 0
 400 249 393 267 379 284 c 0
EndSplineSet
Validated: 1
EndChar

StartChar: r
Encoding: 114 114 114
Width: 667
VWidth: 0
Flags: HW
LayerCount: 3
Back
Fore
SplineSet
195.5 390 m 0
 205.5 438 225.5 464 244.5 464 c 0
 258.5 464 271.5 452 281.5 426 c 0
 289.5 404 350.5 373 417.5 354 c 0
 488.5 334 540.5 311 540.5 296 c 0
 540.5 285 501.5 271 457.5 271 c 0
 446.5 271 435.5 272 424.5 274 c 0
 380.5 282 387.5 297 350.5 298 c 2
 286.5 300 l 1
 253.5 132 l 2
 232.5 23 209.5 -24 175.5 -30 c 0
 171.5 -31 166.5 -31 163.5 -31 c 0
 138.5 -31 126.5 -13 126.5 31 c 0
 126.5 67 134.5 120 150.5 195 c 0
 167.5 259 184.5 345 195.5 390 c 0
EndSplineSet
Validated: 1
EndChar

StartChar: s
Encoding: 115 115 115
Width: 667
VWidth: 0
Flags: HW
LayerCount: 3
Back
Fore
SplineSet
225 424 m 0
 252 453 293 465 335 465 c 0
 421 465 514 413 514 338 c 0
 514 324 510 317 500 317 c 0
 488 317 466 327 430 349 c 0
 394 370 370 381 351 381 c 0
 337 381 326 375 314 363 c 0
 306 355 301 347 301 339 c 0
 301 318 327 291 383 244 c 0
 439 197 486 138 486 116 c 0
 486 29 380 -33 291 -33 c 0
 244 -33 201 -16 180 22 c 0
 162 56 153 82 153 94 c 0
 153 101 155 104 159 104 c 0
 165 104 173 98 186 86 c 0
 208 64 256 53 300 53 c 0
 341 53 380 63 392 83 c 0
 393 85 394 88 394 91 c 0
 394 114 356 161 294 211 c 0
 219 275 184 316 184 353 c 0
 184 377 198 398 225 424 c 0
EndSplineSet
Validated: 1
EndChar

StartChar: t
Encoding: 116 116 116
Width: 667
VWidth: 0
Flags: HW
LayerCount: 3
Back
Fore
SplineSet
291 550 m 0
 291 606 305 634 332 634 c 0
 360 634 374 603 374 536 c 0
 374 450 382 439 444 439 c 0
 482 439 513 434 513 428 c 0
 513 422 521 397 530 372 c 0
 533 364 535 358 535 353 c 0
 535 333 513 328 460 328 c 0
 377 328 374 322 374 214 c 0
 374 128 375 101 413 101 c 0
 424 101 438 102 456 105 c 0
 500 113 507 128 519 128 c 0
 536 128 538 118 538 106 c 0
 538 102 538 97 538 93 c 0
 538 81 533 63 524 39 c 0
 513 9 471 -5 399 -5 c 2
 291 -5 l 1
 291 189 l 2
 291 375 288 384 224 384 c 0
 188 384 143 405 132 427 c 0
 130 433 129 438 129 443 c 0
 129 462 158 467 207 467 c 0
 282 467 291 475 291 550 c 0
EndSplineSet
Validated: 1
EndChar

StartChar: u
Encoding: 117 117 117
Width: 667
VWidth: 0
Flags: HW
LayerCount: 3
Back
Fore
SplineSet
125.5 287 m 0
 125.5 421 133.5 440 180.5 440 c 0
 225.5 440 233.5 418 241.5 282 c 0
 250.5 137 255.5 121 314.5 112 c 0
 324.5 111 333.5 110 342.5 110 c 0
 424.5 110 458.5 169 458.5 304 c 0
 458.5 407 469.5 440 500.5 440 c 0
 530.5 440 541.5 404 541.5 290 c 0
 541.5 106 458.5 -5 350.5 -5 c 0
 302.5 -5 249.5 17 197.5 65 c 0
 136.5 121 125.5 154 125.5 287 c 0
EndSplineSet
Validated: 1
EndChar

StartChar: v
Encoding: 118 118 118
Width: 667
VWidth: 0
Flags: HW
LayerCount: 3
Back
Fore
SplineSet
130 337 m 2
 57 468 l 1
 157 468 l 2
 212 468 245 468 245 457 c 0
 245 450 219 449 203 433 c 0
 185 414 183 392 183 375 c 0
 183 355 196 329 227 279 c 0
 288 177 319 129 347 129 c 0
 372 129 394 169 432 246 c 0
 466 314 492 388 492 419 c 0
 492 423 489 435 488 438 c 0
 486 444 474 451 474 455 c 0
 474 467 488 468 509 468 c 0
 519 468 531 468 543 468 c 2
 610 468 l 1
 538 310 l 2
 499 221 449 129 430 104 c 0
 407 82 391 46 391 29 c 0
 391 10 374 -4 357 -4 c 0
 321 -4 274 68 130 337 c 2
EndSplineSet
Validated: 1
EndChar

StartChar: w
Encoding: 119 119 119
Width: 667
VWidth: 0
Flags: HW
LayerCount: 3
Back
Fore
SplineSet
33 421 m 0
 32 422 32 423 32 424 c 0
 32 434 50 440 78 440 c 0
 119 440 139 407 167 287 c 0
 186 204 211 135 222 135 c 0
 233 135 256 165 272 204 c 0
 289 243 317 273 333 273 c 0
 350 273 378 243 394 204 c 0
 411 165 436 135 447 135 c 0
 458 135 489 204 514 287 c 0
 542 385 572 440 597 440 c 0
 622 440 635 439 635 424 c 0
 635 408 623 379 600 323 c 0
 578 273 539 179 511 115 c 0
 486 48 456 -4 444 -4 c 0
 433 -4 408 35 389 79 c 0
 366 132 351 159 336 159 c 0
 321 159 306 132 283 79 c 0
 261 35 236 -4 222 -4 c 0
 208 -4 178 54 153 129 c 0
 111 240 72 340 33 421 c 0
EndSplineSet
Validated: 1
EndChar

StartChar: x
Encoding: 120 120 120
Width: 667
VWidth: 0
Flags: HW
LayerCount: 3
Back
Fore
SplineSet
116.5 419 m 0
 116.5 432 123.5 439 136.5 439 c 0
 162.5 439 210.5 412 261.5 363 c 2
 338.5 288 l 1
 416.5 363 l 2
 466.5 411 513.5 438 540.5 438 c 0
 553.5 438 561.5 431 561.5 416 c 0
 561.5 405 516.5 352 463.5 299 c 2
 366.5 205 l 1
 469.5 99 l 2
 522.5 45 545.5 18 545.5 5 c 0
 545.5 -4 535.5 -6 516.5 -6 c 0
 483.5 -6 436.5 19 408.5 49 c 0
 376.5 84 350.5 101 325.5 101 c 0
 299.5 101 273.5 84 241.5 49 c 0
 213.5 19 166.5 -6 133.5 -6 c 0
 115.5 -6 105.5 -4 105.5 5 c 0
 105.5 18 130.5 47 186.5 105 c 2
 294.5 216 l 1
 205.5 308 l 2
 155.5 358 116.5 408 116.5 419 c 0
EndSplineSet
Validated: 1
EndChar

StartChar: y
Encoding: 121 121 121
Width: 667
VWidth: 0
Flags: HW
LayerCount: 3
Back
Fore
SplineSet
100.5 415 m 0
 100.5 434 106.5 442 117.5 442 c 0
 143.5 442 197.5 386 247.5 298 c 0
 289.5 223 336.5 154 347.5 145 c 0
 348.5 145 349.5 144 350.5 144 c 0
 365.5 144 397.5 200 422.5 273 c 0
 462.5 381 504.5 439 540.5 439 c 0
 548.5 439 556.5 436 564.5 429 c 0
 565.5 428 566.5 425 566.5 422 c 0
 566.5 362 382.5 -11 317.5 -82 c 0
 278.5 -124 224.5 -146 184.5 -146 c 0
 152.5 -146 128.5 -131 128.5 -102 c 0
 128.5 -85 129.5 -67 138.5 -64 c 0
 149.5 -60 153.5 -77 156.5 -80 c 0
 162.5 -87 169.5 -85 177.5 -85 c 0
 219.5 -85 284.5 -37 306.5 7 c 0
 307.5 9 307.5 12 307.5 15 c 0
 307.5 47 269.5 129 211.5 220 c 0
 150.5 312 100.5 401 100.5 415 c 0
EndSplineSet
Validated: 1
EndChar

StartChar: z
Encoding: 122 122 122
Width: 667
VWidth: 0
Flags: HW
LayerCount: 3
Back
Fore
SplineSet
111 426 m 0
 111 463 133 469 201 469 c 0
 234 469 277 468 333 468 c 0
 485 468 556 458 556 416 c 0
 556 383 510 331 425 246 c 2
 294 115 l 1
 425 112 l 2
 533 110 555 96 555 48 c 0
 555 1 536 -4 333 -4 c 0
 186 -4 111 7 111 26 c 0
 111 46 180 129 266 215 c 2
 422 371 l 1
 266 379 l 2
 153 385 111 370 111 426 c 0
EndSplineSet
Validated: 1
EndChar

StartChar: braceleft
Encoding: 123 123 123
Width: 667
VWidth: 0
Flags: HW
LayerCount: 3
Back
Fore
SplineSet
318.5 519 m 0
 326.5 688 326.5 691 407.5 691 c 0
 454.5 691 490.5 680 490.5 663 c 0
 490.5 649 464.5 647 433.5 647 c 0
 383.5 647 379.5 616 379.5 486 c 0
 379.5 402 368.5 327 351.5 316 c 0
 342.5 310 338.5 300 338.5 285 c 0
 338.5 271 342.5 252 351.5 230 c 0
 368.5 191 379.5 105 379.5 38 c 0
 379.5 -64 383.5 -87 445.5 -87 c 0
 480.5 -87 495.5 -96 495.5 -104 c 0
 495.5 -114 461.5 -121 422.5 -121 c 0
 419.5 -121 415.5 -121 411.5 -121 c 0
 333.5 -117 335.5 -92 329.5 11 c 0
 318.5 194 298.5 238 234.5 258 c 2
 171.5 274 l 1
 240.5 311 l 2
 301.5 341 309.5 366 318.5 519 c 0
EndSplineSet
Validated: 1
EndChar

StartChar: bar
Encoding: 124 124 124
Width: 667
VWidth: 0
Flags: HW
LayerCount: 3
Back
Fore
SplineSet
305.5 287 m 0
 305.5 358 304.5 422 304.5 476 c 0
 304.5 612 308.5 690 333.5 690 c 0
 358.5 690 362.5 612 362.5 476 c 0
 362.5 422 361.5 358 361.5 287 c 0
 361.5 229 362.5 153 362.5 106 c 0
 362.5 -25 362.5 -78 351.5 -94 c 0
 336.5 -112 l 0
 333.5 -115 329.5 -116 327.5 -116 c 0
 304.5 -116 305.5 -21 304.5 98 c 0
 304.5 152 305.5 216 305.5 287 c 0
EndSplineSet
Validated: 1
EndChar

StartChar: braceright
Encoding: 125 125 125
Width: 667
VWidth: 0
Flags: HW
LayerCount: 3
Back
Fore
SplineSet
148.5 661 m 0
 148.5 678 190.5 689 242.5 689 c 0
 323.5 689 342.5 678 367.5 603 c 0
 384.5 553 398.5 472 398.5 422 c 0
 398.5 350 412.5 328 476.5 306 c 0
 504.5 295 518.5 286 518.5 280 c 0
 518.5 277 513.5 275 503.5 275 c 0
 442.5 272 398.5 189 398.5 81 c 0
 398.5 36 387.5 -33 370.5 -72 c 0
 350.5 -127 330.5 -141 263.5 -141 c 0
 256.5 -141 248.5 -141 240.5 -141 c 0
 183.5 -141 157.5 -140 157.5 -135 c 0
 157.5 -130 174.5 -122 203.5 -108 c 0
 298.5 -64 340.5 -5 342.5 84 c 0
 342.5 125 353.5 189 370.5 228 c 0
 379.5 250 383.5 269 383.5 283 c 0
 383.5 298 379.5 308 370.5 314 c 0
 353.5 325 342.5 367 342.5 411 c 0
 342.5 492 240.5 634 178.5 634 c 0
 162.5 634 148.5 647 148.5 661 c 0
EndSplineSet
Validated: 1
EndChar

StartChar: asciitilde
Encoding: 126 126 126
Width: 667
VWidth: 0
Flags: HW
LayerCount: 3
Back
Fore
SplineSet
139.5 372 m 0
 180.5 416 206.5 437 235.5 437 c 0
 261.5 437 290.5 420 333.5 386 c 0
 378.5 351 410.5 334 435.5 334 c 0
 459.5 334 475.5 351 486.5 386 c 0
 497.5 422 521.5 440 543.5 440 c 0
 564.5 440 583.5 422 583.5 386 c 0
 583.5 321 520.5 281 438.5 281 c 0
 408.5 281 375.5 287 341.5 299 c 0
 301.5 314 273.5 322 249.5 322 c 0
 225.5 322 204.5 314 178.5 299 c 0
 150.5 284 128.5 277 113.5 277 c 0
 99.5 277 92.5 284 92.5 295 c 0
 92.5 312 107.5 339 139.5 372 c 0
133.5 161 m 0
 164.5 179 195.5 188 228.5 188 c 0
 264.5 188 303.5 178 347.5 158 c 0
 373.5 146 393.5 141 413.5 141 c 0
 436.5 141 457.5 148 486.5 163 c 0
 515.5 179 538.5 186 554.5 186 c 0
 568.5 186 575.5 180 575.5 169 c 0
 575.5 155 564.5 134 541.5 108 c 0
 510.5 72 466.5 54 424.5 54 c 0
 388.5 54 355.5 67 333.5 94 c 0
 311.5 120 277.5 134 246.5 134 c 0
 215.5 134 188.5 120 178.5 94 c 0
 166.5 67 142.5 53 121.5 53 c 0
 101.5 53 83.5 66 83.5 94 c 0
 83.5 113 105.5 147 133.5 161 c 0
EndSplineSet
Validated: 1
EndChar

StartChar: uni007F
Encoding: 127 127 127
Width: 667
VWidth: 0
Flags: HW
LayerCount: 3
Back
Fore
SplineSet
-0 594 m 2
 -0 747 l 1
 333 747 l 1
 667 747 l 1
 661 283 l 1
 655 -184 l 1
 642 150 l 2
 619 616 572 691 300 691 c 0
 183 691 94 625 67 511 c 0
 55 465 42 443 31 443 c 0
 14 443 0 497 -0 594 c 2
226 559 m 0
 205 561 196 564 196 565 c 0
 196 571 262 575 359 575 c 0
 456 575 528 571 528 565 c 0
 528 564 518 561 501 559 c 0
 466 555 404 552 359 552 c 0
 314 552 259 555 226 559 c 0
299 503 m 0
 287 506 281 510 281 512 c 0
 281 517 304 520 341 520 c 0
 386 520 412 516 412 510 c 0
 412 508 409 505 404 503 c 0
 393 499 374 498 355 498 c 0
 334 498 314 499 299 503 c 0
172 160 m 0
 172 363 174 482 180 482 c 0
 182 482 184 461 187 419 c 0
 193 346 195 253 195 158 c 0
 195 63 193 -30 187 -104 c 0
 184 -144 182 -164 180 -164 c 0
 174 -164 172 -47 172 160 c 0
299 447 m 0
 287 451 281 453 281 455 c 0
 281 460 304 464 341 464 c 0
 386 464 412 460 412 453 c 0
 412 452 409 449 404 447 c 0
 393 443 374 442 355 442 c 0
 334 442 314 443 299 447 c 0
444 150 m 0
 444 344 455 469 472 469 c 0
 489 469 500 344 500 150 c 0
 500 -45 489 -170 472 -170 c 0
 455 -170 444 -45 444 150 c 0
87 136 m 0
 87 328 91 439 96 439 c 0
 98 439 100 422 104 383 c 0
 110 314 112 225 112 136 c 0
 112 47 110 -41 104 -107 c 0
 100 -147 98 -165 96 -165 c 0
 91 -165 87 -55 87 136 c 0
557 355 m 0
 557 406 561 436 568 436 c 0
 571 436 574 432 577 422 c 0
 581 403 583 379 583 355 c 0
 583 332 581 309 577 291 c 0
 574 280 570 275 568 275 c 0
 561 275 557 305 557 355 c 0
299 363 m 0
 287 366 281 370 281 372 c 0
 281 377 304 380 341 380 c 0
 386 380 412 376 412 370 c 0
 412 368 409 365 404 363 c 0
 393 360 374 358 355 358 c 0
 334 358 314 360 299 363 c 0
-0 303 m 0
 -0 319 14 330 28 330 c 0
 44 330 55 319 55 303 c 0
 55 289 44 275 28 275 c 0
 14 275 -0 289 -0 303 c 0
282 73 m 0
 282 230 285 320 288 320 c 0
 290 320 293 307 294 275 c 0
 299 218 302 146 302 75 c 0
 302 3 299 -68 294 -122 c 0
 293 -155 290 -170 288 -170 c 0
 285 -170 282 -80 282 73 c 0
367 73 m 0
 367 230 370 320 373 320 c 0
 374 320 377 307 379 275 c 0
 384 218 385 146 385 75 c 0
 385 3 384 -68 379 -122 c 0
 377 -155 374 -170 373 -170 c 0
 370 -170 367 -80 367 73 c 0
528 164 m 0
 528 180 542 191 555 191 c 0
 572 191 583 180 583 164 c 0
 583 150 572 136 555 136 c 0
 542 136 528 150 528 164 c 0
557 -55 m 0
 557 23 562 68 569 68 c 0
 571 68 573 63 576 50 c 0
 581 26 583 -6 583 -40 c 0
 583 -74 581 -109 576 -137 c 0
 573 -156 569 -164 567 -164 c 0
 560 -164 557 -124 557 -55 c 0
-0 -59 m 0
 -0 -42 14 -31 28 -31 c 0
 44 -31 55 -42 55 -59 c 0
 55 -72 44 -86 28 -86 c 0
 14 -86 -0 -72 -0 -59 c 0
EndSplineSet
Validated: 1
EndChar

StartChar: uni0080
Encoding: 128 128 128
Width: 667
VWidth: 0
Flags: HW
LayerCount: 3
Back
Fore
SplineSet
276 -80 m 0
 280 -72 282 -62 282 -53 c 0
 282 -42 278 -30 272 -25 c 0
 270 -23 268 -22 266 -22 c 0
 260 -22 255 -33 255 -53 c 0
 255 -56 255 -59 255 -62 c 0
 255 -94 266 -102 276 -80 c 0
222 280 m 0
 222 719 225 738 278 738 c 0
 328 738 333 719 333 516 c 0
 333 313 339 294 389 294 c 0
 420 294 445 275 445 252 c 0
 445 230 420 211 389 211 c 0
 339 211 333 191 333 16 c 0
 333 -159 328 -178 278 -178 c 0
 225 -178 222 -159 222 280 c 0
276 572 m 0
 280 580 282 589 282 598 c 0
 282 610 278 621 272 626 c 0
 270 628 268 629 266 629 c 0
 260 629 255 618 255 598 c 0
 255 595 255 592 255 589 c 0
 255 557 266 549 276 572 c 0
EndSplineSet
Validated: 1
EndChar

StartChar: uni0081
Encoding: 129 129 129
Width: 667
VWidth: 0
Flags: HW
LayerCount: 3
Back
Fore
SplineSet
38 741 m 0
 38 760 42 770 50 770 c 0
 51 770 51 770 52 770 c 0
 70 770 65 768 126 663 c 0
 179 571 229 496 240 496 c 0
 254 496 279 458 299 410 c 2
 335 324 l 1
 387 424 l 2
 415 480 449 524 460 524 c 0
 471 524 514 595 560 677 c 0
 605 757 624 773 631 773 c 0
 632 773 632 773 632 773 c 0
 633 772 633 771 633 770 c 0
 633 733 489 496 468 496 c 0
 457 496 429 455 404 405 c 0
 385 363 375 338 375 314 c 0
 375 291 385 269 404 233 c 0
 426 185 462 138 479 121 c 0
 516 90 651 -140 651 -167 c 0
 651 -169 650 -170 649 -170 c 0
 640 -170 599 -112 557 -40 c 0
 515 33 462 113 437 138 c 0
 415 163 382 205 365 235 c 0
 352 257 343 269 335 269 c 0
 325 269 316 252 301 213 c 0
 285 169 262 135 249 135 c 0
 235 135 207 102 187 58 c 0
 126 -62 46 -170 21 -170 c 0
 18 -170 16 -168 16 -165 c 0
 16 -155 34 -128 62 -98 c 0
 101 -56 132 -9 132 10 c 0
 132 30 160 74 196 113 c 0
 276 203 309 256 309 306 c 0
 309 328 304 348 293 371 c 0
 276 410 254 441 243 441 c 0
 235 441 185 516 132 608 c 0
 79 699 74 713 60 713 c 0
 49 713 38 727 38 741 c 0
EndSplineSet
Validated: 1
EndChar

StartChar: uni0082
Encoding: 130 130 130
Width: 667
VWidth: 0
Flags: HW
LayerCount: 3
Back
Fore
SplineSet
55.5 414 m 2
 55.5 686 l 1
 172.5 686 l 1
 288.5 686 l 1
 225.5 627 l 2
 183.5 588 169.5 561 169.5 460 c 0
 169.5 432 170.5 399 172.5 358 c 0
 180.5 155 183.5 144 258.5 119 c 0
 281.5 110 307.5 106 333.5 106 c 0
 359.5 106 386.5 110 411.5 119 c 0
 483.5 144 486.5 155 494.5 358 c 0
 496.5 398 497.5 430 497.5 458 c 0
 497.5 560 483.5 588 441.5 627 c 2
 377.5 686 l 1
 494.5 686 l 1
 611.5 686 l 1
 611.5 414 l 2
 611.5 147 583.5 52 488.5 -14 c 0
 469.5 -28 401.5 -35 333.5 -35 c 0
 265.5 -35 197.5 -28 177.5 -14 c 0
 83.5 52 55.5 147 55.5 414 c 2
EndSplineSet
Validated: 1
EndChar

StartChar: uni0083
Encoding: 131 131 131
Width: 667
VWidth: 0
Flags: HW
LayerCount: 3
Back
Fore
SplineSet
348 674 m 0
 348 664 356 655 366 655 c 0
 376 655 384 664 384 674 c 0
 384 684 376 693 366 693 c 0
 356 693 348 684 348 674 c 0
283 674 m 0
 283 664 291 655 301 655 c 0
 311 655 319 664 319 674 c 0
 319 684 311 693 301 693 c 0
 291 693 283 684 283 674 c 0
270 731 m 0
 278 739 298 744 321 744 c 0
 330 744 339 744 348 742 c 0
 389 737 416 680 416 623 c 0
 416 592 408 562 390 540 c 0
 381 529 376 519 376 512 c 0
 376 501 386 493 409 487 c 0
 463 468 604 305 604 263 c 0
 604 260 603 258 601 256 c 0
 599 254 596 254 593 254 c 0
 577 254 546 267 517 287 c 0
 475 313 453 326 439 326 c 0
 423 326 418 308 409 270 c 0
 406 260 405 250 405 240 c 0
 405 211 416 182 437 159 c 0
 456 137 466 125 466 118 c 0
 466 110 453 109 423 109 c 0
 370 109 362 92 362 -2 c 0
 362 -63 351 -113 334 -113 c 0
 320 -113 306 -63 306 -2 c 0
 306 92 298 109 245 109 c 0
 215 109 202 110 202 118 c 0
 202 125 212 137 231 159 c 0
 252 182 263 211 263 240 c 0
 263 250 262 260 259 270 c 0
 250 308 245 326 229 326 c 0
 215 326 193 313 151 287 c 0
 122 267 91 254 74 254 c 0
 70 254 67 254 65 256 c 0
 64 258 63 260 63 262 c 0
 63 301 189 451 259 487 c 0
 282 499 293 511 293 522 c 0
 293 528 289 533 281 537 c 0
 262 550 251 601 251 648 c 0
 251 684 257 717 270 731 c 0
362 570 m 0
 367 576 370 580 370 584 c 0
 370 593 358 598 334 598 c 0
 310 598 298 593 298 584 c 0
 298 580 301 576 306 570 c 0
 316 560 325 556 334 556 c 0
 343 556 352 560 362 570 c 0
EndSplineSet
Validated: 1
EndChar

StartChar: uni0084
Encoding: 132 132 132
Width: 667
VWidth: 0
Flags: HW
LayerCount: 3
Back
Fore
SplineSet
305.5 330 m 0
 305.5 477 317.5 580 333.5 580 c 0
 350.5 580 361.5 477 361.5 330 c 0
 361.5 183 350.5 80 333.5 80 c 0
 317.5 80 305.5 183 305.5 330 c 0
178.5 458 m 0
 189.5 488 201.5 501 211.5 501 c 0
 233.5 501 250.5 436 250.5 327 c 0
 250.5 214 243.5 168 222.5 168 c 0
 221.5 168 219.5 168 217.5 169 c 0
 190.5 179 168.5 293 168.5 380 c 0
 168.5 412 171.5 440 178.5 458 c 0
417.5 330 m 0
 417.5 446 424.5 492 447.5 492 c 0
 449.5 492 451.5 492 453.5 491 c 0
 472.5 483 486.5 424 486.5 330 c 0
 486.5 236 472.5 177 453.5 172 c 0
 450.5 171 448.5 170 445.5 170 c 0
 424.5 170 417.5 217 417.5 330 c 0
83.5 330 m 0
 83.5 347 97.5 358 111.5 358 c 0
 128.5 358 139.5 347 139.5 330 c 0
 139.5 316 128.5 302 111.5 302 c 0
 97.5 302 83.5 316 83.5 330 c 0
528.5 330 m 0
 528.5 347 542.5 358 555.5 358 c 0
 572.5 358 583.5 347 583.5 330 c 0
 583.5 316 572.5 302 555.5 302 c 0
 542.5 302 528.5 316 528.5 330 c 0
EndSplineSet
Validated: 1
EndChar

StartChar: uni0085
Encoding: 133 133 133
Width: 667
VWidth: 0
Flags: HW
LayerCount: 3
Back
Fore
SplineSet
432.5 453 m 0
 432.5 463 421.5 471 404.5 471 c 0
 389.5 471 375.5 463 375.5 453 c 0
 375.5 444 389.5 435 404.5 435 c 0
 421.5 435 432.5 444 432.5 453 c 0
275.5 653 m 0
 284.5 668 309.5 675 339.5 675 c 0
 399.5 675 480.5 649 505.5 614 c 0
 525.5 584 555.5 545 575.5 523 c 0
 587.5 508 594.5 496 594.5 488 c 0
 594.5 480 587.5 474 575.5 470 c 0
 555.5 464 542.5 442 542.5 423 c 0
 542.5 403 525.5 378 508.5 370 c 0
 489.5 362 500.5 362 536.5 370 c 0
 547.5 373 557.5 374 566.5 374 c 0
 584.5 374 597.5 368 597.5 359 c 0
 597.5 345 569.5 320 536.5 301 c 2
 472.5 270 l 1
 536.5 287 l 2
 552.5 291 565.5 293 575.5 293 c 0
 587.5 293 594.5 289 594.5 282 c 0
 594.5 267 568.5 236 514.5 187 c 0
 458.5 135 434.5 110 434.5 93 c 0
 434.5 82 446.5 75 469.5 67 c 0
 477.5 64 483.5 62 488.5 62 c 0
 496.5 62 500.5 66 500.5 73 c 0
 500.5 76 499.5 80 497.5 84 c 0
 496.5 86 496.5 88 496.5 90 c 0
 496.5 109 514.5 136 542.5 153 c 0
 566.5 167 581.5 176 589.5 176 c 0
 592.5 176 594.5 174 594.5 170 c 0
 594.5 159 577.5 128 544.5 73 c 0
 521.5 34 502.5 15 490.5 15 c 0
 484.5 15 480.5 18 478.5 26 c 0
 471.5 41 466.5 48 460.5 48 c 0
 454.5 48 447.5 40 436.5 23 c 0
 425.5 8 418.5 0 412.5 0 c 0
 406.5 0 401.5 8 394.5 23 c 0
 392.5 27 391.5 29 389.5 29 c 0
 383.5 29 378.5 -4 378.5 -55 c 0
 375.5 -141 364.5 -174 333.5 -174 c 0
 303.5 -174 292.5 -144 292.5 -55 c 0
 292.5 6 287.5 34 278.5 34 c 0
 274.5 34 270.5 29 264.5 20 c 0
 251.5 2 243.5 -7 236.5 -7 c 0
 229.5 -7 222.5 1 211.5 17 c 0
 202.5 32 196.5 52 196.5 71 c 0
 196.5 79 197.5 88 200.5 95 c 0
 202.5 100 203.5 105 203.5 110 c 0
 203.5 122 196.5 131 186.5 131 c 0
 174.5 131 166.5 113 166.5 86 c 0
 166.5 76 167.5 65 169.5 53 c 0
 173.5 30 176.5 14 176.5 5 c 0
 176.5 1 175.5 -1 174.5 -1 c 0
 168.5 -1 154.5 22 125.5 70 c 0
 89.5 128 72.5 158 72.5 170 c 0
 72.5 175 75.5 178 80.5 178 c 0
 87.5 178 97.5 175 111.5 170 c 0
 117.5 167 123.5 166 129.5 166 c 0
 144.5 166 153.5 177 153.5 198 c 0
 153.5 223 133.5 242 105.5 242 c 0
 89.5 242 81.5 244 81.5 250 c 0
 81.5 257 93.5 269 119.5 292 c 0
 150.5 318 165.5 332 165.5 347 c 0
 165.5 360 153.5 373 130.5 395 c 0
 108.5 418 97.5 432 97.5 445 c 0
 97.5 461 113.5 478 144.5 509 c 0
 178.5 543 205.5 585 205.5 606 c 0
 205.5 607 205.5 608 205.5 609 c 0
 205.5 615 204.5 618 201.5 618 c 0
 196.5 618 186.5 606 175.5 584 c 0
 155.5 545 125.5 517 109.5 517 c 0
 102.5 517 97.5 522 97.5 534 c 0
 97.5 567 180.5 641 214.5 641 c 0
 217.5 641 220.5 640 222.5 639 c 0
 227.5 638 232.5 637 238.5 637 c 0
 254.5 637 269.5 643 275.5 653 c 0
300.5 617 m 0
 319.5 664 303.5 673 278.5 628 c 0
 271.5 618 267.5 608 267.5 600 c 0
 267.5 594 269.5 590 272.5 587 c 0
 273.5 585 275.5 584 277.5 584 c 0
 284.5 584 294.5 597 300.5 617 c 0
497.5 589 m 0
 489.5 609 464.5 634 444.5 642 c 0
 438.5 644 432.5 645 428.5 645 c 0
 420.5 645 416.5 641 416.5 633 c 0
 416.5 628 417.5 623 419.5 617 c 0
 428.5 598 453.5 573 472.5 564 c 0
 478.5 562 483.5 561 487.5 561 c 0
 496.5 561 500.5 565 500.5 574 c 0
 500.5 578 499.5 583 497.5 589 c 0
375.5 548 m 0
 375.5 564 364.5 576 347.5 576 c 0
 333.5 576 319.5 564 319.5 548 c 0
 319.5 534 333.5 520 347.5 520 c 0
 364.5 520 375.5 534 375.5 548 c 0
542.5 492 m 0
 542.5 509 530.5 520 514.5 520 c 0
 500.5 520 486.5 509 486.5 492 c 0
 486.5 478 500.5 464 514.5 464 c 0
 530.5 464 542.5 478 542.5 492 c 0
292.5 464 m 0
 292.5 481 272.5 492 250.5 492 c 0
 228.5 492 208.5 481 208.5 464 c 0
 208.5 451 228.5 437 250.5 437 c 0
 272.5 437 292.5 451 292.5 464 c 0
430.5 326 m 0
 430.5 342 419.5 353 403.5 353 c 0
 389.5 353 375.5 342 375.5 326 c 0
 375.5 312 389.5 298 403.5 298 c 0
 419.5 298 430.5 312 430.5 326 c 0
292.5 270 m 0
 292.5 287 272.5 298 250.5 298 c 0
 228.5 298 208.5 287 208.5 270 c 0
 208.5 256 228.5 242 250.5 242 c 0
 272.5 242 292.5 256 292.5 270 c 0
375.5 131 m 0
 375.5 148 364.5 159 347.5 159 c 0
 333.5 159 319.5 148 319.5 131 c 0
 319.5 117 333.5 103 347.5 103 c 0
 364.5 103 375.5 117 375.5 131 c 0
69.5 353 m 0
 69.5 370 83.5 381 97.5 381 c 0
 114.5 381 125.5 370 125.5 353 c 0
 125.5 339 114.5 326 97.5 326 c 0
 83.5 326 69.5 339 69.5 353 c 0
EndSplineSet
Validated: 1
EndChar

StartChar: uni0086
Encoding: 134 134 134
Width: 667
VWidth: 0
Flags: HW
LayerCount: 3
Back
Fore
SplineSet
310 473 m 0
 325 487 334 493 338 493 c 0
 339 493 340 492 340 490 c 0
 340 483 329 462 307 429 c 0
 291 403 281 375 281 358 c 0
 281 353 282 348 285 346 c 0
 287 344 288 341 288 339 c 0
 288 332 277 326 257 326 c 0
 229 326 210 315 210 298 c 0
 210 277 220 268 234 268 c 0
 269 268 332 322 343 382 c 0
 358 439 393 479 430 479 c 0
 435 479 441 478 446 476 c 0
 463 469 471 462 471 453 c 0
 471 445 465 436 452 423 c 0
 439 410 429 403 420 403 c 0
 412 403 406 409 399 421 c 0
 382 443 377 443 377 418 c 0
 377 354 390 340 460 340 c 0
 527 340 529 332 529 187 c 0
 529 104 540 21 552 1 c 0
 556 -4 557 -11 557 -17 c 0
 557 -30 551 -44 538 -52 c 0
 511 -68 475 -76 449 -76 c 0
 431 -76 419 -72 419 -64 c 0
 419 -62 419 -60 421 -57 c 0
 428 -48 441 -42 455 -42 c 0
 462 -42 470 -43 477 -46 c 0
 483 -49 490 -50 497 -50 c 0
 510 -50 524 -44 529 -35 c 0
 532 -31 533 -27 533 -24 c 0
 533 -14 519 -8 499 -8 c 0
 471 -8 431 -20 410 -40 c 0
 390 -60 377 -96 377 -124 c 0
 377 -152 357 -174 335 -174 c 0
 313 -174 293 -149 293 -121 c 0
 293 -74 268 -42 242 -42 c 0
 229 -42 217 -49 207 -65 c 0
 190 -93 182 -96 182 -68 c 0
 182 -52 174 -38 163 -38 c 0
 156 -39 149 -40 143 -40 c 0
 98 -40 68 -14 68 13 c 0
 68 29 79 46 107 57 c 0
 118 62 124 67 124 73 c 0
 124 80 115 89 99 101 c 0
 83 111 74 125 74 137 c 0
 74 142 76 147 79 151 c 0
 83 154 88 156 93 156 c 0
 105 156 118 147 129 132 c 0
 140 114 148 105 155 105 c 0
 162 105 170 114 182 132 c 0
 199 160 210 162 210 140 c 0
 210 121 229 104 252 104 c 0
 280 104 293 112 293 122 c 0
 293 139 263 162 213 173 c 0
 168 182 124 210 115 235 c 0
 109 249 106 261 106 271 c 0
 106 287 113 297 123 297 c 0
 132 297 143 289 154 271 c 0
 177 235 182 237 182 276 c 0
 182 301 174 326 163 335 c 0
 149 340 157 340 174 337 c 0
 176 337 178 336 180 336 c 0
 195 336 203 351 203 374 c 0
 203 379 203 384 202 390 c 0
 202 394 202 398 202 402 c 0
 202 436 213 451 243 451 c 0
 268 451 299 462 310 473 c 0
265 410 m 0
 265 426 254 437 238 437 c 0
 224 437 210 426 210 410 c 0
 210 396 224 382 238 382 c 0
 254 382 265 396 265 410 c 0
515 298 m 0
 515 315 496 326 474 326 c 0
 452 326 432 315 432 298 c 0
 432 285 452 271 474 271 c 0
 496 271 515 285 515 298 c 0
368 210 m 0
 372 218 373 227 373 235 c 0
 373 247 370 257 365 262 c 0
 363 264 362 265 360 265 c 0
 355 265 351 255 351 239 c 0
 351 235 352 231 352 226 c 0
 352 196 360 187 368 210 c 0
432 104 m 0
 432 121 421 132 404 132 c 0
 390 132 377 121 377 104 c 0
 377 90 390 76 404 76 c 0
 421 76 432 90 432 104 c 0
190 12 m 0
 182 32 165 48 152 48 c 0
 138 48 127 32 127 12 c 0
 127 -10 143 -27 165 -27 c 0
 183 -27 193 -17 193 -3 c 0
 193 2 192 7 190 12 c 0
349 7 m 0
 349 29 338 48 321 48 c 0
 307 48 293 29 293 7 c 0
 293 -15 307 -35 321 -35 c 0
 338 -35 349 -15 349 7 c 0
560 196 m 0
 566 218 579 231 588 231 c 0
 590 231 591 231 593 229 c 0
 595 227 597 224 597 220 c 0
 597 209 588 193 574 179 c 0
 546 154 543 157 560 196 c 0
543 76 m 0
 543 93 557 104 571 104 c 0
 588 104 599 93 599 76 c 0
 599 62 588 48 571 48 c 0
 557 48 543 62 543 76 c 0
EndSplineSet
Validated: 1
EndChar

StartChar: uni0087
Encoding: 135 135 135
Width: 667
VWidth: 0
Flags: HW
LayerCount: 3
Back
Fore
SplineSet
325.5 638 m 0
 314.5 651 308.5 660 308.5 666 c 0
 308.5 674 317.5 677 333.5 677 c 0
 355.5 677 375.5 669 375.5 658 c 0
 375.5 650 393.5 645 419.5 645 c 0
 429.5 645 441.5 645 453.5 647 c 0
 494.5 652 505.5 649 480.5 641 c 0
 453.5 633 430.5 608 430.5 588 c 0
 430.5 569 414.5 547 397.5 538 c 0
 384.5 535 378.5 526 378.5 517 c 0
 378.5 512 379.5 507 383.5 502 c 0
 387.5 497 393.5 494 399.5 494 c 0
 408.5 494 418.5 500 425.5 510 c 0
 442.5 538 489.5 553 530.5 553 c 0
 566.5 553 597.5 541 597.5 516 c 0
 597.5 502 586.5 497 569.5 505 c 0
 566.5 507 562.5 508 558.5 508 c 0
 524.5 508 445.5 466 375.5 413 c 0
 374.5 412 373.5 411 373.5 410 c 0
 373.5 396 436.5 352 464.5 352 c 0
 475.5 352 503.5 372 525.5 397 c 0
 544.5 415 556.5 424 562.5 424 c 0
 568.5 424 569.5 415 569.5 397 c 0
 569.5 359 515.5 330 456.5 330 c 0
 439.5 330 420.5 332 403.5 338 c 0
 391.5 341 380.5 343 371.5 343 c 0
 357.5 343 347.5 339 347.5 330 c 0
 347.5 301 414.5 280 475.5 280 c 0
 496.5 280 517.5 282 533.5 288 c 0
 549.5 294 560.5 298 565.5 298 c 0
 567.5 298 569.5 297 569.5 295 c 0
 569.5 290 561.5 279 547.5 260 c 0
 532.5 243 523.5 221 523.5 204 c 0
 523.5 197 524.5 190 528.5 185 c 0
 533.5 178 535.5 172 535.5 167 c 0
 535.5 161 530.5 158 523.5 158 c 0
 506.5 158 473.5 174 444.5 205 c 0
 424.5 225 411.5 235 401.5 235 c 0
 391.5 235 383.5 226 372.5 210 c 0
 359.5 188 351.5 173 351.5 160 c 0
 351.5 136 379.5 125 453.5 110 c 2
 555.5 91 l 1
 458.5 74 l 2
 383.5 63 366.5 59 366.5 0 c 0
 366.5 -15 367.5 -35 369.5 -59 c 0
 371.5 -81 372.5 -99 372.5 -114 c 0
 372.5 -162 361.5 -176 336.5 -176 c 0
 300.5 -176 291.5 -142 291.5 -23 c 0
 291.5 78 274.5 133 248.5 133 c 0
 230.5 133 209.5 107 186.5 52 c 0
 164.5 2 158.5 -3 169.5 41 c 0
 172.5 53 174.5 63 174.5 71 c 0
 174.5 93 162.5 102 133.5 102 c 0
 124.5 102 119.5 104 119.5 108 c 0
 119.5 115 140.5 131 180.5 149 c 0
 275.5 197 319.5 235 319.5 277 c 0
 319.5 290 312.5 296 300.5 296 c 0
 279.5 296 244.5 277 208.5 241 c 0
 173.5 206 129.5 186 101.5 186 c 0
 82.5 186 69.5 194 69.5 213 c 0
 69.5 230 89.5 241 111.5 241 c 0
 133.5 241 164.5 266 180.5 297 c 0
 197.5 327 228.5 352 253.5 352 c 0
 289.5 352 344.5 450 344.5 517 c 0
 344.5 521 344.5 524 344.5 527 c 0
 344.5 547 333.5 535 322.5 505 c 0
 311.5 479 306.5 466 301.5 466 c 0
 295.5 466 290.5 481 280.5 513 c 0
 269.5 547 244.5 574 222.5 574 c 0
 203.5 574 178.5 594 169.5 619 c 0
 165.5 628 163.5 634 163.5 639 c 0
 163.5 647 168.5 650 177.5 650 c 0
 185.5 650 198.5 647 216.5 641 c 0
 250.5 630 286.5 608 297.5 591 c 0
 303.5 581 312.5 576 320.5 576 c 0
 326.5 576 331.5 578 336.5 583 c 0
 340.5 586 342.5 591 342.5 597 c 0
 342.5 609 335.5 626 325.5 638 c 0
125.5 555 m 0
 125.5 559 128.5 561 132.5 561 c 0
 143.5 561 164.5 551 189.5 530 c 0
 256.5 471 292.5 426 292.5 401 c 0
 292.5 387 281.5 380 258.5 380 c 0
 239.5 380 186.5 360 139.5 335 c 0
 113.5 322 94.5 315 86.5 315 c 0
 83.5 315 82.5 316 82.5 317 c 0
 82.5 319 84.5 322 89.5 327 c 0
 101.5 339 107.5 353 107.5 369 c 0
 107.5 382 103.5 397 94.5 413 c 0
 86.5 429 82.5 441 82.5 450 c 0
 82.5 459 87.5 463 97.5 463 c 0
 111.5 463 125.5 444 125.5 422 c 0
 125.5 399 144.5 380 166.5 380 c 0
 189.5 380 208.5 397 208.5 419 c 0
 208.5 438 189.5 472 166.5 491 c 0
 144.5 510 125.5 538 125.5 555 c 0
EndSplineSet
Validated: 1
EndChar

StartChar: uni0088
Encoding: 136 136 136
Width: 667
VWidth: 0
Flags: HW
LayerCount: 3
Back
Fore
SplineSet
169 757 m 0
 169 779 183 796 197 796 c 0
 213 796 225 779 225 757 c 0
 225 734 213 715 197 715 c 0
 183 715 169 708 169 661 c 0
 169 616 158 577 141 577 c 0
 113 577 2 677 2 702 c 0
 2 713 12 718 26 718 c 0
 51 718 87 702 94 683 c 0
 102 661 109 666 111 697 c 0
 112 713 118 716 126 716 c 0
 131 716 136 715 141 715 c 0
 158 715 169 734 169 757 c 0
310 728 m 0
 318 767 337 795 351 795 c 0
 368 795 376 785 376 770 c 0
 376 749 360 725 335 697 c 0
 312 672 308 658 308 627 c 2
 308 569 l 1
 361 627 l 2
 388 661 433 688 458 688 c 0
 483 688 502 702 502 716 c 0
 502 733 522 744 544 744 c 0
 556 744 565 740 570 740 c 0
 575 740 578 743 578 754 c 0
 578 776 592 795 605 795 c 0
 623 795 633 791 633 778 c 0
 633 766 633 775 613 741 c 0
 597 713 566 688 544 688 c 0
 520 688 506 685 506 674 c 0
 506 660 529 629 586 572 c 0
 633 525 665 476 665 462 c 0
 665 459 664 458 661 458 c 0
 650 458 617 484 575 530 c 0
 512 598 474 629 440 629 c 0
 418 629 399 616 375 594 c 0
 350 568 336 531 336 504 c 0
 336 482 345 466 363 466 c 0
 380 466 391 480 391 494 c 0
 391 511 411 522 436 522 c 0
 486 522 558 458 558 411 c 0
 558 391 586 355 622 325 c 0
 645 306 659 289 659 280 c 0
 659 276 656 273 650 272 c 0
 633 272 597 291 572 319 c 0
 551 338 538 348 528 348 c 0
 519 348 511 340 502 325 c 0
 493 312 480 304 470 304 c 0
 464 304 459 306 455 311 c 0
 451 316 450 321 450 325 c 0
 450 335 456 343 469 347 c 0
 493 356 504 378 504 401 c 0
 504 433 483 466 447 466 c 0
 411 466 391 447 391 413 c 0
 391 383 375 355 358 347 c 0
 349 344 344 339 344 332 c 0
 344 320 358 303 386 280 c 0
 419 250 447 202 447 177 c 0
 447 149 455 135 468 135 c 0
 483 135 505 153 530 188 c 0
 555 224 582 242 605 242 c 0
 625 242 642 228 652 200 c 0
 661 177 658 166 641 175 c 0
 635 179 628 180 620 180 c 0
 573 180 502 113 502 58 c 0
 502 22 491 -6 475 -6 c 0
 461 -6 447 -25 447 -48 c 0
 447 -70 461 -89 475 -89 c 0
 491 -89 502 -70 502 -48 c 0
 502 -20 512 -7 526 -7 c 0
 541 -7 561 -26 572 -59 c 0
 580 -89 593 -102 614 -102 c 0
 620 -102 628 -101 636 -98 c 0
 668 -84 677 -84 644 -125 c 0
 620 -156 597 -171 582 -171 c 0
 567 -171 558 -158 558 -131 c 0
 558 -104 545 -90 530 -90 c 0
 517 -90 503 -101 494 -123 c 0
 489 -136 484 -142 478 -142 c 0
 470 -142 462 -134 450 -117 c 0
 437 -100 428 -91 419 -91 c 0
 410 -91 401 -102 388 -125 c 0
 371 -156 348 -172 334 -172 c 0
 325 -172 319 -166 319 -155 c 0
 319 -149 321 -141 325 -131 c 0
 328 -124 330 -117 330 -112 c 0
 330 -98 323 -89 313 -89 c 0
 297 -89 266 -109 241 -131 c 0
 216 -157 198 -170 189 -170 c 0
 185 -170 183 -167 183 -160 c 0
 183 -150 188 -132 200 -106 c 0
 216 -70 255 -31 283 -25 c 0
 316 -15 333 9 333 57 c 0
 333 61 333 65 333 69 c 0
 333 101 328 119 322 119 c 0
 320 119 318 117 316 113 c 0
 311 94 286 77 263 77 c 0
 241 77 225 58 225 36 c 0
 225 13 213 -6 197 -6 c 0
 183 -6 169 -23 169 -45 c 0
 169 -99 94 -170 39 -170 c 0
 38 -170 37 -170 36 -170 c 0
 -3 -170 -3 -164 30 -153 c 0
 91 -128 130 -81 155 -6 c 0
 180 72 236 133 277 133 c 0
 294 133 308 150 311 169 c 0
 311 194 316 194 327 169 c 0
 333 150 352 133 366 133 c 0
 383 133 391 148 391 170 c 0
 391 197 377 235 350 261 c 0
 331 280 318 320 318 357 c 0
 318 364 318 371 319 377 c 0
 325 419 322 430 316 405 c 0
 308 372 287 356 267 356 c 0
 245 356 225 375 225 411 c 0
 225 441 213 466 197 466 c 0
 177 466 168 451 168 430 c 0
 168 398 189 352 225 327 c 0
 261 301 279 266 279 237 c 0
 279 209 262 188 227 188 c 0
 197 188 163 163 155 133 c 0
 147 102 125 77 111 77 c 0
 97 77 86 58 86 36 c 0
 86 13 66 -6 44 -6 c 0
 22 -6 2 13 2 36 c 0
 2 58 16 77 33 77 c 0
 69 77 169 183 169 222 c 0
 169 233 150 244 127 244 c 0
 105 244 86 233 86 216 c 0
 86 202 66 188 44 188 c 0
 22 188 2 202 2 216 c 0
 2 233 22 244 44 244 c 0
 66 244 86 258 86 272 c 0
 86 288 66 300 44 300 c 0
 22 300 2 313 2 327 c 0
 2 344 22 355 44 355 c 0
 66 355 86 344 86 327 c 0
 86 313 105 300 130 300 c 0
 152 300 163 307 163 322 c 0
 163 328 161 335 158 344 c 0
 150 369 141 405 141 427 c 0
 141 450 113 466 72 466 c 0
 33 466 2 480 2 494 c 0
 2 513 29 522 60 522 c 0
 97 522 141 509 150 488 c 0
 153 482 155 479 158 479 c 0
 162 479 166 492 166 516 c 0
 169 550 183 577 197 577 c 0
 213 577 225 602 225 633 c 0
 225 663 244 688 266 688 c 0
 288 688 302 688 310 728 c 0
308 522 m 0
 308 552 288 577 266 577 c 0
 244 577 225 552 225 522 c 0
 225 491 244 466 266 466 c 0
 288 466 308 491 308 522 c 0
225 272 m 0
 225 288 213 300 197 300 c 0
 183 300 169 288 169 272 c 0
 169 258 183 244 197 244 c 0
 213 244 225 258 225 272 c 0
447 63 m 0
 447 102 436 133 419 133 c 0
 405 133 391 102 391 63 c 0
 391 25 380 -6 363 -6 c 0
 350 -6 336 -25 336 -48 c 0
 336 -70 350 -89 363 -89 c 0
 380 -89 391 -70 391 -48 c 0
 391 -25 405 -6 419 -6 c 0
 436 -6 447 25 447 63 c 0
558 41 m 0
 558 63 573 73 592 73 c 0
 620 73 656 51 663 16 c 0
 664 11 665 6 665 2 c 0
 665 -12 659 -19 644 -19 c 0
 637 -19 628 -17 616 -14 c 0
 583 -6 558 19 558 41 c 0
EndSplineSet
Validated: 1
EndChar

StartChar: uni0089
Encoding: 137 137 137
Width: 667
VWidth: 0
Flags: HW
LayerCount: 3
Back
Fore
SplineSet
453 411 m 0
 453 426 457 438 462 438 c 0
 468 438 472 426 472 411 c 0
 472 396 468 384 462 384 c 0
 457 384 453 396 453 411 c 0
342 411 m 0
 342 426 346 438 351 438 c 0
 357 438 361 426 361 411 c 0
 361 396 357 384 351 384 c 0
 346 384 342 396 342 411 c 0
283 -75 m 0
 283 -66 288 -59 295 -59 c 0
 302 -59 307 -66 307 -75 c 0
 307 -84 302 -91 295 -91 c 0
 288 -91 283 -84 283 -75 c 0
63 133 m 0
 63 148 67 160 72 160 c 0
 78 160 82 148 82 133 c 0
 82 118 78 106 72 106 c 0
 67 106 63 118 63 133 c 0
5 147 m 0
 5 156 10 163 17 163 c 0
 24 163 29 156 29 147 c 0
 29 138 24 131 17 131 c 0
 10 131 5 138 5 147 c 0
144 120 m 0
 144 129 149 136 156 136 c 0
 163 136 168 129 168 120 c 0
 168 111 163 104 156 104 c 0
 149 104 144 111 144 120 c 0
282 175 m 0
 282 184 287 191 294 191 c 0
 301 191 306 184 306 175 c 0
 306 166 301 159 294 159 c 0
 287 159 282 166 282 175 c 0
144 286 m 0
 144 295 149 302 156 302 c 0
 163 302 168 295 168 286 c 0
 168 277 163 270 156 270 c 0
 149 270 144 277 144 286 c 0
116 314 m 0
 116 323 121 330 128 330 c 0
 135 330 140 323 140 314 c 0
 140 305 135 298 128 298 c 0
 121 298 116 305 116 314 c 0
144 370 m 0
 144 379 149 386 156 386 c 0
 163 386 168 379 168 370 c 0
 168 361 163 354 156 354 c 0
 149 354 144 361 144 370 c 0
61 342 m 0
 61 351 66 358 73 358 c 0
 80 358 85 351 85 342 c 0
 85 333 80 326 73 326 c 0
 66 326 61 333 61 342 c 0
90 606 m 0
 90 621 94 633 100 633 c 0
 105 633 110 621 110 606 c 0
 110 591 105 579 100 579 c 0
 94 579 90 591 90 606 c 0
60 675 m 0
 60 684 65 691 72 691 c 0
 79 691 84 684 84 675 c 0
 84 666 79 659 72 659 c 0
 65 659 60 666 60 675 c 0
507 -165 m 0
 502 -161 497 -150 523 -149 c 0
 528 -149 532 -148 536 -148 c 0
 553 -148 559 -152 559 -158 c 0
 559 -159 558 -161 556 -163 c 0
 551 -168 544 -171 533 -171 c 0
 524 -171 514 -171 507 -165 c 0
341 -53 m 0
 319 -45 327 -37 357 -37 c 0
 362 -37 366 -36 370 -36 c 0
 387 -36 397 -40 397 -46 c 0
 397 -47 396 -49 394 -51 c 0
 389 -56 378 -59 367 -59 c 0
 358 -59 349 -57 341 -53 c 0
547 764 m 0
 572 808 589 800 569 753 c 0
 563 733 552 720 545 720 c 0
 544 720 542 720 541 722 c 0
 538 725 536 729 536 735 c 0
 536 743 540 754 547 764 c 0
258 767 m 0
 283 811 300 803 280 756 c 0
 274 736 268 738 261 738 c 0
 260 738 258 738 257 740 c 0
 254 743 252 747 252 753 c 0
 252 761 251 757 258 767 c 0
477 628 m 0
 502 672 519 664 499 617 c 0
 493 597 482 584 475 584 c 0
 474 584 472 584 471 586 c 0
 468 589 466 593 466 599 c 0
 466 607 470 618 477 628 c 0
295 336 m 0
 321 371 345 368 318 327 c 0
 309 312 300 301 293 301 c 0
 292 301 290 301 289 302 c 0
 285 305 283 308 283 313 c 0
 283 319 287 328 295 336 c 0
147 464 m 0
 147 485 150 497 155 497 c 0
 157 497 159 495 161 491 c 0
 164 485 166 474 166 464 c 0
 166 454 164 445 161 439 c 0
 159 434 156 432 154 432 c 0
 150 432 147 443 147 464 c 0
313 -165 m 0
 308 -161 303 -150 329 -149 c 0
 334 -149 338 -148 342 -148 c 0
 359 -148 365 -152 365 -158 c 0
 365 -159 364 -161 362 -163 c 0
 357 -168 350 -171 339 -171 c 0
 330 -171 320 -171 313 -165 c 0
13 753 m 0
 12 759 12 765 12 770 c 0
 12 784 14 794 17 794 c 0
 27 794 37 760 37 736 c 0
 37 726 36 719 31 717 c 0
 30 716 29 716 28 716 c 0
 21 716 15 731 13 753 c 0
187 661 m 0
 211 684 235 698 246 698 c 0
 248 698 250 698 251 697 c 0
 252 696 253 694 253 692 c 0
 253 680 235 660 209 641 c 0
 186 623 175 610 175 600 c 0
 175 594 180 589 190 586 c 0
 211 578 223 559 223 544 c 0
 223 532 215 522 198 522 c 0
 169 522 155 549 155 580 c 0
 155 608 165 639 187 661 c 0
6 605 m 0
 6 633 9 648 14 648 c 0
 16 648 18 646 20 641 c 0
 23 632 25 618 25 605 c 0
 25 592 23 580 20 572 c 0
 18 566 15 563 13 563 c 0
 9 563 6 578 6 605 c 0
253 602 m 0
 253 638 256 641 270 605 c 0
 289 549 336 513 380 513 c 0
 393 513 405 516 417 522 c 0
 431 529 442 532 450 532 c 0
 460 532 465 526 465 511 c 0
 465 491 441 481 410 481 c 0
 372 481 323 496 292 522 c 0
 271 540 253 574 253 598 c 0
 253 600 253 601 253 602 c 0
9 430 m 0
 8 449 8 464 8 476 c 0
 8 497 9 508 12 508 c 0
 16 508 22 495 31 472 c 0
 38 453 42 430 42 410 c 0
 42 392 39 376 34 366 c 0
 30 359 27 356 24 356 c 0
 16 356 11 381 9 430 c 0
506 319 m 0
 465 355 467 355 523 327 c 0
 547 315 564 310 581 310 c 0
 599 310 615 317 634 330 c 0
 639 334 641 335 642 335 c 0
 643 335 643 335 643 335 c 0
 643 332 613 301 565 252 c 0
 508 197 465 142 465 126 c 0
 465 124 466 123 467 122 c 0
 476 111 462 111 437 122 c 0
 430 125 422 126 414 126 c 0
 387 126 356 112 326 88 c 0
 265 36 265 36 315 94 c 0
 335 118 347 145 347 160 c 0
 347 164 347 167 345 169 c 0
 344 170 343 172 343 172 c 0
 343 174 345 175 350 175 c 0
 357 175 368 173 384 169 c 0
 389 168 394 167 400 167 c 0
 430 167 465 186 498 219 c 0
 526 249 539 265 539 279 c 0
 539 291 528 302 506 319 c 0
6 244 m 0
 6 272 9 287 14 287 c 0
 16 287 18 285 20 280 c 0
 23 270 25 257 25 244 c 0
 25 232 23 219 20 211 c 0
 18 205 15 202 13 202 c 0
 9 202 6 217 6 244 c 0
234 277 m 0
 223 297 228 299 245 288 c 0
 256 282 260 270 260 256 c 0
 260 217 227 161 192 161 c 0
 186 161 184 163 184 168 c 0
 184 175 192 189 206 205 c 0
 226 222 237 247 237 264 c 0
 237 269 236 274 234 277 c 0
87 227 m 0
 87 232 86 236 86 240 c 0
 86 256 90 266 95 266 c 0
 97 266 99 265 101 263 c 0
 106 258 109 248 109 237 c 0
 109 228 107 219 103 211 c 0
 95 188 87 197 87 227 c 0
12 -6 m 0
 12 49 19 89 30 89 c 0
 32 89 33 89 34 88 c 0
 41 83 46 74 46 64 c 0
 46 58 44 52 40 47 c 0
 38 44 37 39 37 34 c 0
 37 16 51 -12 73 -37 c 0
 108 -77 127 -115 127 -138 c 0
 127 -153 119 -163 103 -163 c 0
 101 -163 98 -162 95 -162 c 0
 34 -153 15 -120 12 -6 c 0
101 -109 m 0
 102 -108 102 -107 102 -105 c 0
 102 -96 91 -78 73 -64 c 0
 59 -52 50 -46 44 -46 c 0
 40 -46 38 -50 38 -59 c 0
 38 -64 39 -72 40 -81 c 0
 45 -110 57 -126 72 -126 c 0
 80 -126 91 -120 101 -109 c 0
576 74 m 0
 603 91 640 102 653 102 c 0
 658 102 660 101 660 99 c 0
 660 94 647 83 626 72 c 0
 553 30 522 1 522 -32 c 0
 522 -46 527 -61 537 -78 c 0
 562 -128 562 -128 509 -76 c 0
 486 -52 474 -31 474 -17 c 0
 474 -10 476 -6 481 -3 c 0
 489 3 494 14 494 25 c 0
 494 33 492 41 487 49 c 0
 473 74 476 80 495 66 c 0
 502 62 512 60 522 60 c 0
 540 60 560 66 576 74 c 0
98 47 m 0
 123 91 140 83 120 36 c 0
 114 16 103 3 96 3 c 0
 95 3 93 3 92 5 c 0
 89 8 87 12 87 18 c 0
 87 26 91 37 98 47 c 0
181 -12 m 2
 219 28 236 45 244 45 c 0
 250 45 251 37 251 22 c 0
 251 8 223 -20 190 -37 c 2
 126 -70 l 1
 181 -12 l 2
195 -89 m 0
 221 -72 237 -64 244 -64 c 0
 247 -64 248 -65 248 -67 c 0
 248 -71 244 -78 237 -89 c 0
 228 -103 203 -117 187 -117 c 0
 167 -117 170 -106 195 -89 c 0
190 -164 m 0
 184 -162 181 -159 181 -158 c 0
 181 -153 196 -151 223 -151 c 0
 251 -151 266 -154 266 -158 c 0
 266 -160 264 -162 259 -164 c 0
 249 -167 236 -168 223 -168 c 0
 211 -168 198 -167 190 -164 c 0
412 -164 m 0
 390 -156 398 -148 428 -148 c 0
 433 -148 437 -147 441 -147 c 0
 458 -147 468 -151 468 -157 c 0
 468 -158 467 -160 465 -162 c 0
 460 -167 449 -170 438 -170 c 0
 429 -170 420 -168 412 -164 c 0
606 -164 m 0
 584 -156 592 -148 623 -148 c 0
 627 -148 631 -147 635 -147 c 0
 652 -147 662 -151 662 -157 c 0
 662 -158 661 -160 659 -162 c 0
 654 -167 644 -170 633 -170 c 0
 624 -170 615 -168 606 -164 c 0
EndSplineSet
Validated: 1
EndChar

StartChar: uni008A
Encoding: 138 138 138
Width: 667
VWidth: 0
Flags: HW
LayerCount: 3
Back
Fore
SplineSet
38.5 350 m 0
 54.5 376 63.5 389 73.5 389 c 0
 82.5 389 91.5 378 107.5 358 c 0
 125.5 336 135.5 325 144.5 325 c 0
 153.5 325 161.5 336 176.5 358 c 0
 192.5 379 201.5 390 210.5 390 c 0
 220.5 390 230.5 379 246.5 358 c 0
 262.5 336 272.5 325 282.5 325 c 0
 292.5 325 302.5 336 318.5 358 c 0
 334.5 379 344.5 390 354.5 390 c 0
 363.5 390 372.5 379 388.5 358 c 0
 403.5 336 412.5 325 421.5 325 c 0
 430.5 325 439.5 336 454.5 358 c 0
 470.5 379 478.5 390 488.5 390 c 0
 497.5 390 507.5 379 524.5 358 c 0
 540.5 336 550.5 325 560.5 325 c 0
 570.5 325 581.5 337 599.5 361 c 0
 617.5 383 627.5 394 634.5 394 c 0
 641.5 394 646.5 384 654.5 364 c 0
 660.5 352 662.5 338 662.5 326 c 0
 662.5 314 662.5 291 656.5 287 c 0
 650.5 281 557.5 279 442.5 279 c 0
 359.5 279 265.5 280 185.5 280 c 0
 83.5 280 4.5 283 4.5 289 c 0
 4.5 294 18.5 322 38.5 350 c 0
EndSplineSet
Validated: 1
EndChar

StartChar: uni008B
Encoding: 139 139 139
Width: 667
VWidth: 0
Flags: HW
LayerCount: 3
Back
Fore
SplineSet
542 703 m 0
 542 712 550 719 559 719 c 0
 568 719 576 712 576 703 c 0
 576 694 568 687 559 687 c 0
 550 687 542 694 542 703 c 0
398 757 m 0
 398 766 406 773 415 773 c 0
 424 773 432 766 432 757 c 0
 432 748 424 741 415 741 c 0
 406 741 398 748 398 757 c 0
318 701 m 0
 318 710 326 717 335 717 c 0
 344 717 352 710 352 701 c 0
 352 692 344 685 335 685 c 0
 326 685 318 692 318 701 c 0
178 759 m 0
 178 768 186 775 195 775 c 0
 204 775 212 768 212 759 c 0
 212 750 204 743 195 743 c 0
 186 743 178 750 178 759 c 0
94 705 m 0
 94 714 102 721 111 721 c 0
 120 721 128 714 128 705 c 0
 128 696 120 689 111 689 c 0
 102 689 94 696 94 705 c 0
370 509 m 0
 370 518 378 525 387 525 c 0
 396 525 404 518 404 509 c 0
 404 500 396 493 387 493 c 0
 378 493 370 500 370 509 c 0
512 507 m 0
 512 516 520 523 529 523 c 0
 538 523 546 516 546 507 c 0
 546 498 538 491 529 491 c 0
 520 491 512 498 512 507 c 0
318 481 m 0
 318 490 326 497 335 497 c 0
 344 497 352 490 352 481 c 0
 352 472 344 465 335 465 c 0
 326 465 318 472 318 481 c 0
262 513 m 0
 262 522 270 529 279 529 c 0
 288 529 296 522 296 513 c 0
 296 504 288 497 279 497 c 0
 270 497 262 504 262 513 c 0
176 563 m 0
 176 572 184 579 193 579 c 0
 202 579 210 572 210 563 c 0
 210 554 202 547 193 547 c 0
 184 547 176 554 176 563 c 0
124 511 m 0
 124 520 132 527 141 527 c 0
 150 527 158 520 158 511 c 0
 158 502 150 495 141 495 c 0
 132 495 124 502 124 511 c 0
596 609 m 0
 596 624 603 637 611 637 c 0
 619 637 626 624 626 609 c 0
 626 594 619 581 611 581 c 0
 603 581 596 594 596 609 c 0
404 607 m 0
 404 622 411 635 419 635 c 0
 427 635 434 622 434 607 c 0
 434 592 427 579 419 579 c 0
 411 579 404 592 404 607 c 0
292 603 m 0
 292 618 299 631 307 631 c 0
 315 631 322 618 322 603 c 0
 322 588 315 575 307 575 c 0
 299 575 292 588 292 603 c 0
43 608 m 0
 43 623 50 636 58 636 c 0
 66 636 73 623 73 608 c 0
 73 593 66 580 58 580 c 0
 50 580 43 593 43 608 c 0
69 413 m 0
 69 428 76 441 84 441 c 0
 92 441 99 428 99 413 c 0
 99 398 92 385 84 385 c 0
 76 385 69 398 69 413 c 0
594 342 m 0
 594 350 602 356 611 356 c 0
 620 356 628 350 628 342 c 0
 628 334 620 328 611 328 c 0
 602 328 594 334 594 342 c 0
596 149 m 0
 596 158 604 165 613 165 c 0
 622 165 630 158 630 149 c 0
 630 140 622 133 613 133 c 0
 604 133 596 140 596 149 c 0
37 119 m 0
 37 128 45 135 54 135 c 0
 63 135 71 128 71 119 c 0
 71 110 63 103 54 103 c 0
 45 103 37 110 37 119 c 0
115 351 m 0
 147 403 195 431 235 431 c 0
 265 431 291 416 304 384 c 0
 312 360 318 349 324 349 c 0
 332 349 340 360 357 384 c 0
 376 409 418 431 446 431 c 0
 504 431 596 301 596 220 c 0
 596 198 595 187 590 187 c 0
 585 187 575 199 557 223 c 0
 538 249 525 276 525 287 c 0
 525 289 525 291 526 292 c 0
 526 293 527 293 527 294 c 0
 527 302 496 306 457 306 c 0
 418 306 389 299 389 289 c 0
 389 289 390 288 390 287 c 0
 392 284 392 281 392 278 c 0
 392 269 386 259 374 251 c 0
 360 242 346 198 346 151 c 0
 346 78 354 70 440 70 c 0
 549 70 625 3 625 -68 c 0
 625 -95 614 -123 590 -147 c 0
 568 -169 457 -180 346 -180 c 0
 235 -180 124 -169 101 -147 c 0
 78 -124 68 -97 68 -70 c 0
 68 0 139 70 238 70 c 0
 307 70 318 81 318 151 c 0
 318 195 301 242 285 256 c 0
 252 281 177 306 147 306 c 0
 138 306 133 304 133 300 c 0
 133 298 134 297 135 295 c 0
 136 294 136 292 136 289 c 0
 136 276 125 248 107 223 c 0
 89 199 79 187 74 187 c 0
 69 187 68 198 68 220 c 0
 68 248 90 306 115 351 c 0
321 -5 m 0
 320 28 285 44 246 44 c 0
 203 44 155 26 132 -10 c 0
 118 -30 112 -53 112 -67 c 0
 112 -73 113 -78 115 -80 c 0
 127 -92 204 -97 291 -97 c 0
 408 -97 542 -88 551 -72 c 0
 557 -65 559 -55 559 -44 c 0
 559 -30 556 -15 551 -2 c 0
 539 29 492 45 445 45 c 0
 395 45 346 28 338 -5 c 0
 326 -52 324 -52 321 -5 c 0
EndSplineSet
Validated: 1
EndChar

StartChar: uni008C
Encoding: 140 140 140
Width: 667
VWidth: 0
Flags: HW
LayerCount: 3
Back
Fore
SplineSet
404 435 m 0
 431 475 464 494 495 494 c 0
 536 494 573 462 590 401 c 0
 615 312 638 171 654 -29 c 2
 665 -154 l 1
 643 -38 l 2
 626 58 612 101 587 101 c 0
 569 101 547 82 515 48 c 0
 484 15 469 -7 469 -22 c 0
 469 -30 473 -36 482 -40 c 0
 487 -42 489 -44 489 -45 c 0
 489 -46 487 -47 484 -47 c 0
 476 -47 461 -44 440 -40 c 0
 422 -36 408 -34 397 -34 c 0
 371 -34 363 -46 363 -71 c 0
 363 -98 370 -108 395 -108 c 0
 406 -108 421 -106 440 -102 c 0
 459 -97 473 -95 481 -95 c 0
 486 -95 489 -96 489 -97 c 0
 489 -100 486 -103 479 -107 c 0
 453 -124 363 -133 280 -133 c 0
 204 -133 135 -126 124 -110 c 0
 122 -106 121 -101 121 -96 c 0
 121 -78 131 -54 149 -35 c 0
 168 -16 180 -6 195 -6 c 0
 211 -6 230 -17 263 -40 c 0
 292 -59 312 -68 322 -68 c 0
 329 -68 332 -65 332 -59 c 0
 332 -47 320 -25 296 7 c 0
 272 37 226 53 190 53 c 0
 162 53 140 43 140 21 c 0
 140 4 132 -2 124 7 c 0
 120 11 118 17 118 23 c 0
 118 35 124 50 135 62 c 0
 147 76 152 89 152 101 c 0
 152 122 134 137 104 137 c 0
 94 137 88 114 88 83 c 0
 88 72 89 60 90 48 c 0
 95 19 97 -7 97 -28 c 0
 97 -86 79 -113 40 -113 c 0
 16 -113 3 -101 3 -87 c 0
 3 -73 15 -57 38 -46 c 0
 50 -39 57 -34 57 -30 c 0
 57 -25 50 -20 38 -13 c 0
 15 -2 2 51 2 96 c 0
 2 133 11 165 29 165 c 0
 46 165 57 187 57 218 c 0
 57 271 108 325 147 325 c 0
 154 325 160 324 165 321 c 0
 168 319 172 318 176 318 c 0
 188 318 201 329 207 348 c 0
 216 373 235 385 266 385 c 0
 274 385 283 384 293 382 c 0
 304 380 313 378 322 378 c 0
 356 378 380 396 404 435 c 0
557 354 m 0
 555 392 540 413 517 413 c 0
 502 413 483 404 463 385 c 0
 439 361 425 347 425 340 c 0
 425 332 443 332 482 332 c 0
 524 332 557 340 557 354 c 0
363 243 m 0
 363 290 346 304 288 304 c 0
 248 302 229 302 229 296 c 0
 229 292 242 284 265 271 c 0
 296 254 329 226 340 210 c 0
 344 205 348 203 351 203 c 0
 358 203 363 217 363 243 c 0
538 223 m 0
 528 258 508 276 485 276 c 0
 462 276 438 258 418 223 c 0
 402 191 393 171 393 158 c 0
 393 140 412 137 454 137 c 0
 519 137 544 147 544 184 c 0
 544 195 542 208 538 223 c 0
143 223 m 0
 134 210 126 203 120 203 c 0
 114 203 109 208 104 218 c 0
 93 240 90 240 96 215 c 0
 102 187 120 172 137 172 c 0
 154 172 168 185 168 212 c 0
 168 251 163 254 143 223 c 0
318 148 m 0
 307 176 267 193 236 193 c 0
 214 193 196 185 196 165 c 0
 196 140 283 93 318 93 c 0
 323 93 327 94 329 96 c 0
 330 96 330 98 330 101 c 0
 330 110 326 129 318 148 c 0
446 29 m 0
 446 43 421 54 390 54 c 0
 360 54 335 37 335 15 c 0
 335 -4 346 -13 366 -13 c 0
 373 -13 381 -12 390 -10 c 0
 421 -2 446 15 446 29 c 0
546 12 m 0
 554 32 559 41 566 41 c 0
 572 41 579 35 588 21 c 0
 604 -4 611 -37 611 -65 c 0
 611 -106 597 -140 571 -140 c 0
 543 -140 528 -113 528 -73 c 0
 528 -48 534 -19 546 12 c 0
576 -90 m 0
 580 -82 582 -73 582 -64 c 0
 582 -53 579 -43 574 -38 c 0
 572 -36 570 -35 568 -35 c 0
 563 -35 559 -45 559 -61 c 0
 559 -65 560 -69 560 -74 c 0
 560 -104 568 -113 576 -90 c 0
EndSplineSet
Validated: 1
EndChar

StartChar: uni008D
Encoding: 141 141 141
Width: 667
VWidth: 0
Flags: HW
LayerCount: 3
Back
Fore
SplineSet
38 741 m 0
 38 760 42 770 50 770 c 0
 51 770 51 770 52 770 c 0
 70 770 65 768 126 663 c 0
 179 571 229 496 240 496 c 0
 254 496 279 458 299 410 c 2
 335 324 l 1
 387 424 l 2
 415 480 449 524 460 524 c 0
 471 524 514 595 560 677 c 0
 605 757 624 773 631 773 c 0
 632 773 632 773 632 773 c 0
 633 772 633 771 633 770 c 0
 633 733 489 496 468 496 c 0
 457 496 429 455 404 405 c 0
 385 363 375 338 375 314 c 0
 375 291 385 269 404 233 c 0
 426 185 462 138 479 121 c 0
 516 90 651 -140 651 -167 c 0
 651 -169 650 -170 649 -170 c 0
 640 -170 599 -112 557 -40 c 0
 515 33 462 113 437 138 c 0
 415 163 382 205 365 235 c 0
 352 257 343 269 335 269 c 0
 325 269 316 252 301 213 c 0
 285 169 262 135 249 135 c 0
 235 135 207 102 187 58 c 0
 126 -62 46 -170 21 -170 c 0
 18 -170 16 -168 16 -165 c 0
 16 -155 34 -128 62 -98 c 0
 101 -56 132 -9 132 10 c 0
 132 30 160 74 196 113 c 0
 276 203 309 256 309 306 c 0
 309 328 304 348 293 371 c 0
 276 410 254 441 243 441 c 0
 235 441 185 516 132 608 c 0
 79 699 74 713 60 713 c 0
 49 713 38 727 38 741 c 0
EndSplineSet
Validated: 1
EndChar

StartChar: uni008E
Encoding: 142 142 142
Width: 667
VWidth: 0
Flags: HW
LayerCount: 3
Back
Fore
SplineSet
272 642 m 0
 290 648 312 650 335 650 c 0
 403 650 481 628 514 595 c 0
 536 573 570 550 589 542 c 0
 597 540 600 535 600 529 c 0
 600 514 580 489 542 456 c 0
 473 396 423 366 369 366 c 0
 322 366 272 389 203 434 c 2
 72 520 l 1
 147 553 l 2
 189 573 222 598 222 609 c 0
 222 620 245 636 272 642 c 0
4 300 m 0
 4 411 11 495 28 495 c 0
 45 495 117 453 195 406 c 2
 331 314 l 1
 331 314 336 187 336 106 c 0
 336 70 334 24 334 -15 c 0
 334 -53 336 -83 345 -85 c 0
 346 -85 346 -85 347 -85 c 0
 361 -85 364 -44 364 3 c 0
 364 34 362 68 362 95 c 0
 362 118 361 138 361 156 c 0
 361 302 378 307 439 339 c 0
 481 361 539 403 567 436 c 0
 597 470 631 495 645 495 c 0
 656 495 664 402 664 294 c 0
 664 60 631.93562245 -3.95489507067 458 -86 c 0
 405 -111 376 -124 349 -124 c 0
 322 -124 297 -112 250 -89 c 0
 197 -61 119.405311611 -8.63079825606 78 31 c 0
 8 98 4 120 4 300 c 0
EndSplineSet
Validated: 1
EndChar

StartChar: uni008F
Encoding: 143 143 143
Width: 667
VWidth: 0
Flags: HW
LayerCount: 3
Back
Fore
SplineSet
38 741 m 0
 38 760 42 770 50 770 c 0
 51 770 51 770 52 770 c 0
 70 770 65 768 126 663 c 0
 179 571 229 496 240 496 c 0
 254 496 279 458 299 410 c 2
 335 324 l 1
 387 424 l 2
 415 480 449 524 460 524 c 0
 471 524 514 595 560 677 c 0
 605 757 624 773 631 773 c 0
 632 773 632 773 632 773 c 0
 633 772 633 771 633 770 c 0
 633 733 489 496 468 496 c 0
 457 496 429 455 404 405 c 0
 385 363 375 338 375 314 c 0
 375 291 385 269 404 233 c 0
 426 185 462 138 479 121 c 0
 516 90 651 -140 651 -167 c 0
 651 -169 650 -170 649 -170 c 0
 640 -170 599 -112 557 -40 c 0
 515 33 462 113 437 138 c 0
 415 163 382 205 365 235 c 0
 352 257 343 269 335 269 c 0
 325 269 316 252 301 213 c 0
 285 169 262 135 249 135 c 0
 235 135 207 102 187 58 c 0
 126 -62 46 -170 21 -170 c 0
 18 -170 16 -168 16 -165 c 0
 16 -155 34 -128 62 -98 c 0
 101 -56 132 -9 132 10 c 0
 132 30 160 74 196 113 c 0
 276 203 309 256 309 306 c 0
 309 328 304 348 293 371 c 0
 276 410 254 441 243 441 c 0
 235 441 185 516 132 608 c 0
 79 699 74 713 60 713 c 0
 49 713 38 727 38 741 c 0
EndSplineSet
Validated: 1
EndChar

StartChar: uni0090
Encoding: 144 144 144
Width: 667
VWidth: 0
Flags: HW
LayerCount: 3
Back
Fore
SplineSet
38 741 m 0
 38 760 42 770 50 770 c 0
 51 770 51 770 52 770 c 0
 70 770 65 768 126 663 c 0
 179 571 229 496 240 496 c 0
 254 496 279 458 299 410 c 2
 335 324 l 1
 387 424 l 2
 415 480 449 524 460 524 c 0
 471 524 514 595 560 677 c 0
 605 757 624 773 631 773 c 0
 632 773 632 773 632 773 c 0
 633 772 633 771 633 770 c 0
 633 733 489 496 468 496 c 0
 457 496 429 455 404 405 c 0
 385 363 375 338 375 314 c 0
 375 291 385 269 404 233 c 0
 426 185 462 138 479 121 c 0
 516 90 651 -140 651 -167 c 0
 651 -169 650 -170 649 -170 c 0
 640 -170 599 -112 557 -40 c 0
 515 33 462 113 437 138 c 0
 415 163 382 205 365 235 c 0
 352 257 343 269 335 269 c 0
 325 269 316 252 301 213 c 0
 285 169 262 135 249 135 c 0
 235 135 207 102 187 58 c 0
 126 -62 46 -170 21 -170 c 0
 18 -170 16 -168 16 -165 c 0
 16 -155 34 -128 62 -98 c 0
 101 -56 132 -9 132 10 c 0
 132 30 160 74 196 113 c 0
 276 203 309 256 309 306 c 0
 309 328 304 348 293 371 c 0
 276 410 254 441 243 441 c 0
 235 441 185 516 132 608 c 0
 79 699 74 713 60 713 c 0
 49 713 38 727 38 741 c 0
EndSplineSet
Validated: 1
EndChar

StartChar: uni0091
Encoding: 145 145 145
Width: 667
VWidth: -20
Flags: HW
LayerCount: 3
Back
Fore
SplineSet
111.5 197 m 0
 111.5 213 105.5 224 97.5 224 c 0
 90.5 224 83.5 213 83.5 197 c 0
 83.5 183 90.5 169 97.5 169 c 0
 105.5 169 111.5 183 111.5 197 c 0
389.5 4 m 0
 389.5 20 383.5 31 375.5 31 c 0
 368.5 31 361.5 20 361.5 4 c 0
 361.5 -10 368.5 -24 375.5 -24 c 0
 383.5 -24 389.5 -10 389.5 4 c 0
583.5 4 m 0
 583.5 20 577.5 31 569.5 31 c 0
 562.5 31 555.5 20 555.5 4 c 0
 555.5 -10 562.5 -24 569.5 -24 c 0
 577.5 -24 583.5 -10 583.5 4 c 0
280.5 266 m 0
 280.5 275 268.5 281 251.5 281 c 0
 236.5 281 221.5 275 221.5 266 c 0
 221.5 258 236.5 250 251.5 250 c 0
 268.5 250 280.5 258 280.5 266 c 0
195.5 127 m 0
 195.5 136 183.5 142 166.5 142 c 0
 151.5 142 136.5 136 136.5 127 c 0
 136.5 119 151.5 111 166.5 111 c 0
 183.5 111 195.5 119 195.5 127 c 0
279.5 -151 m 0
 279.5 -142 267.5 -136 250.5 -136 c 0
 235.5 -136 220.5 -142 220.5 -151 c 0
 220.5 -159 235.5 -167 250.5 -167 c 0
 267.5 -167 279.5 -159 279.5 -151 c 0
84.5 586 m 0
 84.5 602 78.5 613 70.5 613 c 0
 63.5 613 56.5 602 56.5 586 c 0
 56.5 573 63.5 559 70.5 559 c 0
 78.5 559 84.5 573 84.5 586 c 0
556.5 392 m 0
 556.5 408 550.5 419 542.5 419 c 0
 535.5 419 528.5 408 528.5 392 c 0
 528.5 378 535.5 364 542.5 364 c 0
 550.5 364 556.5 378 556.5 392 c 0
612.5 586 m 0
 612.5 602 606.5 613 598.5 613 c 0
 591.5 613 584.5 602 584.5 586 c 0
 584.5 573 591.5 559 598.5 559 c 0
 606.5 559 612.5 573 612.5 586 c 0
529.5 586 m 0
 529.5 602 523.5 613 515.5 613 c 0
 508.5 613 501.5 602 501.5 586 c 0
 501.5 573 508.5 559 515.5 559 c 0
 523.5 559 529.5 573 529.5 586 c 0
502.5 703 m 0
 502.5 712 490.5 718 473.5 718 c 0
 458.5 718 443.5 712 443.5 703 c 0
 443.5 695 458.5 687 473.5 687 c 0
 490.5 687 502.5 695 502.5 703 c 0
615.5 488 m 0
 615.5 498 608.5 505 598.5 505 c 0
 589.5 505 580.5 498 580.5 488 c 0
 580.5 479 589.5 470 598.5 470 c 0
 608.5 470 615.5 479 615.5 488 c 0
531.5 295 m 0
 531.5 305 524.5 312 514.5 312 c 0
 505.5 312 496.5 305 496.5 295 c 0
 496.5 286 505.5 277 514.5 277 c 0
 524.5 277 531.5 286 531.5 295 c 0
643.5 350 m 0
 643.5 360 636.5 367 626.5 367 c 0
 617.5 367 608.5 360 608.5 350 c 0
 608.5 341 617.5 332 626.5 332 c 0
 636.5 332 643.5 341 643.5 350 c 0
532.5 72 m 0
 532.5 82 525.5 89 515.5 89 c 0
 506.5 89 497.5 82 497.5 72 c 0
 497.5 63 506.5 54 515.5 54 c 0
 525.5 54 532.5 63 532.5 72 c 0
587.5 238 m 0
 587.5 248 580.5 255 570.5 255 c 0
 561.5 255 552.5 248 552.5 238 c 0
 552.5 229 561.5 220 570.5 220 c 0
 580.5 220 587.5 229 587.5 238 c 0
587.5 100 m 0
 587.5 110 580.5 117 570.5 117 c 0
 561.5 117 552.5 110 552.5 100 c 0
 552.5 91 561.5 82 570.5 82 c 0
 580.5 82 587.5 91 587.5 100 c 0
614.5 -95 m 0
 614.5 -85 607.5 -78 597.5 -78 c 0
 588.5 -78 579.5 -85 579.5 -95 c 0
 579.5 -104 588.5 -113 597.5 -113 c 0
 607.5 -113 614.5 -104 614.5 -95 c 0
447.5 -151 m 0
 447.5 -141 440.5 -134 430.5 -134 c 0
 421.5 -134 412.5 -141 412.5 -151 c 0
 412.5 -160 421.5 -169 430.5 -169 c 0
 440.5 -169 447.5 -160 447.5 -151 c 0
393.5 -95 m 0
 393.5 -85 386.5 -78 376.5 -78 c 0
 367.5 -78 358.5 -85 358.5 -95 c 0
 358.5 -104 367.5 -113 376.5 -113 c 0
 386.5 -113 393.5 -104 393.5 -95 c 0
337.5 -67 m 0
 337.5 -57 330.5 -50 320.5 -50 c 0
 311.5 -50 302.5 -57 302.5 -67 c 0
 302.5 -76 311.5 -85 320.5 -85 c 0
 330.5 -85 337.5 -76 337.5 -67 c 0
115.5 -151 m 0
 115.5 -141 108.5 -134 98.5 -134 c 0
 89.5 -134 80.5 -141 80.5 -151 c 0
 80.5 -160 89.5 -169 98.5 -169 c 0
 108.5 -169 115.5 -160 115.5 -151 c 0
115.5 -39 m 0
 115.5 -29 108.5 -22 98.5 -22 c 0
 89.5 -22 80.5 -29 80.5 -39 c 0
 80.5 -48 89.5 -57 98.5 -57 c 0
 108.5 -57 115.5 -48 115.5 -39 c 0
393.5 100 m 0
 393.5 110 386.5 117 376.5 117 c 0
 367.5 117 358.5 110 358.5 100 c 0
 358.5 91 367.5 82 376.5 82 c 0
 386.5 82 393.5 91 393.5 100 c 0
448.5 295 m 0
 448.5 305 441.5 312 431.5 312 c 0
 422.5 312 413.5 305 413.5 295 c 0
 413.5 286 422.5 277 431.5 277 c 0
 441.5 277 448.5 286 448.5 295 c 0
393.5 322 m 0
 393.5 332 386.5 339 376.5 339 c 0
 367.5 339 358.5 332 358.5 322 c 0
 358.5 313 367.5 304 376.5 304 c 0
 386.5 304 393.5 313 393.5 322 c 0
365.5 267 m 0
 365.5 277 358.5 284 348.5 284 c 0
 339.5 284 330.5 277 330.5 267 c 0
 330.5 258 339.5 249 348.5 249 c 0
 358.5 249 365.5 258 365.5 267 c 0
309.5 155 m 0
 309.5 165 302.5 172 292.5 172 c 0
 283.5 172 274.5 165 274.5 155 c 0
 274.5 146 283.5 137 292.5 137 c 0
 302.5 137 309.5 146 309.5 155 c 0
309.5 71 m 0
 309.5 81 302.5 88 292.5 88 c 0
 283.5 88 274.5 81 274.5 71 c 0
 274.5 62 283.5 53 292.5 53 c 0
 302.5 53 309.5 62 309.5 71 c 0
142.5 71 m 0
 142.5 81 135.5 88 125.5 88 c 0
 116.5 88 107.5 81 107.5 71 c 0
 107.5 62 116.5 53 125.5 53 c 0
 135.5 53 142.5 62 142.5 71 c 0
115.5 683 m 0
 115.5 693 108.5 700 98.5 700 c 0
 89.5 700 80.5 693 80.5 683 c 0
 80.5 674 89.5 665 98.5 665 c 0
 108.5 665 115.5 674 115.5 683 c 0
170.5 738 m 0
 170.5 748 163.5 755 153.5 755 c 0
 144.5 755 135.5 748 135.5 738 c 0
 135.5 729 144.5 720 153.5 720 c 0
 163.5 720 170.5 729 170.5 738 c 0
226.5 710 m 0
 226.5 720 219.5 727 209.5 727 c 0
 200.5 727 191.5 720 191.5 710 c 0
 191.5 701 200.5 692 209.5 692 c 0
 219.5 692 226.5 701 226.5 710 c 0
337.5 655 m 0
 337.5 665 330.5 672 320.5 672 c 0
 311.5 672 302.5 665 302.5 655 c 0
 302.5 646 311.5 637 320.5 637 c 0
 330.5 637 337.5 646 337.5 655 c 0
142.5 294 m 0
 142.5 304 135.5 311 125.5 311 c 0
 116.5 311 107.5 304 107.5 294 c 0
 107.5 285 116.5 276 125.5 276 c 0
 135.5 276 142.5 285 142.5 294 c 0
198.5 349 m 0
 198.5 359 191.5 366 181.5 366 c 0
 172.5 366 163.5 359 163.5 349 c 0
 163.5 340 172.5 331 181.5 331 c 0
 191.5 331 198.5 340 198.5 349 c 0
143.5 461 m 0
 143.5 471 136.5 478 126.5 478 c 0
 117.5 478 108.5 471 108.5 461 c 0
 108.5 452 117.5 443 126.5 443 c 0
 136.5 443 143.5 452 143.5 461 c 0
226.5 461 m 0
 226.5 471 219.5 478 209.5 478 c 0
 200.5 478 191.5 471 191.5 461 c 0
 191.5 452 200.5 443 209.5 443 c 0
 219.5 443 226.5 452 226.5 461 c 0
309.5 544 m 0
 309.5 554 302.5 561 292.5 561 c 0
 283.5 561 274.5 554 274.5 544 c 0
 274.5 535 283.5 526 292.5 526 c 0
 302.5 526 309.5 535 309.5 544 c 0
448.5 433 m 0
 448.5 443 441.5 450 431.5 450 c 0
 422.5 450 413.5 443 413.5 433 c 0
 413.5 424 422.5 415 431.5 415 c 0
 441.5 415 448.5 424 448.5 433 c 0
392.5 460 m 0
 392.5 470 385.5 477 375.5 477 c 0
 366.5 477 357.5 470 357.5 460 c 0
 357.5 451 366.5 442 375.5 442 c 0
 385.5 442 392.5 451 392.5 460 c 0
531.5 488 m 0
 531.5 498 524.5 505 514.5 505 c 0
 505.5 505 496.5 498 496.5 488 c 0
 496.5 479 505.5 470 514.5 470 c 0
 524.5 470 531.5 479 531.5 488 c 0
420.5 544 m 0
 420.5 554 413.5 561 403.5 561 c 0
 394.5 561 385.5 554 385.5 544 c 0
 385.5 535 394.5 526 403.5 526 c 0
 413.5 526 420.5 535 420.5 544 c 0
364.5 710 m 0
 364.5 720 357.5 727 347.5 727 c 0
 338.5 727 329.5 720 329.5 710 c 0
 329.5 701 338.5 692 347.5 692 c 0
 357.5 692 364.5 701 364.5 710 c 0
420.5 738 m 0
 420.5 748 413.5 755 403.5 755 c 0
 394.5 755 385.5 748 385.5 738 c 0
 385.5 729 394.5 720 403.5 720 c 0
 413.5 720 420.5 729 420.5 738 c 0
448.5 655 m 0
 448.5 665 441.5 672 431.5 672 c 0
 422.5 672 413.5 665 413.5 655 c 0
 413.5 646 422.5 637 431.5 637 c 0
 441.5 637 448.5 646 448.5 655 c 0
4.5 750 m 0
 4.5 783 21.5 792 37.5 792 c 0
 49.5 792 59.5 782 62.5 758 c 0
 62.5 730 68.5 730 79.5 758 c 0
 84.5 775 120.5 792 156.5 792 c 0
 193.5 792 229.5 775 237.5 758 c 0
 244.5 744 249.5 737 254.5 737 c 0
 258.5 737 263.5 744 270.5 758 c 0
 279.5 775 320.5 792 365.5 792 c 0
 409.5 792 451.5 775 459.5 758 c 0
 466.5 744 471.5 737 476.5 737 c 0
 481.5 737 486.5 744 493.5 758 c 0
 501.5 775 526.5 792 548.5 792 c 0
 570.5 792 587.5 775 590.5 758 c 0
 590.5 730 595.5 730 606.5 758 c 0
 615.5 781 623.5 793 630.5 793 c 0
 653.5 793 662.5 654 662.5 305 c 2
 662.5 -192 l 1
 381.5 -195 l 2
 226.5 -195 79.5 -189 54.5 -181 c 0
 23.5 -172 6.5 -143 6.5 -120 c 0
 6.5 -101 17.5 -85 40.5 -84 c 0
 68.5 -84 68.5 -78 40.5 -67 c 0
 20.5 -61 4.5 -31 4.5 0 c 0
 4.5 28 20.5 53 40.5 53 c 0
 62.5 53 59.5 64 31.5 80 c 0
 13.5 92 4.5 100 4.5 108 c 0
 4.5 116 13.5 124 31.5 136 c 0
 59.5 153 62.5 164 40.5 164 c 0
 20.5 164 4.5 194 4.5 233 c 0
 4.5 272 20.5 303 40.5 305 c 0
 68.5 305 68.5 311 40.5 322 c 0
 20.5 328 4.5 353 4.5 375 c 0
 4.5 397 20.5 414 40.5 414 c 0
 62.5 414 59.5 425 31.5 441 c 0
 13.5 454 4.5 461 4.5 469 c 0
 4.5 477 13.5 484 31.5 497 c 0
 59.5 514 62.5 525 40.5 525 c 0
 16.5 525 5.5 560 5.5 595 c 0
 5.5 630 16.5 665 40.5 666 c 0
 68.5 666 68.5 672 40.5 683 c 0
 20.5 689 4.5 719 4.5 750 c 0
587.5 664 m 0
 587.5 680 576.5 691 559.5 691 c 0
 545.5 691 531.5 680 531.5 664 c 0
 531.5 650 545.5 636 559.5 636 c 0
 576.5 636 587.5 650 587.5 664 c 0
198.5 594 m 0
 198.5 616 187.5 636 170.5 636 c 0
 156.5 636 143.5 616 143.5 594 c 0
 143.5 572 156.5 553 170.5 553 c 0
 187.5 553 198.5 572 198.5 594 c 0
337.5 372 m 0
 337.5 394 326.5 414 309.5 414 c 0
 295.5 414 281.5 394 281.5 372 c 0
 281.5 350 295.5 330 309.5 330 c 0
 326.5 330 337.5 350 337.5 372 c 0
504.5 178 m 0
 504.5 200 484.5 219 462.5 219 c 0
 440.5 219 420.5 200 420.5 178 c 0
 420.5 155 440.5 136 462.5 136 c 0
 484.5 136 504.5 155 504.5 178 c 0
504.5 -3 m 0
 504.5 14 493.5 25 476.5 25 c 0
 462.5 25 448.5 14 448.5 -3 c 0
 448.5 -17 462.5 -31 476.5 -31 c 0
 493.5 -31 504.5 -17 504.5 -3 c 0
226.5 -59 m 0
 226.5 -42 215.5 -31 198.5 -31 c 0
 184.5 -31 170.5 -42 170.5 -59 c 0
 170.5 -72 184.5 -86 198.5 -86 c 0
 215.5 -86 226.5 -72 226.5 -59 c 0
559.5 -86 m 0
 559.5 -70 548.5 -59 531.5 -59 c 0
 518.5 -59 504.5 -70 504.5 -86 c 0
 504.5 -100 518.5 -114 531.5 -114 c 0
 548.5 -114 559.5 -100 559.5 -86 c 0
EndSplineSet
Validated: 1
EndChar

StartChar: uni0092
Encoding: 146 146 146
Width: 667
VWidth: -20
Flags: HW
LayerCount: 3
Back
Fore
SplineSet
622 -174 m 0
 622 -165 632 -158 645 -158 c 0
 658 -158 665 -165 665 -174 c 0
 665 -183 658 -190 645 -190 c 0
 632 -190 622 -183 622 -174 c 0
2 763 m 0
 2 779 130 791 332 791 c 0
 596 791 665 789 665 736 c 0
 665 719 660 714 649 686 c 0
 637 656 612 642 586 642 c 0
 556 642 525 661 513 697 c 0
 505 728 485 753 471 753 c 0
 457 753 438 728 430 697 c 0
 421 667 388 642 360 642 c 0
 332 642 299 667 291 697 c 0
 282 728 263 753 249 753 c 0
 235 753 216 728 207 697 c 0
 199 667 166 642 138 642 c 0
 110 642 76 667 68 697 c 0
 60 728 38 735 24 735 c 0
 10 735 2 749 2 763 c 0
2 572 m 0
 2 616 15 641 33 641 c 0
 46 641 61 628 71 600 c 0
 81 574 104 561 129 561 c 0
 156 561 187 577 210 609 c 0
 228 631 238 642 249 642 c 0
 260 642 270 631 288 609 c 0
 307 581 341 559 360 559 c 0
 380 559 413 581 432 609 c 0
 450 631 460 642 471 642 c 0
 482 642 492 631 510 609 c 0
 533 577 566 560 594 560 c 0
 617 560 637 571 646 595 c 0
 649 601 652 604 654 604 c 0
 660 604 663 582 663 552 c 0
 663 514 658 463 649 428 c 0
 637 386 610 365 583 365 c 0
 555 365 527 388 516 434 c 0
 505 472 485 503 471 503 c 0
 457 503 438 472 427 434 c 0
 416 392 391 364 360 364 c 0
 330 364 305 392 293 434 c 0
 282 472 263 503 249 503 c 0
 235 503 216 472 205 434 c 0
 193 392 168 364 138 364 c 0
 107 364 82 392 71 434 c 0
 60 472 41 503 27 503 c 0
 10 503 2 534 2 572 c 0
2 309 m 0
 2 313 2 317 2 320 c 0
 2 348 3 361 17 361 c 0
 29 361 49 350 82 331 c 0
 104 317 121 310 138 310 c 0
 154 310 171 317 193 331 c 0
 216 345 232 352 249 352 c 0
 266 352 282 345 305 331 c 0
 327 317 344 310 360 310 c 0
 377 310 394 317 418 331 c 0
 441 345 458 352 474 352 c 0
 488 352 501 346 516 334 c 0
 532 322 559 314 584 314 c 0
 593 314 602 315 610 317 c 0
 620 320 629 321 636 321 c 0
 659 321 665 308 665 269 c 0
 665 169 638 114 580 114 c 0
 546 114 521 139 510 184 c 0
 502 222 482 253 471 253 c 0
 460 253 441 222 432 184 c 0
 420 136 390 113 360 113 c 0
 330 113 300 136 288 184 c 0
 280 222 260 253 249 253 c 0
 238 253 218 222 210 184 c 0
 198 136 168 113 138 113 c 0
 108 113 78 136 66 184 c 0
 57 222 38 253 24 253 c 0
 10 253 2 278 2 309 c 0
2 45 m 0
 2 91 2 112 18 112 c 0
 31 112 50 101 82 81 c 0
 104 67 121 60 138 60 c 0
 154 60 171 67 193 81 c 0
 216 95 232 102 249 102 c 0
 266 102 282 95 305 81 c 0
 327 67 344 60 360 60 c 0
 377 60 394 67 418 81 c 0
 441 95 458 102 474 102 c 0
 488 102 501 96 516 84 c 0
 532 72 559 64 584 64 c 0
 593 64 602 65 610 67 c 0
 620 70 629 71 636 71 c 0
 659 71 665 53 665 14 c 0
 665 -86 638 -136 582 -136 c 0
 555 -136 521 -111 513 -80 c 0
 502 -44 487 -26 472 -26 c 0
 456 -26 441 -44 430 -80 c 0
 421 -111 388 -136 360 -136 c 0
 332 -136 299 -111 291 -80 c 0
 282 -50 263 -25 249 -25 c 0
 235 -25 216 -50 207 -80 c 0
 199 -111 166 -136 138 -136 c 0
 110 -136 77 -111 68 -80 c 0
 60 -50 38 -25 24 -25 c 0
 10 -25 2 6 2 45 c 0
2 -164 m 0
 2 -147 10 -136 24 -136 c 0
 41 -136 60 -147 68 -164 c 0
 70 -167 71 -171 71 -174 c 0
 71 -183 61 -191 43 -191 c 0
 18 -191 2 -178 2 -164 c 0
207 -164 m 0
 216 -147 235 -136 249 -136 c 0
 263 -136 282 -147 291 -164 c 0
 292 -166 293 -169 293 -171 c 0
 293 -182 277 -191 249 -191 c 0
 221 -191 205 -182 205 -171 c 0
 205 -169 206 -166 207 -164 c 0
430 -164 m 0
 438 -147 457 -136 471 -136 c 0
 485 -136 505 -147 513 -164 c 0
 514 -166 515 -169 515 -171 c 0
 515 -182 499 -191 471 -191 c 0
 444 -191 428 -182 428 -171 c 0
 428 -169 428 -167 430 -164 c 0
EndSplineSet
Validated: 1
EndChar

StartChar: uni0093
Encoding: 147 147 147
Width: 667
VWidth: 0
Flags: HW
LayerCount: 3
Back
Fore
SplineSet
143.5 219 m 0
 143.5 235 137.5 250 127.5 250 c 0
 119.5 250 112.5 235 112.5 219 c 0
 112.5 203 119.5 189 127.5 189 c 0
 137.5 189 143.5 203 143.5 219 c 0
290.5 599 m 0
 298.5 636 310.5 654 323.5 654 c 0
 341.5 654 359.5 617 362.5 555 c 0
 365.5 521 371.5 495 377.5 495 c 0
 378.5 495 378.5 495 379.5 496 c 0
 380.5 497 382.5 498 384.5 498 c 0
 408.5 498 480.5 405 534.5 302 c 2
 590.5 202 l 1
 471.5 88 l 2
 407.5 24 354.5 -40 354.5 -56 c 0
 354.5 -58 353.5 -58 352.5 -58 c 0
 339.5 -58 284.5 -14 215.5 52 c 0
 140.5 127 76.5 205 76.5 224 c 0
 76.5 260 234.5 508 257.5 508 c 0
 262.5 508 264.5 505 264.5 499 c 0
 264.5 474 225.5 406 196.5 388 c 0
 173.5 374 161.5 361 161.5 351 c 0
 161.5 336 184.5 326 229.5 324 c 0
 237.5 323 245.5 323 251.5 323 c 0
 279.5 323 289.5 331 289.5 363 c 0
 289.5 378 287.5 396 284.5 421 c 0
 282.5 440 282.5 461 282.5 483 c 0
 282.5 527 285.5 572 290.5 599 c 0
462.5 349 m 0
 440.5 369 409.5 399 393.5 419 c 0
 382.5 431 373.5 437 366.5 437 c 0
 358.5 437 351.5 428 343.5 408 c 0
 334.5 384 329.5 366 329.5 353 c 0
 329.5 326 352.5 320 412.5 319 c 0
 421.5 319 430.5 318 437.5 318 c 0
 466.5 318 479.5 322 479.5 329 c 0
 479.5 334 473.5 340 462.5 349 c 0
243.5 219 m 0
 243.5 241 223.5 258 201.5 258 c 0
 174.5 258 161.5 251 161.5 239 c 0
 161.5 221 187.5 192 237.5 155 c 2
 315.5 96 l 1
 321.5 177 l 2
 321.5 180 321.5 184 321.5 187 c 0
 321.5 227 311.5 258 296.5 258 c 0
 285.5 258 278.5 247 278.5 230 c 0
 278.5 221 280.5 211 284.5 199 c 0
 290.5 182 293.5 170 293.5 163 c 0
 293.5 157 291.5 154 286.5 154 c 0
 283.5 154 279.5 155 273.5 158 c 0
 257.5 169 243.5 196 243.5 219 c 0
451.5 202 m 0
 432.5 202 407.5 219 401.5 238 c 0
 396.5 249 392.5 256 389.5 256 c 0
 381.5 256 376.5 217 368.5 116 c 2
 359.5 16 l 1
 451.5 99 l 2
 503.5 144 529.5 182 529.5 210 c 0
 529.5 215 528.5 220 526.5 224 c 0
 515.5 252 507.5 258 498.5 235 c 0
 493.5 216 471.5 202 451.5 202 c 0
298.5 27 m 0
 298.5 46 257.5 88 209.5 121 c 0
 174.5 145 154.5 157 150.5 157 c 0
 149.5 157 149.5 157 149.5 156 c 0
 149.5 154 157.5 145 173.5 130 c 0
 204.5 102 246.5 60 265.5 38 c 0
 276.5 23 285.5 16 291.5 16 c 0
 296.5 16 298.5 20 298.5 27 c 0
437.5 144 m 0
 483.5 182 508.5 200 515.5 200 c 0
 517.5 200 518.5 199 518.5 197 c 0
 518.5 194 514.5 186 507.5 174 c 0
 498.5 160 462.5 133 429.5 116 c 0
 376.5 91 376.5 94 437.5 144 c 0
EndSplineSet
Validated: 1
EndChar

StartChar: uni0094
Encoding: 148 148 148
Width: 667
VWidth: 0
Flags: HW
LayerCount: 3
Back
Fore
SplineSet
638.5 -47 m 0
 638.5 -40 631.5 -35 619.5 -35 c 0
 610.5 -35 600.5 -40 600.5 -47 c 0
 600.5 -53 610.5 -60 619.5 -60 c 0
 631.5 -60 638.5 -53 638.5 -47 c 0
408.5 -96 m 0
 408.5 -89 401.5 -84 389.5 -84 c 0
 380.5 -84 370.5 -89 370.5 -96 c 0
 370.5 -102 380.5 -109 389.5 -109 c 0
 401.5 -109 408.5 -102 408.5 -96 c 0
408.5 -47 m 0
 408.5 -40 401.5 -35 389.5 -35 c 0
 380.5 -35 370.5 -40 370.5 -47 c 0
 370.5 -53 380.5 -60 389.5 -60 c 0
 401.5 -60 408.5 -53 408.5 -47 c 0
391.5 416 m 0
 391.5 431 386.5 441 378.5 441 c 0
 372.5 441 365.5 431 365.5 416 c 0
 365.5 403 372.5 390 378.5 390 c 0
 386.5 390 391.5 403 391.5 416 c 0
585.5 416 m 0
 585.5 431 580.5 441 572.5 441 c 0
 566.5 441 559.5 431 559.5 416 c 0
 559.5 403 566.5 390 572.5 390 c 0
 580.5 390 585.5 403 585.5 416 c 0
536.5 453 m 0
 536.5 460 529.5 465 517.5 465 c 0
 508.5 465 498.5 460 498.5 453 c 0
 498.5 447 508.5 440 517.5 440 c 0
 529.5 440 536.5 447 536.5 453 c 0
372.5 481 m 0
 372.5 488 365.5 493 353.5 493 c 0
 344.5 493 334.5 488 334.5 481 c 0
 334.5 475 344.5 468 353.5 468 c 0
 365.5 468 372.5 475 372.5 481 c 0
151.5 676 m 0
 151.5 683 144.5 688 132.5 688 c 0
 123.5 688 113.5 683 113.5 676 c 0
 113.5 670 123.5 663 132.5 663 c 0
 144.5 663 151.5 670 151.5 676 c 0
121.5 710 m 0
 121.5 717 114.5 722 102.5 722 c 0
 93.5 722 83.5 717 83.5 710 c 0
 83.5 704 93.5 697 102.5 697 c 0
 114.5 697 121.5 704 121.5 710 c 0
65.5 729 m 0
 78.5 757 108.5 768 180.5 768 c 0
 188.5 768 197.5 768 207.5 768 c 0
 276.5 763 311.5 754 311.5 741 c 0
 311.5 738 310.5 735 307.5 732 c 0
 296.5 720 287.5 699 287.5 682 c 0
 287.5 680 287.5 678 287.5 676 c 0
 287.5 675 287.5 674 287.5 673 c 0
 287.5 653 234.5 641 180.5 641 c 0
 144.5 641 107.5 647 87.5 660 c 0
 71.5 670 62.5 689 62.5 709 c 0
 62.5 716 63.5 723 65.5 729 c 0
415.5 765 m 0
 417.5 766 431.5 767 453.5 767 c 0
 476.5 767 507.5 766 540.5 765 c 0
 639.5 762 657.5 755 657.5 712 c 0
 657.5 709 657.5 707 657.5 704 c 0
 654.5 657 641.5 645 559.5 645 c 0
 548.5 645 536.5 646 523.5 646 c 0
 427.5 646 401.5 649 401.5 679 c 0
 401.5 685 402.5 692 404.5 701 c 0
 409.5 735 415.5 762 415.5 765 c 0
320.5 690 m 0
 312.5 707 318.5 718 332.5 718 c 0
 348.5 718 362.5 707 362.5 690 c 0
 362.5 676 357.5 662 351.5 662 c 0
 343.5 662 329.5 676 320.5 690 c 0
37.5 532 m 0
 61.5 542 87.5 547 113.5 547 c 0
 158.5 547 202.5 532 237.5 504 c 2
 293.5 460 l 1
 237.5 479 l 2
 182.5 496 182.5 496 237.5 454 c 0
 263.5 432 275.5 420 275.5 410 c 0
 275.5 402 267.5 395 251.5 385 c 0
 224.5 367 195.5 359 160.5 359 c 0
 133.5 359 102.045711665 362.303694147 65.5 373 c 0
 24.5 385 2 432 2 472 c 0
 2 500 12.9732364512 521.780515188 37.5 532 c 0
318.5 512 m 0
 327.5 537 356.5 547 427.5 547 c 0
 442.5 547 459.5 547 479.5 546 c 0
 623.5 537 626.5 535 626.5 454 c 0
 626.5 371 623.5 371 473.5 371 c 0
 354.5 371 302.5 392 302.5 447 c 0
 302.5 465 308.5 486 318.5 512 c 0
32.5 279 m 0
 63.5 290 148.5 295 221.5 295 c 0
 278.5 295 328.5 292 340.5 285 c 0
 347.5 280 351.5 274 351.5 268 c 0
 351.5 260 345.5 251 332.5 243 c 0
 316.5 232 308.5 225 308.5 217 c 0
 308.5 209 317.5 201 334.5 190 c 0
 365.5 171 365.5 162 340.5 162 c 0
 324.5 162 313.5 157 313.5 149 c 0
 313.5 147 314.5 145 315.5 143 c 0
 316.5 141 317.5 139 317.5 138 c 0
 317.5 122 271.5 114 216.5 114 c 0
 161.5 114 97.5 123 65.5 140 c 0
 24.5 160 1.5 201 1.5 233 c 0
 1.5 254 11.5 272 32.5 279 c 0
398.5 212 m 2
 387.5 307 l 1
 504.5 296 l 2
 612.5 287 620.5 279 623.5 204 c 0
 623.5 195 624.5 187 624.5 180 c 0
 624.5 123 609.5 121 518.5 121 c 0
 415.5 121 407.5 126 398.5 212 c 2
76.5 12 m 0
 84.5 35 129.5 51 184.5 51 c 0
 243.5 51 280.5 35 280.5 16 c 0
 280.5 6 269.5 -4 245.5 -13 c 0
 223.5 -21 232.5 -29 259.5 -29 c 0
 288.5 -32 302.5 -44 302.5 -66 c 0
 302.5 -70 302.5 -74 301.5 -79 c 0
 294.5 -115 240.5 -132 186.5 -132 c 0
 130.5 -132 74.5 -114 68.5 -77 c 0
 67.5 -70 67.5 -62 67.5 -54 c 0
 67.5 -30 70.5 -4 76.5 12 c 0
359.5 10 m 0
 361.5 38 426.5 54 487.5 54 c 0
 538.5 54 586.5 42 587.5 18 c 0
 587.5 -10 593.5 -10 604.5 18 c 0
 609.5 35 629.5 51 643.5 51 c 0
 659.5 51 665 29 665 2 c 0
 665 -28 657.744766576 -63.3878359534 640.5 -74 c 0
 627.5 -82 621.5 -94 621.5 -103 c 0
 621.5 -106 622.5 -108 623.5 -110 c 0
 623.5 -111 623.5 -111 623.5 -112 c 0
 623.5 -122 566.5 -129 493.5 -129 c 0
 378.5 -127 354.5 -130 354.5 -68 c 0
 354.5 -48 356.5 -23 359.5 10 c 0
EndSplineSet
Validated: 1
EndChar

StartChar: uni0095
Encoding: 149 149 149
Width: 667
VWidth: -20
Flags: HW
LayerCount: 3
Back
Fore
SplineSet
648 547 m 0
 648 557 642 564 630 564 c 0
 622 564 614 557 614 547 c 0
 614 538 622 530 630 530 c 0
 642 530 648 538 648 547 c 0
174 97 m 0
 174 107 168 114 156 114 c 0
 148 114 140 107 140 97 c 0
 140 88 148 80 156 80 c 0
 168 80 174 88 174 97 c 0
8 760 m 0
 8 776 58 787 118 787 c 0
 144 787 164 788 180 788 c 0
 216 788 230 784 230 764 c 0
 230 741 244 722 258 722 c 0
 274 722 284 741 284 764 c 0
 284 784 298 788 334 788 c 0
 350 788 370 787 396 787 c 0
 458 787 508 779 508 765 c 0
 508 740 418 702 386 702 c 0
 382 702 378 703 376 705 c 0
 374 707 372 708 366 708 c 0
 350 708 312 695 274 675 c 0
 230 649 186 633 172 633 c 0
 170 633 170 633 168 633 c 0
 168 633 166 633 166 633 c 0
 154 633 146 617 146 597 c 0
 146 575 126 555 104 555 c 0
 82 555 62 575 62 597 c 0
 62 619 52 639 34 639 c 0
 22 639 8 658 8 680 c 0
 8 703 22 722 34 722 c 0
 52 722 62 711 62 700 c 0
 62 686 82 675 104 675 c 0
 132 675 146 682 146 691 c 0
 146 704 120 721 76 733 c 0
 38 744 8 746 8 760 c 0
534 768 m 0
 534 779 562 787 598 787 c 0
 604 787 608 787 612 787 c 0
 660 787 654 779 662 622 c 0
 663 600 663 581 663 564 c 0
 663 479 660 452 640 452 c 0
 636 452 632 453 626 455 c 0
 588 472 588 466 622 428 c 0
 648 395 662 269 662 147 c 0
 662 30 650 -83 624 -109 c 0
 610 -124 598 -132 586 -132 c 0
 576 -132 568 -127 558 -117 c 0
 550 -110 548 -104 548 -97 c 0
 548 -83 560 -69 588 -50 c 0
 624 -28 642 0 642 32 c 0
 642 57 632 83 610 111 c 0
 598 127 588 135 578 135 c 0
 562 135 546 121 516 91 c 0
 484 58 468 39 468 32 c 0
 468 30 470 29 472 29 c 0
 480 29 500 40 534 61 c 0
 558 76 576 82 588 82 c 0
 602 82 610 74 610 60 c 0
 610 43 598 16 576 -17 c 0
 554 -53 538 -71 526 -71 c 0
 518 -71 512 -65 504 -53 c 0
 494 -36 486 -28 474 -28 c 0
 462 -28 446 -35 422 -50 c 0
 396 -67 380 -76 368 -76 c 0
 356 -76 348 -67 338 -50 c 0
 324 -30 318 -8 318 13 c 0
 318 58 348 96 386 96 c 0
 394 96 404 94 412 91 c 0
 418 89 422 89 426 89 c 0
 442 89 452 102 452 125 c 0
 452 148 462 160 476 160 c 0
 480 160 484 160 488 158 c 0
 490 157 492 157 494 157 c 0
 512 157 522 186 524 247 c 0
 524 259 524 269 524 277 c 0
 524 299 522 310 520 310 c 0
 518 310 518 307 516 300 c 0
 508 272 490 250 476 250 c 0
 462 250 452 228 452 203 c 0
 452 179 450 168 446 168 c 0
 440 168 434 177 422 194 c 0
 398 228 396 222 410 169 c 0
 416 151 418 138 418 130 c 0
 418 122 416 118 410 118 c 0
 408 118 404 120 398 122 c 0
 392 126 386 129 378 129 c 0
 352 129 314 101 226 22 c 0
 206 1 192 -10 184 -10 c 0
 176 -10 174 -3 174 11 c 0
 174 30 132 57 84 69 c 2
 4 90 l 1
 88 130 l 2
 125 148 154 154 174 154 c 0
 190 154 202 150 210 141 c 0
 226 125 254 111 268 111 c 0
 274 111 276 113 276 116 c 0
 276 121 268 131 252 141 c 0
 224 155 202 191 202 219 c 0
 202 275 148 305 60 305 c 0
 26 305 8 319 8 335 c 0
 8 348 20 361 44 369 c 0
 54 374 60 379 60 385 c 0
 60 392 52 401 34 414 c 0
 4 436 4 444 30 444 c 0
 48 444 72 425 82 400 c 0
 90 379 94 368 100 368 c 0
 106 368 112 379 124 400 c 0
 134 420 150 433 164 433 c 0
 168 433 170 432 174 430 c 0
 176 429 176 428 178 428 c 0
 182 428 186 435 186 446 c 0
 186 454 184 465 180 478 c 2
 166 539 l 1
 144 478 l 2
 130 445 122 430 106 430 c 0
 96 430 82 437 62 450 c 0
 38 466 24 475 24 483 c 0
 24 493 46 502 96 522 c 0
 132 538 156 546 172 546 c 0
 192 546 204 536 218 514 c 0
 234 493 246 484 264 484 c 0
 276 484 292 489 312 500 c 0
 332 511 346 518 358 518 c 0
 372 518 380 505 388 475 c 0
 396 441 416 416 430 416 c 0
 436 416 440 420 440 427 c 0
 440 438 430 457 416 478 c 0
 392 516 362 534 322 534 c 0
 314 534 308 534 302 533 c 0
 296 532 290 532 284 532 c 0
 246 532 228 551 228 576 c 0
 228 604 250 639 298 661 c 0
 324 673 340 680 348 680 c 0
 352 680 356 677 356 672 c 0
 356 667 352 658 348 647 c 0
 348 643 346 640 346 637 c 0
 346 633 348 631 352 631 c 0
 364 631 392 649 432 683 c 0
 488 728 534 754 534 768 c 0
618 653 m 0
 596 683 574 714 572 719 c 0
 566 725 562 716 562 700 c 0
 562 680 534 666 502 666 c 0
 472 666 458 664 458 659 c 0
 458 654 466 648 480 639 c 0
 492 632 506 628 518 628 c 0
 530 628 540 632 548 639 c 0
 558 646 568 649 578 649 c 0
 592 649 606 643 618 630 c 0
 648 603 648 608 618 653 c 0
508 566 m 0
 508 591 496 611 480 611 c 0
 466 611 452 575 452 528 c 0
 452 474 454 448 470 448 c 0
 484 448 506 467 544 503 c 0
 570 526 582 539 582 544 c 0
 582 546 580 547 578 547 c 0
 574 547 568 545 558 541 c 0
 546 537 538 535 530 535 c 0
 514 535 508 545 508 566 c 0
390 303 m 0
 392 305 392 306 392 309 c 0
 392 327 368 364 338 394 c 2
 276 458 l 1
 330 366 l 2
 352 325 374 299 386 299 c 0
 388 299 390 301 390 303 c 0
598 383 m 0
 578 404 536 415 504 415 c 0
 474 415 452 407 452 389 c 0
 452 375 482 361 522 361 c 0
 572 361 596 344 596 300 c 0
 596 292 596 283 594 272 c 0
 594 258 604 250 618 250 c 0
 634 250 642 264 642 283 c 0
 642 313 626 355 598 383 c 0
284 350 m 0
 284 355 266 361 244 361 c 0
 222 361 202 350 202 333 c 0
 202 324 210 318 224 318 c 0
 230 318 236 319 244 322 c 0
 266 333 284 344 284 350 c 0
334 233 m 0
 334 258 336 274 336 281 c 0
 336 285 334 290 332 294 c 0
 330 303 l 0
 292 278 244 207 244 180 c 0
 244 177 244 174 246 172 c 0
 248 169 252 167 256 167 c 0
 264 167 274 176 280 191 c 0
 284 205 288 212 294 212 c 0
 298 212 304 206 312 194 c 0
 316 188 320 186 324 186 c 0
 330 186 334 202 334 233 c 0
8 253 m 0
 8 269 42 277 80 277 c 0
 114 277 148 270 158 255 c 0
 162 249 164 242 164 235 c 0
 164 204 124 171 62 155 c 0
 8 139 2 141 34 166 c 0
 52 180 60 190 60 198 c 0
 60 204 54 209 44 214 c 0
 24 219 8 239 8 253 c 0
44 36 m 0
 30 41 38 41 58 36 c 0
 80 33 108 28 122 28 c 0
 134 28 146 8 146 -14 c 0
 146 -41 158 -54 172 -54 c 0
 188 -54 210 -38 226 -6 c 0
 240 15 248 25 256 25 c 0
 264 25 272 17 282 0 c 0
 292 -16 298 -36 298 -50 c 0
 298 -54 298 -58 296 -61 c 0
 288 -72 296 -84 310 -84 c 0
 326 -84 340 -103 340 -128 c 0
 340 -142 344 -150 350 -150 c 0
 358 -150 372 -137 396 -109 c 0
 422 -77 436 -62 442 -62 c 0
 448 -62 450 -73 452 -95 c 0
 452 -121 460 -133 478 -133 c 0
 482 -133 488 -133 494 -131 c 0
 502 -127 510 -125 518 -125 c 0
 532 -125 544 -131 552 -142 c 0
 556 -151 572 -157 592 -157 c 0
 602 -157 612 -156 622 -153 c 0
 632 -149 640 -147 648 -147 c 0
 664 -147 664 -154 664 -165 c 0
 664 -182 490 -191 320 -191 c 0
 206 -191 96 -186 58 -175 c 0
 26 -167 8 -126 8 -94 c 0
 8 -73 16 -56 34 -56 c 0
 54 -56 64 -34 64 -11 c 0
 64 8 56 27 44 36 c 0
180 -134 m 0
 156 -110 114 -94 92 -94 c 0
 82 -94 76 -97 76 -104 c 0
 76 -106 76 -110 80 -114 c 0
 84 -123 96 -129 106 -129 c 0
 112 -129 116 -128 122 -125 c 0
 134 -114 146 -122 146 -136 c 0
 146 -153 160 -167 180 -167 c 0
 192 -167 198 -165 198 -160 c 0
 198 -155 192 -146 180 -134 c 0
284 -139 m 0
 284 -122 274 -111 258 -111 c 0
 244 -111 230 -122 230 -139 c 0
 230 -153 244 -167 258 -167 c 0
 274 -167 284 -153 284 -139 c 0
EndSplineSet
Validated: 1
EndChar

StartChar: uni0096
Encoding: 150 150 150
Width: 667
VWidth: 0
Flags: HW
LayerCount: 3
Back
Fore
SplineSet
643 -41 m 0
 643 -31 637 -24 626 -24 c 0
 617 -24 609 -31 609 -41 c 0
 609 -50 617 -58 626 -58 c 0
 637 -58 643 -50 643 -41 c 0
458 -73 m 0
 458 -63 451 -56 441 -56 c 0
 432 -56 423 -63 423 -73 c 0
 423 -82 432 -91 441 -91 c 0
 451 -91 458 -82 458 -73 c 0
450 -19 m 0
 450 -9 443 -2 433 -2 c 0
 424 -2 415 -9 415 -19 c 0
 415 -28 424 -37 433 -37 c 0
 443 -37 450 -28 450 -19 c 0
378 500 m 0
 378 510 371 517 361 517 c 0
 352 517 343 510 343 500 c 0
 343 491 352 482 361 482 c 0
 371 482 378 491 378 500 c 0
586 731 m 0
 586 741 579 748 569 748 c 0
 560 748 551 741 551 731 c 0
 551 722 560 713 569 713 c 0
 579 713 586 722 586 731 c 0
64 731 m 0
 77 759 107 770 179 770 c 0
 187 770 196 770 206 770 c 0
 275 765 310 756 310 743 c 0
 310 740 309 737 306 734 c 0
 295 722 286 701 286 684 c 0
 286 682 286 680 286 678 c 0
 286 677 286 676 286 675 c 0
 286 655 233 643 179 643 c 0
 143 643 106 649 86 662 c 0
 70 672 61 691 61 711 c 0
 61 718 62 725 64 731 c 0
222 712 m 0
 222 730 190 740 158 740 c 0
 132 740 106 733 97 720 c 0
 95 716 94 712 94 708 c 0
 94 696 102 684 114 675 c 0
 136 662 139 667 125 692 c 0
 121 699 119 705 119 708 c 0
 119 712 121 714 127 714 c 0
 135 714 146 711 164 706 c 0
 177 703 189 701 200 701 c 0
 213 701 222 704 222 712 c 0
414 770 m 0
 417 773 439 775 467 775 c 0
 506 775 508 770 472 748 c 0
 447 731 444 720 464 720 c 0
 481 720 506 731 514 748 c 0
 523 762 556 769 590 769 c 0
 629 769 666 760 666 742 c 0
 666 731 654.110770276 712.055385138 636 703 c 0
 626 698 621 692 621 686 c 0
 621 679 628 671 642 662 c 0
 669 645 664 639 619 645 c 0
 586 650 547 662 539 673 c 0
 530 682 508 690 486 690 c 0
 482 690 479 689 475 689 c 0
 442 689 444 681 486 664 c 0
 533 642 531 642 467 645 c 0
 420 647 400 659 400 696 c 0
 400 714 405 738 414 770 c 0
319 692 m 0
 311 709 317 720 331 720 c 0
 347 720 361 709 361 692 c 0
 361 678 356 664 350 664 c 0
 342 664 328 678 319 692 c 0
36 534 m 0
 60 544 86 549 112 549 c 0
 156 549 201 535 236 509 c 0
 261 489 274 479 274 475 c 0
 274 473 272 473 269 473 c 0
 261 473 245 476 219 481 c 0
 202 484 189 486 179 486 c 0
 162 486 155 480 155 466 c 0
 155 458 157 448 161 434 c 0
 169 407 174 393 178 393 c 0
 182 393 185 402 189 420 c 0
 193 441 205 454 222 454 c 0
 227 454 233 453 239 450 c 0
 267 439 279 427 279 415 c 0
 279 389 223 365 153 365 c 0
 131 365 107 367 83 373 c 0
 19 387 0 406 0 456 c 0
 0 492 17 528 36 534 c 0
133 400 m 0
 135 402 137 406 137 410 c 0
 137 420 128 436 114 450 c 0
 86 475 83 473 100 434 c 0
 106 411 119 398 128 398 c 0
 130 398 131 398 133 400 c 0
317 514 m 0
 326 539 355 549 426 549 c 0
 441 549 458 549 478 548 c 0
 619 539 625 537 625 456 c 0
 625 373 622 373 472 373 c 0
 353 373 301 394 301 449 c 0
 301 467 307 488 317 514 c 0
594 462 m 0
 596 470 597 477 597 483 c 0
 597 504 587 517 569 517 c 0
 552 517 541 510 541 501 c 0
 541 498 542 495 544 492 c 0
 553 481 544 470 528 470 c 0
 519 470 515 467 515 462 c 0
 515 455 521 445 533 431 c 0
 551 412 562 402 571 402 c 0
 581 402 587 420 594 462 c 0
411 442 m 0
 427 466 435 487 435 495 c 0
 435 497 434 498 433 498 c 0
 416 498 363 425 363 404 c 0
 363 402 363 401 364 400 c 0
 365 399 366 399 367 399 c 0
 376 399 394 417 411 442 c 0
31 281 m 0
 64 293 122 298 179 298 c 0
 259 298 339 288 350 270 c 0
 364 248 356 245 325 256 c 0
 308 263 295 266 288 266 c 0
 284 266 281 264 281 261 c 0
 281 253 295 236 322 209 c 0
 337 194 345 181 345 173 c 0
 345 167 341 164 333 164 c 0
 317 164 308 156 314 145 c 0
 314 144 315 144 315 143 c 0
 315 130 248 120 158 117 c 0
 144 117 131 116 119 116 c 0
 57 116 23 122 23 131 c 0
 23 133 26 136 31 139 c 0
 58 156 58 164 36 164 c 0
 13 164 1 192 1 221 c 0
 1 247 11 274 31 281 c 0
131 192 m 0
 131 195 131 198 131 202 c 0
 131 229 124 254 114 259 c 0
 112 260 111 261 109 261 c 0
 102 261 96 249 96 231 c 0
 96 227 97 224 97 220 c 0
 100 177 109 153 117 153 c 0
 123 153 128 165 131 192 c 0
278 187 m 0
 256 195 228 214 217 231 c 0
 214 236 211 238 209 238 c 0
 203 238 200 225 200 203 c 0
 205 169 213 155 236 155 c 0
 243 155 251 156 261 159 c 0
 285 165 297 171 297 176 c 0
 297 180 291 183 278 187 c 0
397 214 m 0
 394 236 392 254 392 267 c 0
 392 295 402 303 436 303 c 0
 451 303 469 302 492 300 c 0
 591 294 626 287 626 262 c 0
 626 252 620 240 611 223 c 0
 604 208 600 192 600 179 c 0
 600 166 604 155 611 148 c 0
 614 145 615 143 615 140 c 0
 615 129 580 123 522 123 c 0
 411 123 406 128 397 214 c 0
544 198 m 0
 548 204 549 211 549 218 c 0
 549 228 546 238 539 245 c 0
 529 253 512 257 494 257 c 0
 458 257 417 242 417 220 c 0
 417 199 463 183 500 183 c 0
 520 183 537 187 544 198 c 0
72 9 m 0
 83 37 122 53 183 53 c 0
 243 53 277 40 277 22 c 0
 277 11 263 -1 233 -13 c 0
 216 -20 204 -32 204 -44 c 0
 204 -48 205 -52 208 -55 c 0
 209 -57 210 -60 210 -62 c 0
 210 -93 130 -155 90 -155 c 0
 86 -155 81 -154 78 -152 c 0
 63 -143 55 -129 55 -116 c 0
 55 -100 66 -86 86 -86 c 0
 95 -86 100 -92 100 -101 c 0
 100 -106 98 -113 94 -119 c 0
 83 -138 86 -144 97 -133 c 0
 117 -115 128 -86 128 -60 c 0
 128 -40 121 -21 106 -11 c 0
 86 -2 83 -8 94 -25 c 0
 98 -32 100 -38 100 -44 c 0
 100 -52 95 -58 86 -58 c 0
 66 -58 57 -55 57 -43 c 0
 57 -33 62 -17 72 9 c 0
369 -2 m 0
 366 8 365 16 365 23 c 0
 365 50 389 53 469 53 c 0
 542 53 583 39 583 18 c 0
 583 7 570 -7 544 -22 c 0
 528 -31 520 -38 520 -47 c 0
 520 -56 529 -66 547 -83 c 0
 564 -98 574 -106 579 -106 c 0
 581 -106 583 -103 583 -98 c 0
 583 -94 582 -89 581 -83 c 0
 580 -78 580 -72 580 -66 c 0
 580 -14 614 53 642 53 c 0
 658 53 665 30 665 3 c 0
 665 -27 656 -61 639 -72 c 0
 627 -80 621 -90 621 -100 c 0
 621 -105 623 -109 625 -113 c 0
 626 -114 626 -115 626 -116 c 0
 626 -123 604 -127 570 -127 c 0
 557 -127 542 -126 525 -125 c 0
 502 -122 483 -121 469 -121 c 0
 442 -121 430 -125 430 -134 c 0
 430 -137 431 -140 433 -144 c 0
 447 -166 439 -169 403 -147 c 0
 375 -133 347 -100 344 -75 c 0
 344 -71 344 -68 344 -65 c 0
 344 -51 347 -42 354 -42 c 0
 356 -42 358 -42 361 -44 c 0
 363 -45 364 -46 366 -46 c 0
 370 -46 373 -39 373 -29 c 0
 373 -22 372 -12 369 -2 c 0
244 -50 m 0
 222 -41 228 -33 258 -33 c 0
 259 -33 260 -33 261 -33 c 0
 290 -33 303 -49 303 -68 c 0
 303 -95 277 -130 236 -136 c 0
 221 -138 211 -140 204 -140 c 0
 198 -140 196 -139 196 -136 c 0
 196 -131 208 -121 231 -102 c 0
 252 -87 263 -76 263 -67 c 0
 263 -60 256 -55 244 -50 c 0
EndSplineSet
Validated: 1
EndChar

StartChar: uni0097
Encoding: 151 151 151
Width: 667
VWidth: 0
Flags: HW
LayerCount: 3
Back
Fore
SplineSet
508.5 347 m 0
 503.5 352 494.5 350 486.5 342 c 0
 479.5 335 476.5 325 481.5 320 c 0
 485.5 316 496.5 318 503.5 325 c 0
 511.5 333 512.5 343 508.5 347 c 0
110.5 370 m 0
 110.5 377 103.5 382 91.5 382 c 0
 81.5 382 72.5 377 72.5 370 c 0
 72.5 364 81.5 358 91.5 358 c 0
 103.5 358 110.5 364 110.5 370 c 0
162.5 453 m 0
 162.5 460 155.5 465 143.5 465 c 0
 133.5 465 124.5 460 124.5 453 c 0
 124.5 447 133.5 441 143.5 441 c 0
 155.5 441 162.5 447 162.5 453 c 0
525.5 516 m 0
 559.5 555 585.5 578 592.5 578 c 0
 594.5 578 595.5 577 595.5 575 c 0
 595.5 571 591.5 563 583.5 550 c 0
 581.5 546 579.5 541 579.5 537 c 0
 579.5 529 585.5 522 597.5 522 c 0
 601.5 522 603.5 519 603.5 514 c 0
 603.5 499 584.5 461 552.5 419 c 0
 529.5 385 517.5 364 517.5 360 c 0
 517.5 359 517.5 359 518.5 359 c 0
 520.5 359 527.5 366 539.5 380 c 0
 566.5 410 594.5 431 609.5 431 c 0
 612.5 431 614.5 430 616.5 428 c 0
 618.5 426 619.5 424 619.5 421 c 0
 619.5 405 599.5 373 569.5 341 c 0
 541.5 313 529.5 291 529.5 280 c 0
 529.5 275 532.5 272 538.5 272 c 0
 548.5 272 569.5 283 597.5 308 c 0
 630.5 336 630.5 333 602.5 297 c 0
 579.5 268 533.5 253 482.5 253 c 0
 427.5 253 366.5 270 325.5 303 c 0
 282.5 336 249.5 353 216.5 353 c 0
 181.5 353 147.5 333 105.5 294 c 2
 41.5 236 l 1
 41.5 336 l 2
 41.5 444 100.5 522 183.5 522 c 0
 255.5 522 394.5 450 411.5 405 c 0
 419.5 383 427.5 391 427.5 422 c 0
 429.5 448 439.5 460 456.5 460 c 0
 461.5 460 466.5 460 472.5 458 c 0
 479.5 455 486.5 453 493.5 453 c 0
 508.5 453 522.5 460 530.5 472 c 0
 544.5 491 536.5 494 511.5 480 c 0
 506.5 477 502.5 475 500.5 475 c 0
 499.5 475 498.5 476 498.5 477 c 0
 498.5 482 508.5 496 525.5 516 c 0
97.5 214 m 0
 134.5 268 168.5 295 203.5 295 c 0
 238.5 295 276.5 268 322.5 214 c 0
 366.5 159 393.5 138 428.5 138 c 0
 439.5 138 452.5 140 466.5 144 c 0
 505.5 153 558.5 180 580.5 205 c 0
 598.5 223 610.5 232 616.5 232 c 0
 623.5 232 625.5 224 625.5 208 c 0
 625.5 150 561.5 105 447.5 86 c 0
 425.5 82 407.5 80 393.5 80 c 0
 349.5 80 333.5 100 300.5 158 c 0
 268.5 213 240.5 240 210.5 240 c 0
 183.5 240 154.5 217 119.5 172 c 0
 87.5 133 65.5 115 56.5 115 c 0
 52.5 115 50.5 118 50.5 123 c 0
 50.5 137 64.5 169 97.5 214 c 0
EndSplineSet
Validated: 1
EndChar

StartChar: uni0098
Encoding: 152 152 152
Width: 667
VWidth: 0
Flags: HW
LayerCount: 3
Back
Fore
SplineSet
425.5 481 m 0
 537.5 600 600.5 645 640.5 657 c 0
 641.5 657 643.5 658 644.5 658 c 0
 661.5 658 664 620 664 582 c 0
 664 538 621.5 487 531.5 403 c 0
 456.5 333 401.5 274 392.5 256 c 0
 388.5 248 366.5 221 331.5 181 c 0
 307.5 154 281.5 150 281.5 139 c 0
 281.5 132 294.5 118 303.5 114 c 0
 324.5 105 335.5 79 335.5 57 c 0
 335.5 38 327.5 22 309.5 22 c 0
 295.5 22 287.5 43 281.5 64 c 0
 274.5 87 273.5 107 228.5 107 c 0
 189.5 107 169.330731169 75.1174271549 155.5 55 c 0
 133.5 23 90 -24 50 -34 c 0
 48 -34 47 -35 45 -35 c 0
 27 -35 11 -12 11 -2 c 0
 11 16 28.6491807698 40.8379922121 64.5 74 c 0
 104.5 111 142.5 150 142.5 184 c 0
 142.5 203 130.5 211 114.5 217 c 0
 101.5 222 86.5 236 86.5 258 c 0
 86.5 281 100.5 300 114.5 300 c 0
 131.5 300 136.5 280 142.5 258 c 0
 149.5 232 156.5 217 170.5 217 c 0
 186.5 217 194.5 237 203.5 257 c 0
 212.5 276 217.5 284 234.5 299 c 0
 247.5 310 332.5 383 425.5 481 c 0
EndSplineSet
Validated: 1
EndChar

StartChar: uni0099
Encoding: 153 153 153
Width: 667
VWidth: 0
Flags: HW
LayerCount: 3
Back
Fore
SplineSet
71 754 m 0
 71 768 81 775 95 775 c 0
 121 775 163 755 198 721 c 0
 229 693 284 660 323 649 c 0
 359 638 396 618 404 610 c 0
 412 599 451 571 496 543 c 0
 544 512 569 470 569 422 c 0
 569 393 560 362 543 329 c 0
 535 314 530 303 530 293 c 0
 530 280 539 271 557 263 c 0
 584 253 596 222 596 184 c 0
 596 95 534 -32 462 -32 c 0
 437 -32 371 -57 312 -87 c 0
 257 -118 176 -143 134 -143 c 0
 95 -143 78 -142 78 -133 c 0
 78 -126 89 -114 107 -93 c 0
 134 -65 154 -21 154 4 c 0
 154 36 164 50 177 50 c 0
 192 50 209 31 218 -4 c 0
 226 -33 246 -57 267 -57 c 0
 268 -57 270 -57 271 -57 c 0
 298 -57 298 -51 273 -40 c 0
 254 -35 237 -10 237 13 c 0
 237 35 218 60 196 68 c 0
 162 82 154 140 154 354 c 0
 154 549 143 640 112 679 c 0
 90 707 71 740 71 754 c 0
421 457 m 0
 393 484 367 497 346 497 c 0
 314 497 293 468 293 413 c 0
 293 356 307 329 345 329 c 0
 363 329 386 335 415 346 c 0
 444 357 458 372 458 391 c 0
 458 410 445 431 421 457 c 0
526 199 m 0
 515 232 479 246 401 246 c 0
 298 246 293 240 293 163 c 0
 293 90 304 79 371 79 c 0
 462 79 531 124 531 175 c 0
 531 183 529 191 526 199 c 0
EndSplineSet
Validated: 1
EndChar

StartChar: uni009A
Encoding: 154 154 154
Width: 667
VWidth: 0
Flags: HW
LayerCount: 3
Back
Fore
SplineSet
507.5 541 m 0
 507.5 531 515.5 522 525.5 522 c 0
 535.5 522 543.5 531 543.5 541 c 0
 543.5 551 535.5 560 525.5 560 c 0
 515.5 560 507.5 551 507.5 541 c 0
539.5 658 m 0
 549.5 674 556.5 683 562.5 683 c 0
 576.5 683 580.5 633 580.5 513 c 2
 580.5 338 l 1
 522.5 408 l 2
 472.5 472 469.5 472 497.5 416 c 0
 507.5 395 512.5 379 512.5 369 c 0
 512.5 359 507.5 353 499.5 353 c 0
 481.5 353 448.5 376 408.5 422 c 0
 370.5 465 342.5 488 327.5 488 c 0
 317.5 488 313.5 480 313.5 464 c 0
 313.5 454 315.5 441 319.5 424 c 0
 323.5 408 325.5 396 325.5 387 c 0
 325.5 373 318.5 367 300.5 367 c 0
 289.5 367 274.5 369 255.5 372 c 0
 229.5 377 211.5 380 203.5 380 c 0
 198.5 380 196.5 379 196.5 377 c 0
 196.5 372 209.5 361 233.5 341 c 0
 260.5 320 274.5 310 274.5 304 c 0
 274.5 299 259.5 298 228.5 297 c 0
 175.5 297 164.5 280 164.5 210 c 0
 164.5 149 167.5 131 204.5 131 c 0
 215.5 131 229.5 132 247.5 135 c 0
 262.5 138 276.5 139 289.5 139 c 0
 313.5 139 330.5 134 330.5 127 c 0
 330.5 119 337.5 116 348.5 116 c 0
 356.5 116 367.5 118 378.5 122 c 0
 388.5 126 396.5 128 402.5 128 c 0
 409.5 128 412.5 124 412.5 117 c 0
 412.5 111 410.5 101 405.5 88 c 0
 399.5 73 395.5 63 395.5 58 c 0
 395.5 55 396.5 53 399.5 53 c 0
 405.5 53 422.5 64 453.5 85 c 0
 498.5 114 543.5 129 573.5 129 c 0
 594.5 129 608.5 121 608.5 105 c 0
 608.5 91 583.5 72 555.5 60 c 0
 528.5 52 497.5 19 489.5 -9 c 0
 478.5 -56 450.5 -65 325.5 -65 c 0
 153.5 -65 130.5 -53 83.5 69 c 0
 66.5 111 58.5 173 58.5 239 c 0
 58.5 351 81.5 474 122.5 516 c 0
 169.5 572 341.5 630 450.5 630 c 0
 489.5 630 530.5 644 539.5 658 c 0
EndSplineSet
Validated: 1
EndChar

StartChar: uni009B
Encoding: 155 155 155
Width: 667
VWidth: 0
Flags: HW
LayerCount: 3
Back
Fore
SplineSet
145 502 m 2
 145 632 l 1
 297 632 l 2
 381 632 450 621 450 604 c 0
 450 591 467 577 489 577 c 0
 511 577 556 543 589 502 c 0
 630 451 642 416 642 319 c 0
 642 289 641 254 639 210 c 0
 628 -73 581 -123 325 -140 c 2
 145 -151 l 1
 145 -18 l 2
 145 79 128 132 83 179 c 2
 25 243 l 1
 83 307 l 2
 128 354 145 407 145 502 c 2
461 452 m 0
 433 474 386 493 361 493 c 0
 317 493 311 463 311 229 c 0
 311 -4 317 -34 361 -34 c 0
 386 -34 439 -1 475 35 c 0
 517 81 532 110 532 178 c 0
 532 199 531 225 528 257 c 0
 520 366 500 424 461 452 c 0
228 238 m 0
 228 277 223 297 213 297 c 0
 205 297 196 288 183 268 c 0
 181 263 179 257 179 251 c 0
 179 236 186 219 197 207 c 0
 205 199 211 195 216 195 c 0
 225 195 228 209 228 238 c 0
EndSplineSet
Validated: 1
EndChar

StartChar: uni009C
Encoding: 156 156 156
Width: 667
VWidth: 0
Flags: HW
LayerCount: 3
Back
Fore
SplineSet
18 621 m 0
 18 629 132 638 271 638 c 0
 507 638 529 632 590 565 c 0
 651 501 657 471 657 232 c 0
 657 -124 640 -140 279 -140 c 2
 10 -140 l 1
 85 -82 l 2
 154 -29 157 -12 157 235 c 0
 157 479 151 499 88 549 c 0
 49 579 18 613 18 621 c 0
240 526 m 0
 240 543 226 554 210 554 c 0
 196 554 190 543 199 526 c 0
 207 513 221 499 229 499 c 0
 235 499 240 513 240 526 c 0
476 482 m 0
 431 512 400 530 377 530 c 0
 330 530 324 451 324 235 c 0
 324 -29 329 -57 374 -57 c 0
 401 -57 451 -32 485 -1 c 0
 538 49 546 88 546 246 c 0
 546 418 540 440 476 482 c 0
240 -29 m 0
 240 -12 235 -1 229 -1 c 0
 221 -1 207 -12 199 -29 c 0
 190 -43 196 -57 210 -57 c 0
 226 -57 240 -43 240 -29 c 0
EndSplineSet
Validated: 1
EndChar

StartChar: uni009D
Encoding: 157 157 157
Width: 667
VWidth: 0
Flags: HW
LayerCount: 3
Back
Fore
SplineSet
38 741 m 0
 38 760 42 770 50 770 c 0
 51 770 51 770 52 770 c 0
 70 770 65 768 126 663 c 0
 179 571 229 496 240 496 c 0
 254 496 279 458 299 410 c 2
 335 324 l 1
 387 424 l 2
 415 480 449 524 460 524 c 0
 471 524 514 595 560 677 c 0
 605 757 624 773 631 773 c 0
 632 773 632 773 632 773 c 0
 633 772 633 771 633 770 c 0
 633 733 489 496 468 496 c 0
 457 496 429 455 404 405 c 0
 385 363 375 338 375 314 c 0
 375 291 385 269 404 233 c 0
 426 185 462 138 479 121 c 0
 516 90 651 -140 651 -167 c 0
 651 -169 650 -170 649 -170 c 0
 640 -170 599 -112 557 -40 c 0
 515 33 462 113 437 138 c 0
 415 163 382 205 365 235 c 0
 352 257 343 269 335 269 c 0
 325 269 316 252 301 213 c 0
 285 169 262 135 249 135 c 0
 235 135 207 102 187 58 c 0
 126 -62 46 -170 21 -170 c 0
 18 -170 16 -168 16 -165 c 0
 16 -155 34 -128 62 -98 c 0
 101 -56 132 -9 132 10 c 0
 132 30 160 74 196 113 c 0
 276 203 309 256 309 306 c 0
 309 328 304 348 293 371 c 0
 276 410 254 441 243 441 c 0
 235 441 185 516 132 608 c 0
 79 699 74 713 60 713 c 0
 49 713 38 727 38 741 c 0
EndSplineSet
Validated: 1
EndChar

StartChar: uni009E
Encoding: 158 158 158
Width: 667
VWidth: 0
Flags: HW
LayerCount: 3
Back
Fore
SplineSet
294 750 m 0
 294 775 314 795 336 795 c 0
 360 795 373 795 373 777 c 0
 373 755 367 739 323 633 c 2
 254 467 l 1
 373 467 l 2
 437 467 504 481 523 500 c 0
 536 513 545 520 550 520 c 0
 553 520 554 518 554 514 c 0
 554 491 519 410 445 256 c 0
 384 128 334 17 334 8 c 0
 334 0 356 -6 381 -6 c 0
 399 -6 408 -8 408 -15 c 0
 408 -24 393 -41 362 -72 c 0
 323 -108 265 -147 231 -158 c 0
 217 -162 206 -165 197 -165 c 0
 170 -165 167 -139 167 -53 c 0
 167 -34 167 -14 167 4 c 0
 167 50 168 86 180 86 c 0
 184 86 190 81 198 68 c 0
 208 52 214 45 224 43 c 0
 230 42 236 41 242 41 c 0
 277 41 298 89 348 200 c 0
 387 286 417 364 417 369 c 0
 417 380 386 385 345 385 c 0
 271 385 165 370 145 350 c 0
 131 336 122 330 117 330 c 0
 115 330 113 332 113 336 c 0
 113 357 146 428 209 553 c 0
 262 658 294 728 294 750 c 0
EndSplineSet
Validated: 1
EndChar

